%TF.GenerationSoftware,Altium Limited,Altium Designer,20.1.7 (139)*%
G04 Layer_Color=32768*
%FSLAX44Y44*%
%MOMM*%
%TF.SameCoordinates,E03824B4-CBBF-40F0-B96A-956E77447FB1*%
%TF.FilePolarity,Positive*%
%TF.FileFunction,Other,Top_Courtyard*%
%TF.Part,Single*%
G01*
G75*
%TA.AperFunction,NonConductor*%
%ADD55C,0.1000*%
%ADD56C,0.0500*%
D55*
X1395500Y868500D02*
X1405500D01*
X1400500Y863500D02*
Y873500D01*
X1395850Y639750D02*
Y649750D01*
X1390850Y644750D02*
X1400850D01*
X769500Y674500D02*
Y684500D01*
X764500Y679500D02*
X774500D01*
X766750Y573000D02*
Y583000D01*
X761750Y578000D02*
X771750D01*
X1395500Y761500D02*
X1405500D01*
X1400500Y756500D02*
Y766500D01*
X616250Y778250D02*
X626250D01*
X621250Y773250D02*
Y783250D01*
X1402500Y989500D02*
Y999500D01*
X1397500Y994500D02*
X1407500D01*
X617000Y584250D02*
X627000D01*
X622000Y579250D02*
Y589250D01*
X616550Y681750D02*
X626550D01*
X621550Y676750D02*
Y686750D01*
X956750Y580500D02*
Y590500D01*
X951750Y585500D02*
X961750D01*
X767250Y778250D02*
X777250D01*
X772250Y773250D02*
Y783250D01*
D56*
X1453000Y831500D02*
Y905500D01*
X1348000Y831500D02*
Y905500D01*
X1453000D01*
X1348000Y831500D02*
X1453000D01*
X1343350Y607750D02*
X1448350D01*
X1343350Y681750D02*
X1448350D01*
X1343350Y607750D02*
Y681750D01*
X1448350Y607750D02*
Y681750D01*
X717000Y642500D02*
X822000D01*
X717000Y716500D02*
X822000D01*
X717000Y642500D02*
Y716500D01*
X822000Y642500D02*
Y716500D01*
X714250Y541000D02*
X819250D01*
X714250Y615000D02*
X819250D01*
X714250Y541000D02*
Y615000D01*
X819250Y541000D02*
Y615000D01*
X1453000Y724500D02*
Y798500D01*
X1348000Y724500D02*
Y798500D01*
X1453000D01*
X1348000Y724500D02*
X1453000D01*
X673750Y741250D02*
Y815250D01*
X568750Y741250D02*
Y815250D01*
X673750D01*
X568750Y741250D02*
X673750D01*
X1347500Y935750D02*
X1457500D01*
X1347500Y1053250D02*
X1457500D01*
X1347500Y935750D02*
Y1053250D01*
X1457500Y935750D02*
Y1053250D01*
X674500Y547250D02*
Y621250D01*
X569500Y547250D02*
Y621250D01*
X674500D01*
X569500Y547250D02*
X674500D01*
X674050Y644750D02*
Y718750D01*
X569050Y644750D02*
Y718750D01*
X674050D01*
X569050Y644750D02*
X674050D01*
X904250Y548500D02*
X1009250D01*
X904250Y622500D02*
X1009250D01*
X904250Y548500D02*
Y622500D01*
X1009250Y548500D02*
Y622500D01*
X824750Y741250D02*
Y815250D01*
X719750Y741250D02*
Y815250D01*
X824750D01*
X719750Y741250D02*
X824750D01*
%TF.MD5,da6f57f08df7f8aefa9d6cace275d764*%
M02*
