%TF.GenerationSoftware,Altium Limited,Altium Designer,20.1.7 (139)*%
G04 Layer_Color=255*
%FSLAX44Y44*%
%MOMM*%
%TF.SameCoordinates,E03824B4-CBBF-40F0-B96A-956E77447FB1*%
%TF.FilePolarity,Positive*%
%TF.FileFunction,Pads,Top*%
%TF.Part,Single*%
G01*
G75*
%TA.AperFunction,SMDPad,CuDef*%
%ADD10R,1.2000X0.7000*%
%ADD11R,1.1000X0.6000*%
%ADD12R,0.6000X1.4500*%
%ADD13R,0.7500X1.6000*%
%ADD14O,0.6000X1.4500*%
%ADD15R,1.6000X0.7500*%
%ADD16R,0.5800X1.6200*%
%ADD17R,1.1500X2.7000*%
%ADD18R,1.4000X1.1500*%
%ADD19R,0.5000X0.5500*%
%ADD20R,0.4000X0.5500*%
%ADD21R,0.5500X0.5000*%
%ADD22R,0.5500X0.4000*%
%ADD24C,1.0000*%
%TA.AperFunction,ViaPad*%
%ADD25C,5.5000*%
%TA.AperFunction,ComponentPad*%
%ADD26C,1.5000*%
%ADD27R,1.5000X1.5000*%
%ADD28C,1.7000*%
%ADD29R,1.7000X1.7000*%
D10*
X818500Y968750D02*
D03*
X818760Y938510D02*
D03*
X604760Y930260D02*
D03*
X604500Y960500D02*
D03*
X705760Y935760D02*
D03*
X705500Y966000D02*
D03*
D11*
X818000Y953750D02*
D03*
X604000Y945500D02*
D03*
X705000Y951000D02*
D03*
D12*
X1444950Y895750D02*
D03*
X1432250D02*
D03*
X1419550D02*
D03*
X1406850D02*
D03*
X1394150D02*
D03*
X1381450D02*
D03*
X1368750D02*
D03*
X1356050D02*
D03*
X1444950Y841250D02*
D03*
X1432250D02*
D03*
X1419550D02*
D03*
X1406850D02*
D03*
X1394150D02*
D03*
X1381450D02*
D03*
X1368750D02*
D03*
X1356050D02*
D03*
X1444950Y788750D02*
D03*
X1432250D02*
D03*
X1419550D02*
D03*
X1406850D02*
D03*
X1394150D02*
D03*
X1381450D02*
D03*
X1368750D02*
D03*
X1356050D02*
D03*
X1444950Y734250D02*
D03*
X1432250D02*
D03*
X1419550D02*
D03*
X1406850D02*
D03*
X1394150D02*
D03*
X1381450D02*
D03*
X1368750D02*
D03*
X1356050D02*
D03*
X912300Y558250D02*
D03*
X925000D02*
D03*
X937700D02*
D03*
X950400D02*
D03*
X963100D02*
D03*
X975800D02*
D03*
X988500D02*
D03*
X1001200D02*
D03*
X912300Y612750D02*
D03*
X925000D02*
D03*
X937700D02*
D03*
X950400D02*
D03*
X963100D02*
D03*
X975800D02*
D03*
X988500D02*
D03*
X1001200D02*
D03*
D13*
X869250Y584750D02*
D03*
X848250D02*
D03*
D14*
X1357750Y617500D02*
D03*
X1370450D02*
D03*
X1383150D02*
D03*
X1395850D02*
D03*
X1408550D02*
D03*
X1421250D02*
D03*
X1433950D02*
D03*
X1357750Y672000D02*
D03*
X1370450D02*
D03*
X1383150D02*
D03*
X1395850D02*
D03*
X1408550D02*
D03*
X1421250D02*
D03*
X1433950D02*
D03*
X731400Y652250D02*
D03*
X744100D02*
D03*
X756800D02*
D03*
X769500D02*
D03*
X782200D02*
D03*
X794900D02*
D03*
X807600D02*
D03*
X731400Y706750D02*
D03*
X744100D02*
D03*
X756800D02*
D03*
X769500D02*
D03*
X782200D02*
D03*
X794900D02*
D03*
X807600D02*
D03*
X728650Y550750D02*
D03*
X741350D02*
D03*
X754050D02*
D03*
X766750D02*
D03*
X779450D02*
D03*
X792150D02*
D03*
X804850D02*
D03*
X728650Y605250D02*
D03*
X741350D02*
D03*
X754050D02*
D03*
X766750D02*
D03*
X779450D02*
D03*
X792150D02*
D03*
X804850D02*
D03*
X659350Y805500D02*
D03*
X646650D02*
D03*
X633950D02*
D03*
X621250D02*
D03*
X608550D02*
D03*
X595850D02*
D03*
X583150D02*
D03*
X659350Y751000D02*
D03*
X646650D02*
D03*
X633950D02*
D03*
X621250D02*
D03*
X608550D02*
D03*
X595850D02*
D03*
X583150D02*
D03*
X660100Y611500D02*
D03*
X647400D02*
D03*
X634700D02*
D03*
X622000D02*
D03*
X609300D02*
D03*
X596600D02*
D03*
X583900D02*
D03*
X660100Y557000D02*
D03*
X647400D02*
D03*
X634700D02*
D03*
X622000D02*
D03*
X609300D02*
D03*
X596600D02*
D03*
X583900D02*
D03*
X659650Y709000D02*
D03*
X646950D02*
D03*
X634250D02*
D03*
X621550D02*
D03*
X608850D02*
D03*
X596150D02*
D03*
X583450D02*
D03*
X659650Y654500D02*
D03*
X646950D02*
D03*
X634250D02*
D03*
X621550D02*
D03*
X608850D02*
D03*
X596150D02*
D03*
X583450D02*
D03*
X810350Y805500D02*
D03*
X797650D02*
D03*
X784950D02*
D03*
X772250D02*
D03*
X759550D02*
D03*
X746850D02*
D03*
X734150D02*
D03*
X810350Y751000D02*
D03*
X797650D02*
D03*
X784950D02*
D03*
X772250D02*
D03*
X759550D02*
D03*
X746850D02*
D03*
X734150D02*
D03*
D15*
X1001000Y984000D02*
D03*
Y1005000D02*
D03*
X536250Y590250D02*
D03*
Y569250D02*
D03*
X1317000Y774750D02*
D03*
Y753750D02*
D03*
X858750Y688000D02*
D03*
Y667000D02*
D03*
X1319750Y658000D02*
D03*
Y637000D02*
D03*
X857250Y790500D02*
D03*
Y769500D02*
D03*
X1001000Y701000D02*
D03*
Y680000D02*
D03*
X1315500Y1001500D02*
D03*
Y1022500D02*
D03*
X1001000Y849250D02*
D03*
Y828250D02*
D03*
X541750Y796000D02*
D03*
Y775000D02*
D03*
X1319750Y887250D02*
D03*
Y866250D02*
D03*
X536250Y680750D02*
D03*
Y659750D02*
D03*
D16*
X1358050Y947600D02*
D03*
X1370750D02*
D03*
X1383450D02*
D03*
X1396150D02*
D03*
X1408850D02*
D03*
X1421550D02*
D03*
X1434250D02*
D03*
X1446950D02*
D03*
X1358050Y1041400D02*
D03*
X1370750D02*
D03*
X1383450D02*
D03*
X1396150D02*
D03*
X1408850D02*
D03*
X1421550D02*
D03*
X1434250D02*
D03*
X1446950D02*
D03*
D17*
X715750Y872750D02*
D03*
X686250D02*
D03*
X614250D02*
D03*
X584750D02*
D03*
X836500Y868750D02*
D03*
X807000D02*
D03*
D18*
X773750Y959250D02*
D03*
Y941750D02*
D03*
X558250Y958000D02*
D03*
Y940500D02*
D03*
X669500Y955250D02*
D03*
Y937750D02*
D03*
X1143000Y560750D02*
D03*
Y578250D02*
D03*
X1109000Y560000D02*
D03*
Y577500D02*
D03*
X1176000Y558500D02*
D03*
Y576000D02*
D03*
X1279000Y558500D02*
D03*
Y576000D02*
D03*
X1284250Y640000D02*
D03*
Y657500D02*
D03*
X1074000Y562250D02*
D03*
Y579750D02*
D03*
X1210000Y558500D02*
D03*
Y576000D02*
D03*
X1244750Y557750D02*
D03*
Y575250D02*
D03*
D19*
X1423000Y547000D02*
D03*
X1436000D02*
D03*
Y565000D02*
D03*
X1423000D02*
D03*
X1553250Y929500D02*
D03*
X1566250D02*
D03*
Y947500D02*
D03*
X1553250D02*
D03*
D20*
X1429500Y547000D02*
D03*
Y565000D02*
D03*
X1559750Y929500D02*
D03*
Y947500D02*
D03*
D21*
X1502750Y550250D02*
D03*
Y563250D02*
D03*
X1484750D02*
D03*
Y550250D02*
D03*
D22*
X1502750Y556750D02*
D03*
X1484750D02*
D03*
D24*
X436250Y480500D02*
D03*
X1600750Y1090750D02*
D03*
D25*
X1569750Y509750D02*
D03*
Y1059750D02*
D03*
X469750D02*
D03*
X-3153000Y942750D02*
D03*
X469750Y510250D02*
D03*
D26*
X1038550Y881450D02*
D03*
X1063950D02*
D03*
X1089350D02*
D03*
X1114750D02*
D03*
X1140150D02*
D03*
X1165550D02*
D03*
X1190950D02*
D03*
X1216350D02*
D03*
Y805250D02*
D03*
X1190950D02*
D03*
X1165550D02*
D03*
X1140150D02*
D03*
X1114750D02*
D03*
X1089350D02*
D03*
X1063950D02*
D03*
X1063300Y652300D02*
D03*
X1088700D02*
D03*
X1114100D02*
D03*
X1139500D02*
D03*
X1164900D02*
D03*
X1190300D02*
D03*
X1215700D02*
D03*
Y728500D02*
D03*
X1190300D02*
D03*
X1164900D02*
D03*
X1139500D02*
D03*
X1114100D02*
D03*
X1088700D02*
D03*
X1063300D02*
D03*
X1037900D02*
D03*
X1060600Y954050D02*
D03*
X1086000D02*
D03*
X1111400D02*
D03*
X1136800D02*
D03*
X1162200D02*
D03*
X1187600D02*
D03*
X1213000D02*
D03*
Y1030250D02*
D03*
X1187600D02*
D03*
X1162200D02*
D03*
X1136800D02*
D03*
X1111400D02*
D03*
X1086000D02*
D03*
X1060600D02*
D03*
X1035200D02*
D03*
D27*
X1038550Y805250D02*
D03*
X1037900Y652300D02*
D03*
X1035200Y954050D02*
D03*
D28*
X462000Y728500D02*
D03*
Y753900D02*
D03*
Y804700D02*
D03*
Y830100D02*
D03*
X487400Y753900D02*
D03*
Y804700D02*
D03*
Y830100D02*
D03*
X462000Y779300D02*
D03*
X487400D02*
D03*
X1580250Y832400D02*
D03*
Y807000D02*
D03*
Y756200D02*
D03*
Y730800D02*
D03*
X1554850Y807000D02*
D03*
Y756200D02*
D03*
Y730800D02*
D03*
X1580250Y781600D02*
D03*
X1554850D02*
D03*
D29*
X487400Y728500D02*
D03*
X1554850Y832400D02*
D03*
%TF.MD5,7c7cdeaf9720f575ef830d04bbaf779b*%
M02*
