%TF.GenerationSoftware,Altium Limited,Altium Designer,20.1.7 (139)*%
G04 Layer_Color=16711935*
%FSLAX44Y44*%
%MOMM*%
%TF.SameCoordinates,E03824B4-CBBF-40F0-B96A-956E77447FB1*%
%TF.FilePolarity,Negative*%
%TF.FileFunction,Soldermask,Bot*%
%TF.Part,Single*%
G01*
G75*
%TA.AperFunction,SMDPad,CuDef*%
%ADD31C,3.0000*%
%TA.AperFunction,ViaPad*%
%ADD32C,5.7032*%
%TA.AperFunction,ComponentPad*%
%ADD33C,1.7032*%
%ADD34R,1.7032X1.7032*%
%ADD35C,1.9032*%
%ADD36R,1.9032X1.9032*%
%TA.AperFunction,ViaPad*%
%ADD37C,1.2032*%
D31*
X436250Y480500D02*
D03*
X1600750Y1090750D02*
D03*
D32*
X1569750Y509750D02*
D03*
Y1059750D02*
D03*
X469750D02*
D03*
X-3153000Y942750D02*
D03*
X469750Y510250D02*
D03*
D33*
X1038550Y881450D02*
D03*
X1063950D02*
D03*
X1089350D02*
D03*
X1114750D02*
D03*
X1140150D02*
D03*
X1165550D02*
D03*
X1190950D02*
D03*
X1216350D02*
D03*
Y805250D02*
D03*
X1190950D02*
D03*
X1165550D02*
D03*
X1140150D02*
D03*
X1114750D02*
D03*
X1089350D02*
D03*
X1063950D02*
D03*
X1063300Y652300D02*
D03*
X1088700D02*
D03*
X1114100D02*
D03*
X1139500D02*
D03*
X1164900D02*
D03*
X1190300D02*
D03*
X1215700D02*
D03*
Y728500D02*
D03*
X1190300D02*
D03*
X1164900D02*
D03*
X1139500D02*
D03*
X1114100D02*
D03*
X1088700D02*
D03*
X1063300D02*
D03*
X1037900D02*
D03*
X1060600Y954050D02*
D03*
X1086000D02*
D03*
X1111400D02*
D03*
X1136800D02*
D03*
X1162200D02*
D03*
X1187600D02*
D03*
X1213000D02*
D03*
Y1030250D02*
D03*
X1187600D02*
D03*
X1162200D02*
D03*
X1136800D02*
D03*
X1111400D02*
D03*
X1086000D02*
D03*
X1060600D02*
D03*
X1035200D02*
D03*
D34*
X1038550Y805250D02*
D03*
X1037900Y652300D02*
D03*
X1035200Y954050D02*
D03*
D35*
X462000Y728500D02*
D03*
Y753900D02*
D03*
Y804700D02*
D03*
Y830100D02*
D03*
X487400Y753900D02*
D03*
Y804700D02*
D03*
Y830100D02*
D03*
X462000Y779300D02*
D03*
X487400D02*
D03*
X1580250Y832400D02*
D03*
Y807000D02*
D03*
Y756200D02*
D03*
Y730800D02*
D03*
X1554850Y807000D02*
D03*
Y756200D02*
D03*
Y730800D02*
D03*
X1580250Y781600D02*
D03*
X1554850D02*
D03*
D36*
X487400Y728500D02*
D03*
X1554850Y832400D02*
D03*
D37*
X509000Y1065250D02*
D03*
X1038061Y825550D02*
D03*
X1064729Y819729D02*
D03*
X1069250Y824250D02*
D03*
X1231358Y828957D02*
D03*
X1242500Y824500D02*
D03*
X1372175Y810364D02*
D03*
X1164500Y832000D02*
D03*
X1182000Y825250D02*
D03*
X1178250Y812247D02*
D03*
X1135250Y761500D02*
D03*
X1123631Y758500D02*
D03*
X1293000Y700750D02*
D03*
X1397500Y696250D02*
D03*
X1455000Y696000D02*
D03*
X1471399Y730149D02*
D03*
X1432250Y758500D02*
D03*
X1436506Y769720D02*
D03*
X1423243Y774534D02*
D03*
X1396750Y775050D02*
D03*
X1236325Y792350D02*
D03*
X1272750Y778000D02*
D03*
X1264132Y769650D02*
D03*
X1303880Y765850D02*
D03*
X1294940Y774861D02*
D03*
X1358790Y780750D02*
D03*
X971750Y593250D02*
D03*
X961040Y598662D02*
D03*
X983319Y579646D02*
D03*
X938000Y584400D02*
D03*
X977859Y534450D02*
D03*
X994284Y545198D02*
D03*
X1114750Y537500D02*
D03*
X1143000Y541000D02*
D03*
X1126000Y547250D02*
D03*
X1095642Y551321D02*
D03*
X1032000Y593250D02*
D03*
X1039250Y577250D02*
D03*
X1009610Y557110D02*
D03*
X1050000Y592250D02*
D03*
X1028241Y632000D02*
D03*
X986250Y648000D02*
D03*
X985435Y629500D02*
D03*
X968750Y637500D02*
D03*
X971750Y650250D02*
D03*
X1152004Y796900D02*
D03*
X1319750Y849000D02*
D03*
X1329661Y855766D02*
D03*
X1406750Y810000D02*
D03*
X1507750Y751750D02*
D03*
X1337500Y658000D02*
D03*
X1437750Y714750D02*
D03*
X1467250Y827250D02*
D03*
X1326500Y621750D02*
D03*
X1487350Y761403D02*
D03*
X1159457Y578707D02*
D03*
X1175750Y533750D02*
D03*
X1017500Y588750D02*
D03*
X1253000Y775650D02*
D03*
X1275750Y804750D02*
D03*
X1362250Y881750D02*
D03*
X1380880Y924707D02*
D03*
X1392150Y897409D02*
D03*
X1338871Y863793D02*
D03*
X1351500Y863750D02*
D03*
X1105750Y749500D02*
D03*
X1088207Y753207D02*
D03*
X1099087Y767500D02*
D03*
X1064416Y765650D02*
D03*
X1075010Y771287D02*
D03*
X1389038Y823299D02*
D03*
X1234750Y629500D02*
D03*
X1007614Y611050D02*
D03*
X1344000Y743000D02*
D03*
X1317400Y727800D02*
D03*
X1344000D02*
D03*
X1299750Y719000D02*
D03*
X1362000Y931000D02*
D03*
X1337250Y921000D02*
D03*
X1323227Y931850D02*
D03*
X1340643Y949143D02*
D03*
X1304250Y985750D02*
D03*
X1287000Y970000D02*
D03*
X1317250Y963000D02*
D03*
X1162500Y986250D02*
D03*
X1054500Y854250D02*
D03*
X1006620Y789120D02*
D03*
X1043650Y785500D02*
D03*
X1018250Y802663D02*
D03*
X1025645Y736250D02*
D03*
X999250Y730450D02*
D03*
X910750Y763500D02*
D03*
X946750Y732950D02*
D03*
X893750Y725350D02*
D03*
X909750Y726000D02*
D03*
X838500Y684100D02*
D03*
X685500Y688750D02*
D03*
X751750Y766750D02*
D03*
X710000Y758600D02*
D03*
X666250Y767500D02*
D03*
X655550Y776000D02*
D03*
X1103750Y922250D02*
D03*
X1056500Y921750D02*
D03*
X1035500Y922250D02*
D03*
X1007750Y863500D02*
D03*
X958250Y802650D02*
D03*
X941500Y693000D02*
D03*
X893750Y683600D02*
D03*
X646750Y692500D02*
D03*
X682750Y713750D02*
D03*
X690448Y725970D02*
D03*
X672750Y731000D02*
D03*
X668207Y742107D02*
D03*
X1096207Y898043D02*
D03*
X830750Y768250D02*
D03*
X842750Y803000D02*
D03*
X869250Y742500D02*
D03*
X1120500Y909750D02*
D03*
X1181750Y922500D02*
D03*
X1421000Y1030500D02*
D03*
X1422042Y879500D02*
D03*
X1299500Y1037500D02*
D03*
X999250Y765650D02*
D03*
X1090250Y976500D02*
D03*
X1136750Y981250D02*
D03*
X1206500Y939500D02*
D03*
X1220500Y933000D02*
D03*
X1252000Y960000D02*
D03*
X1264500Y908250D02*
D03*
X1171250Y933500D02*
D03*
X1248500Y905500D02*
D03*
X926000Y703750D02*
D03*
X973500Y688750D02*
D03*
X984750Y680250D02*
D03*
X927250Y630500D02*
D03*
X681000Y631500D02*
D03*
X627000Y696250D02*
D03*
X633500Y731600D02*
D03*
X706250Y724250D02*
D03*
X758000Y824500D02*
D03*
X672500Y829250D02*
D03*
X693750Y838000D02*
D03*
X719250Y836600D02*
D03*
X588750Y691500D02*
D03*
X565000Y736000D02*
D03*
X603250Y783750D02*
D03*
X590000Y765500D02*
D03*
X554500Y827000D02*
D03*
X532000Y842750D02*
D03*
X497250Y915750D02*
D03*
X1096000Y1001000D02*
D03*
X1236500Y668250D02*
D03*
X1317000Y681500D02*
D03*
X670250Y646500D02*
D03*
X702250Y663250D02*
D03*
X893000Y626250D02*
D03*
X848250Y652000D02*
D03*
Y626000D02*
D03*
X851000Y902000D02*
D03*
X633750Y891500D02*
D03*
X714000Y812750D02*
D03*
X1398750Y755500D02*
D03*
X1434250Y934759D02*
D03*
X1551250Y919000D02*
D03*
X1530641Y925859D02*
D03*
X1427100Y574565D02*
D03*
X1475000Y552750D02*
D03*
X1446750Y537250D02*
D03*
X1380350Y588250D02*
D03*
X1392350D02*
D03*
X1360000Y684500D02*
D03*
X700750Y915500D02*
D03*
X592500Y915000D02*
D03*
X498000Y961000D02*
D03*
X530750Y760000D02*
D03*
X554543Y756457D02*
D03*
X548250Y737250D02*
D03*
X549000Y710250D02*
D03*
X520750Y693250D02*
D03*
X520000Y734500D02*
D03*
X466100Y708250D02*
D03*
X518250Y829000D02*
D03*
X539000Y554250D02*
D03*
X1279000Y528250D02*
D03*
X910500Y540000D02*
D03*
X1194750Y543750D02*
D03*
X923500Y524250D02*
D03*
X950750Y523000D02*
D03*
X705500Y829250D02*
D03*
X773500Y988500D02*
D03*
X778000Y854500D02*
D03*
X668000Y846350D02*
D03*
X838750Y724250D02*
D03*
X1377000Y822750D02*
D03*
X1400986Y822190D02*
D03*
X1439000Y871000D02*
D03*
X1444500Y858750D02*
D03*
X797000Y922250D02*
D03*
X775500Y900750D02*
D03*
%TF.MD5,ced8279e73ce8635a105b5de20bf5bbc*%
M02*
