%TF.GenerationSoftware,Altium Limited,Altium Designer,20.1.7 (139)*%
G04 Layer_Color=16711935*
%FSLAX44Y44*%
%MOMM*%
%TF.SameCoordinates,E03824B4-CBBF-40F0-B96A-956E77447FB1*%
%TF.FilePolarity,Positive*%
%TF.FileFunction,Other,Top_Assembly*%
%TF.Part,Single*%
G01*
G75*
%TA.AperFunction,NonConductor*%
%ADD38C,0.2500*%
%ADD41C,0.2540*%
%ADD55C,0.1000*%
D38*
X1450500Y848500D02*
Y888500D01*
X1350500Y848500D02*
Y888500D01*
X1450500D01*
X1350500Y848500D02*
X1450500D01*
X1345850Y624750D02*
X1445850D01*
X1345850Y664750D02*
X1445850D01*
X1345850Y624750D02*
Y664750D01*
X1445850Y624750D02*
Y664750D01*
X719500Y659500D02*
X819500D01*
X719500Y699500D02*
X819500D01*
X719500Y659500D02*
Y699500D01*
X819500Y659500D02*
Y699500D01*
X716750Y558000D02*
X816750D01*
X716750Y598000D02*
X816750D01*
X716750Y558000D02*
Y598000D01*
X816750Y558000D02*
Y598000D01*
X1450500Y741500D02*
Y781500D01*
X1350500Y741500D02*
Y781500D01*
X1450500D01*
X1350500Y741500D02*
X1450500D01*
X671250Y758250D02*
Y798250D01*
X571250Y758250D02*
Y798250D01*
X671250D01*
X571250Y758250D02*
X671250D01*
X1350000Y956500D02*
X1455000D01*
X1350000Y1032500D02*
X1455000D01*
X1350000Y956500D02*
Y1032500D01*
X1455000Y956500D02*
Y1032500D01*
X672000Y564250D02*
Y604250D01*
X572000Y564250D02*
Y604250D01*
X672000D01*
X572000Y564250D02*
X672000D01*
X671550Y661750D02*
Y701750D01*
X571550Y661750D02*
Y701750D01*
X671550D01*
X571550Y661750D02*
X671550D01*
X906750Y565500D02*
X1006750D01*
X906750Y605500D02*
X1006750D01*
X906750Y565500D02*
Y605500D01*
X1006750Y565500D02*
Y605500D01*
X822250Y758250D02*
Y798250D01*
X722250Y758250D02*
Y798250D01*
X822250D01*
X722250Y758250D02*
X822250D01*
D41*
X385700Y757300D02*
X386700Y758300D01*
X357700Y757300D02*
X385700D01*
X386700Y758300D02*
Y803300D01*
X355700D02*
X386700D01*
X443700Y830100D02*
Y881300D01*
X355700D02*
X443700D01*
X355700Y677300D02*
Y881300D01*
Y677300D02*
X443700D01*
Y728500D01*
X444100Y753900D02*
X487400D01*
X443700Y779300D02*
X487400D01*
X444100Y804700D02*
X487400D01*
X443700Y830100D02*
X487400D01*
X443700Y728500D02*
Y830100D01*
Y728500D02*
X462000D01*
X487400D01*
X1655550Y802600D02*
X1656550Y803600D01*
X1684550D01*
X1655550Y757600D02*
Y802600D01*
Y757600D02*
X1686550D01*
X1598550Y679600D02*
Y730800D01*
Y679600D02*
X1686550D01*
Y883600D01*
X1598550D02*
X1686550D01*
X1598550Y832400D02*
Y883600D01*
X1554850Y807000D02*
X1598150D01*
X1554850Y781600D02*
X1598550D01*
X1554850Y756200D02*
X1598150D01*
X1554850Y730800D02*
X1598550D01*
Y832400D01*
X1580250D02*
X1598550D01*
X1554850D02*
X1580250D01*
D55*
X1365250Y858250D02*
G03*
X1365250Y858250I-5000J0D01*
G01*
X1360600Y634500D02*
G03*
X1360600Y634500I-5000J0D01*
G01*
X734250Y669250D02*
G03*
X734250Y669250I-5000J0D01*
G01*
X731500Y567750D02*
G03*
X731500Y567750I-5000J0D01*
G01*
X1365250Y751250D02*
G03*
X1365250Y751250I-5000J0D01*
G01*
X586000Y768000D02*
G03*
X586000Y768000I-5000J0D01*
G01*
X1364750Y966250D02*
G03*
X1364750Y966250I-5000J0D01*
G01*
X586750Y574000D02*
G03*
X586750Y574000I-5000J0D01*
G01*
X586300Y671500D02*
G03*
X586300Y671500I-5000J0D01*
G01*
X921500Y575250D02*
G03*
X921500Y575250I-5000J0D01*
G01*
X737000Y768000D02*
G03*
X737000Y768000I-5000J0D01*
G01*
%TF.MD5,2ec724619d6532e2b054f93059be657f*%
M02*
