%TF.GenerationSoftware,Altium Limited,Altium Designer,20.1.7 (139)*%
G04 Layer_Color=16711935*
%FSLAX44Y44*%
%MOMM*%
%TF.SameCoordinates,E03824B4-CBBF-40F0-B96A-956E77447FB1*%
%TF.FilePolarity,Positive*%
%TF.FileFunction,Other,Mechanical_1*%
%TF.Part,Single*%
G01*
G75*
%TA.AperFunction,NonConductor*%
%ADD38C,0.2500*%
%ADD40C,0.2000*%
%ADD41C,0.2540*%
G36*
X433700Y757597D02*
X433672D01*
X433603D01*
X433492D01*
X433353Y757611D01*
X433187Y757625D01*
X433007Y757667D01*
X432812Y757708D01*
X432618Y757778D01*
X432604D01*
X432577Y757792D01*
X432535Y757805D01*
X432466Y757833D01*
X432396Y757875D01*
X432299Y757916D01*
X432077Y758027D01*
X431814Y758166D01*
X431523Y758346D01*
X431218Y758554D01*
X430912Y758804D01*
X430899Y758818D01*
X430871Y758832D01*
X430829Y758873D01*
X430760Y758943D01*
X430691Y759012D01*
X430593Y759109D01*
X430482Y759206D01*
X430358Y759331D01*
X430219Y759470D01*
X430080Y759622D01*
X429914Y759789D01*
X429748Y759983D01*
X429567Y760177D01*
X429387Y760399D01*
X429193Y760621D01*
X428985Y760870D01*
X428971Y760898D01*
X428901Y760967D01*
X428818Y761065D01*
X428694Y761203D01*
X428555Y761370D01*
X428388Y761564D01*
X428208Y761786D01*
X428000Y762008D01*
X427570Y762479D01*
X427113Y762937D01*
X426891Y763159D01*
X426669Y763367D01*
X426461Y763547D01*
X426267Y763699D01*
X426253Y763713D01*
X426225Y763727D01*
X426170Y763769D01*
X426100Y763811D01*
X426003Y763880D01*
X425906Y763935D01*
X425656Y764074D01*
X425365Y764213D01*
X425046Y764337D01*
X424713Y764421D01*
X424547Y764435D01*
X424380Y764448D01*
X424367D01*
X424339D01*
X424283D01*
X424228Y764435D01*
X424145D01*
X424048Y764407D01*
X423840Y764365D01*
X423590Y764282D01*
X423326Y764157D01*
X423188Y764088D01*
X423063Y763991D01*
X422938Y763894D01*
X422813Y763769D01*
X422799Y763755D01*
X422786Y763741D01*
X422758Y763699D01*
X422716Y763644D01*
X422661Y763575D01*
X422605Y763492D01*
X422481Y763297D01*
X422369Y763034D01*
X422259Y762743D01*
X422189Y762396D01*
X422161Y762202D01*
Y761897D01*
X422175Y761813D01*
Y761716D01*
X422203Y761605D01*
X422245Y761356D01*
X422328Y761065D01*
X422453Y760759D01*
X422536Y760607D01*
X422619Y760454D01*
X422730Y760316D01*
X422855Y760177D01*
X422869Y760163D01*
X422883Y760149D01*
X422924Y760122D01*
X422980Y760066D01*
X423049Y760024D01*
X423132Y759969D01*
X423229Y759900D01*
X423340Y759844D01*
X423465Y759775D01*
X423604Y759719D01*
X423937Y759608D01*
X424297Y759525D01*
X424505Y759511D01*
X424727Y759497D01*
X424561Y757889D01*
X424533D01*
X424478Y757903D01*
X424394Y757916D01*
X424269Y757930D01*
X424117Y757958D01*
X423937Y758000D01*
X423742Y758041D01*
X423535Y758111D01*
X423326Y758180D01*
X423091Y758263D01*
X422869Y758374D01*
X422647Y758485D01*
X422411Y758624D01*
X422203Y758776D01*
X421995Y758943D01*
X421815Y759137D01*
X421801Y759151D01*
X421773Y759192D01*
X421732Y759248D01*
X421662Y759331D01*
X421593Y759442D01*
X421510Y759581D01*
X421427Y759733D01*
X421329Y759913D01*
X421246Y760108D01*
X421163Y760330D01*
X421080Y760565D01*
X421010Y760829D01*
X420941Y761106D01*
X420900Y761397D01*
X420872Y761716D01*
X420858Y762049D01*
Y762230D01*
X420872Y762354D01*
X420886Y762507D01*
X420913Y762687D01*
X420941Y762895D01*
X420983Y763103D01*
X421038Y763339D01*
X421107Y763575D01*
X421191Y763824D01*
X421288Y764060D01*
X421413Y764310D01*
X421551Y764546D01*
X421704Y764767D01*
X421884Y764975D01*
X421898Y764989D01*
X421926Y765017D01*
X421995Y765072D01*
X422064Y765142D01*
X422161Y765225D01*
X422286Y765322D01*
X422425Y765419D01*
X422591Y765516D01*
X422758Y765613D01*
X422952Y765710D01*
X423160Y765807D01*
X423382Y765891D01*
X423632Y765960D01*
X423881Y766015D01*
X424145Y766043D01*
X424422Y766057D01*
X424436D01*
X424450D01*
X424491D01*
X424547D01*
X424699Y766043D01*
X424894Y766015D01*
X425129Y765974D01*
X425379Y765919D01*
X425656Y765849D01*
X425934Y765738D01*
X425948D01*
X425961Y765724D01*
X426003Y765710D01*
X426059Y765683D01*
X426211Y765600D01*
X426405Y765489D01*
X426641Y765336D01*
X426904Y765156D01*
X427182Y764948D01*
X427487Y764684D01*
X427501Y764670D01*
X427529Y764656D01*
X427570Y764601D01*
X427640Y764546D01*
X427723Y764462D01*
X427820Y764365D01*
X427945Y764254D01*
X428069Y764116D01*
X428222Y763949D01*
X428388Y763769D01*
X428583Y763575D01*
X428777Y763353D01*
X428999Y763117D01*
X429221Y762853D01*
X429470Y762562D01*
X429734Y762257D01*
X429748Y762243D01*
X429789Y762202D01*
X429845Y762119D01*
X429928Y762035D01*
X430025Y761910D01*
X430136Y761786D01*
X430385Y761494D01*
X430649Y761189D01*
X430926Y760898D01*
X431051Y760759D01*
X431162Y760635D01*
X431273Y760524D01*
X431356Y760440D01*
X431370Y760427D01*
X431426Y760371D01*
X431509Y760302D01*
X431620Y760205D01*
X431745Y760094D01*
X431883Y759983D01*
X432188Y759761D01*
Y766071D01*
X433700D01*
Y757597D01*
D02*
G37*
G36*
X424894Y756280D02*
X425032Y756266D01*
X425185Y756238D01*
X425365Y756211D01*
X425573Y756169D01*
X425781Y756114D01*
X426003Y756044D01*
X426225Y755961D01*
X426461Y755850D01*
X426697Y755739D01*
X426932Y755600D01*
X427154Y755434D01*
X427376Y755254D01*
X427390Y755240D01*
X427418Y755198D01*
X427473Y755143D01*
X427556Y755046D01*
X427640Y754935D01*
X427737Y754782D01*
X427834Y754602D01*
X427931Y754394D01*
X428042Y754144D01*
X428139Y753881D01*
X428236Y753562D01*
X428319Y753229D01*
X428388Y752841D01*
X428444Y752424D01*
X428485Y751981D01*
X428499Y751481D01*
Y748208D01*
X433700D01*
Y746517D01*
X420900D01*
Y751787D01*
X420913Y752064D01*
X420927Y752383D01*
X420955Y752702D01*
X420983Y753007D01*
X420997Y753159D01*
X421024Y753284D01*
Y753298D01*
X421038Y753326D01*
Y753381D01*
X421052Y753437D01*
X421080Y753520D01*
X421094Y753617D01*
X421163Y753839D01*
X421246Y754089D01*
X421357Y754352D01*
X421482Y754616D01*
X421634Y754865D01*
Y754879D01*
X421648Y754893D01*
X421718Y754976D01*
X421815Y755087D01*
X421954Y755240D01*
X422120Y755392D01*
X422342Y755573D01*
X422578Y755739D01*
X422869Y755892D01*
X422883D01*
X422910Y755906D01*
X422952Y755933D01*
X423008Y755961D01*
X423077Y755989D01*
X423174Y756016D01*
X423382Y756100D01*
X423645Y756169D01*
X423937Y756238D01*
X424269Y756280D01*
X424616Y756294D01*
X424630D01*
X424686D01*
X424769D01*
X424894Y756280D01*
D02*
G37*
G36*
X433700Y742952D02*
X429137Y739707D01*
X429123Y739693D01*
X429068Y739666D01*
X428999Y739610D01*
X428888Y739541D01*
X428777Y739458D01*
X428652Y739374D01*
X428361Y739180D01*
X428374D01*
X428388Y739166D01*
X428472Y739111D01*
X428583Y739042D01*
X428721Y738944D01*
X429012Y738736D01*
X429151Y738653D01*
X429262Y738570D01*
X433700Y735325D01*
Y733286D01*
X427071Y738237D01*
X420900Y733869D01*
Y735880D01*
X424186Y738223D01*
X424200Y738237D01*
X424228Y738251D01*
X424283Y738293D01*
X424353Y738348D01*
X424436Y738404D01*
X424533Y738473D01*
X424755Y738625D01*
X425018Y738792D01*
X425268Y738958D01*
X425532Y739125D01*
X425753Y739249D01*
X425740D01*
X425726Y739263D01*
X425684Y739291D01*
X425629Y739333D01*
X425504Y739416D01*
X425323Y739541D01*
X425102Y739693D01*
X424852Y739860D01*
X424589Y740068D01*
X424311Y740276D01*
X420900Y742828D01*
Y744672D01*
X426988Y740220D01*
X433700Y745019D01*
Y742952D01*
D02*
G37*
G36*
X759455Y959086D02*
X761790D01*
Y957892D01*
X759455D01*
Y953645D01*
X758356D01*
X752037Y958104D01*
Y959086D01*
X758356D01*
Y960407D01*
X759455D01*
Y959086D01*
D02*
G37*
G36*
X761790Y949788D02*
X754172D01*
X754193Y949767D01*
X754246Y949714D01*
X754320Y949619D01*
X754425Y949482D01*
X754552Y949323D01*
X754689Y949122D01*
X754837Y948900D01*
X754996Y948647D01*
Y948636D01*
X755017Y948615D01*
X755038Y948583D01*
X755059Y948531D01*
X755101Y948467D01*
X755133Y948393D01*
X755228Y948224D01*
X755323Y948034D01*
X755429Y947823D01*
X755524Y947601D01*
X755609Y947389D01*
X754457D01*
X754446Y947400D01*
X754436Y947432D01*
X754404Y947485D01*
X754372Y947559D01*
X754330Y947643D01*
X754267Y947749D01*
X754203Y947865D01*
X754140Y947981D01*
X753971Y948256D01*
X753770Y948552D01*
X753559Y948858D01*
X753316Y949143D01*
X753305Y949154D01*
X753284Y949175D01*
X753252Y949217D01*
X753199Y949270D01*
X753136Y949323D01*
X753073Y949397D01*
X752893Y949556D01*
X752703Y949735D01*
X752481Y949915D01*
X752249Y950073D01*
X752005Y950211D01*
Y950982D01*
X761790D01*
Y949788D01*
D02*
G37*
G36*
Y944103D02*
X759761Y942814D01*
X759751Y942804D01*
X759719Y942793D01*
X759677Y942761D01*
X759613Y942719D01*
X759539Y942677D01*
X759455Y942613D01*
X759265Y942487D01*
X759043Y942339D01*
X758821Y942191D01*
X758609Y942032D01*
X758419Y941884D01*
X758409D01*
X758398Y941863D01*
X758345Y941821D01*
X758261Y941758D01*
X758166Y941662D01*
X758060Y941567D01*
X757954Y941451D01*
X757849Y941335D01*
X757775Y941229D01*
X757764Y941219D01*
X757743Y941176D01*
X757711Y941124D01*
X757669Y941050D01*
X757627Y940955D01*
X757585Y940859D01*
X757542Y940754D01*
X757511Y940638D01*
Y940627D01*
X757500Y940595D01*
X757489Y940542D01*
X757479Y940468D01*
Y940363D01*
X757468Y940236D01*
X757458Y940088D01*
Y938429D01*
X761790D01*
Y937140D01*
X752037D01*
Y941673D01*
X752048Y941789D01*
Y941905D01*
X752058Y942043D01*
X752069Y942201D01*
X752101Y942518D01*
X752153Y942846D01*
X752217Y943163D01*
X752259Y943300D01*
X752301Y943438D01*
Y943448D01*
X752312Y943469D01*
X752333Y943501D01*
X752354Y943554D01*
X752418Y943681D01*
X752513Y943829D01*
X752639Y944008D01*
X752809Y944188D01*
X752999Y944367D01*
X753231Y944526D01*
X753242D01*
X753263Y944547D01*
X753295Y944568D01*
X753347Y944589D01*
X753411Y944621D01*
X753485Y944653D01*
X753569Y944695D01*
X753664Y944737D01*
X753886Y944811D01*
X754129Y944875D01*
X754404Y944917D01*
X754700Y944938D01*
X754710D01*
X754742D01*
X754806D01*
X754869Y944927D01*
X754964Y944917D01*
X755070Y944906D01*
X755186Y944885D01*
X755313Y944854D01*
X755587Y944769D01*
X755735Y944716D01*
X755883Y944653D01*
X756031Y944579D01*
X756179Y944484D01*
X756317Y944378D01*
X756454Y944262D01*
X756464Y944251D01*
X756486Y944230D01*
X756517Y944188D01*
X756570Y944135D01*
X756623Y944061D01*
X756686Y943976D01*
X756760Y943871D01*
X756834Y943744D01*
X756908Y943607D01*
X756982Y943459D01*
X757056Y943290D01*
X757130Y943099D01*
X757194Y942899D01*
X757257Y942677D01*
X757310Y942434D01*
X757352Y942180D01*
Y942191D01*
X757363Y942201D01*
X757394Y942265D01*
X757447Y942360D01*
X757511Y942476D01*
X757585Y942603D01*
X757658Y942730D01*
X757754Y942856D01*
X757838Y942962D01*
X757849Y942973D01*
X757859Y942983D01*
X757891Y943015D01*
X757933Y943057D01*
X757986Y943110D01*
X758049Y943173D01*
X758197Y943311D01*
X758388Y943469D01*
X758609Y943649D01*
X758863Y943839D01*
X759138Y944029D01*
X761790Y945720D01*
Y944103D01*
D02*
G37*
G36*
X546290Y952638D02*
X546269D01*
X546216D01*
X546132D01*
X546026Y952648D01*
X545899Y952659D01*
X545762Y952691D01*
X545614Y952722D01*
X545466Y952775D01*
X545455D01*
X545434Y952786D01*
X545402Y952796D01*
X545350Y952817D01*
X545297Y952849D01*
X545223Y952881D01*
X545054Y952965D01*
X544853Y953071D01*
X544631Y953208D01*
X544399Y953367D01*
X544166Y953557D01*
X544156Y953568D01*
X544134Y953578D01*
X544103Y953610D01*
X544050Y953663D01*
X543997Y953716D01*
X543923Y953790D01*
X543839Y953863D01*
X543744Y953959D01*
X543638Y954064D01*
X543532Y954180D01*
X543405Y954307D01*
X543279Y954455D01*
X543141Y954603D01*
X543004Y954772D01*
X542856Y954941D01*
X542697Y955131D01*
X542687Y955153D01*
X542634Y955205D01*
X542571Y955279D01*
X542476Y955385D01*
X542370Y955512D01*
X542243Y955660D01*
X542106Y955829D01*
X541947Y955998D01*
X541620Y956357D01*
X541271Y956706D01*
X541102Y956875D01*
X540933Y957033D01*
X540774Y957171D01*
X540626Y957287D01*
X540616Y957298D01*
X540595Y957308D01*
X540552Y957340D01*
X540500Y957372D01*
X540426Y957424D01*
X540352Y957467D01*
X540162Y957572D01*
X539940Y957678D01*
X539697Y957773D01*
X539443Y957836D01*
X539316Y957847D01*
X539189Y957858D01*
X539179D01*
X539158D01*
X539115D01*
X539073Y957847D01*
X539010D01*
X538936Y957826D01*
X538777Y957794D01*
X538587Y957731D01*
X538386Y957636D01*
X538281Y957583D01*
X538186Y957509D01*
X538091Y957435D01*
X537995Y957340D01*
X537985Y957329D01*
X537974Y957319D01*
X537953Y957287D01*
X537921Y957245D01*
X537879Y957192D01*
X537837Y957128D01*
X537742Y956981D01*
X537657Y956780D01*
X537573Y956558D01*
X537520Y956294D01*
X537499Y956146D01*
Y955913D01*
X537509Y955850D01*
Y955776D01*
X537530Y955691D01*
X537562Y955501D01*
X537626Y955279D01*
X537721Y955047D01*
X537784Y954931D01*
X537847Y954814D01*
X537932Y954709D01*
X538027Y954603D01*
X538038Y954593D01*
X538048Y954582D01*
X538080Y954561D01*
X538122Y954519D01*
X538175Y954487D01*
X538238Y954445D01*
X538312Y954392D01*
X538397Y954350D01*
X538492Y954297D01*
X538598Y954254D01*
X538851Y954170D01*
X539126Y954106D01*
X539285Y954096D01*
X539454Y954085D01*
X539327Y952860D01*
X539306D01*
X539263Y952870D01*
X539200Y952881D01*
X539105Y952891D01*
X538989Y952912D01*
X538851Y952944D01*
X538703Y952976D01*
X538545Y953029D01*
X538386Y953082D01*
X538207Y953145D01*
X538038Y953229D01*
X537869Y953314D01*
X537689Y953420D01*
X537530Y953536D01*
X537372Y953663D01*
X537235Y953811D01*
X537224Y953821D01*
X537203Y953853D01*
X537171Y953895D01*
X537118Y953959D01*
X537066Y954043D01*
X537002Y954149D01*
X536939Y954265D01*
X536865Y954402D01*
X536801Y954550D01*
X536738Y954719D01*
X536675Y954899D01*
X536622Y955100D01*
X536569Y955311D01*
X536537Y955533D01*
X536516Y955776D01*
X536506Y956030D01*
Y956167D01*
X536516Y956262D01*
X536527Y956378D01*
X536548Y956516D01*
X536569Y956674D01*
X536601Y956833D01*
X536643Y957012D01*
X536696Y957192D01*
X536759Y957382D01*
X536833Y957562D01*
X536928Y957752D01*
X537034Y957932D01*
X537150Y958101D01*
X537287Y958259D01*
X537298Y958270D01*
X537319Y958291D01*
X537372Y958333D01*
X537425Y958386D01*
X537499Y958449D01*
X537594Y958523D01*
X537700Y958597D01*
X537826Y958671D01*
X537953Y958745D01*
X538101Y958819D01*
X538260Y958893D01*
X538429Y958956D01*
X538619Y959009D01*
X538809Y959052D01*
X539010Y959073D01*
X539221Y959083D01*
X539232D01*
X539242D01*
X539274D01*
X539316D01*
X539432Y959073D01*
X539580Y959052D01*
X539760Y959020D01*
X539950Y958978D01*
X540162Y958925D01*
X540373Y958840D01*
X540383D01*
X540394Y958830D01*
X540426Y958819D01*
X540468Y958798D01*
X540584Y958735D01*
X540732Y958650D01*
X540912Y958534D01*
X541113Y958396D01*
X541324Y958238D01*
X541556Y958037D01*
X541567Y958027D01*
X541588Y958016D01*
X541620Y957974D01*
X541673Y957932D01*
X541736Y957868D01*
X541810Y957794D01*
X541905Y957710D01*
X542000Y957604D01*
X542116Y957477D01*
X542243Y957340D01*
X542391Y957192D01*
X542539Y957023D01*
X542708Y956843D01*
X542877Y956642D01*
X543067Y956421D01*
X543268Y956188D01*
X543279Y956178D01*
X543310Y956146D01*
X543353Y956082D01*
X543416Y956019D01*
X543490Y955924D01*
X543574Y955829D01*
X543765Y955607D01*
X543965Y955374D01*
X544177Y955153D01*
X544272Y955047D01*
X544356Y954952D01*
X544441Y954867D01*
X544504Y954804D01*
X544515Y954793D01*
X544557Y954751D01*
X544621Y954698D01*
X544705Y954624D01*
X544800Y954540D01*
X544906Y954455D01*
X545138Y954286D01*
Y959094D01*
X546290D01*
Y952638D01*
D02*
G37*
G36*
Y948538D02*
X538672D01*
X538693Y948517D01*
X538746Y948464D01*
X538820Y948369D01*
X538925Y948232D01*
X539052Y948073D01*
X539189Y947872D01*
X539337Y947650D01*
X539496Y947397D01*
Y947386D01*
X539517Y947365D01*
X539538Y947333D01*
X539559Y947281D01*
X539602Y947217D01*
X539633Y947143D01*
X539728Y946974D01*
X539823Y946784D01*
X539929Y946573D01*
X540024Y946351D01*
X540109Y946139D01*
X538957D01*
X538946Y946150D01*
X538936Y946182D01*
X538904Y946235D01*
X538872Y946308D01*
X538830Y946393D01*
X538767Y946499D01*
X538703Y946615D01*
X538640Y946731D01*
X538471Y947006D01*
X538270Y947302D01*
X538059Y947608D01*
X537816Y947893D01*
X537805Y947904D01*
X537784Y947925D01*
X537752Y947967D01*
X537700Y948020D01*
X537636Y948073D01*
X537573Y948147D01*
X537393Y948306D01*
X537203Y948485D01*
X536981Y948665D01*
X536749Y948823D01*
X536506Y948961D01*
Y949732D01*
X546290D01*
Y948538D01*
D02*
G37*
G36*
Y942853D02*
X544261Y941564D01*
X544251Y941554D01*
X544219Y941543D01*
X544177Y941511D01*
X544113Y941469D01*
X544039Y941427D01*
X543955Y941363D01*
X543765Y941237D01*
X543543Y941089D01*
X543321Y940941D01*
X543110Y940782D01*
X542919Y940634D01*
X542909D01*
X542898Y940613D01*
X542845Y940571D01*
X542761Y940508D01*
X542666Y940412D01*
X542560Y940317D01*
X542454Y940201D01*
X542349Y940085D01*
X542275Y939979D01*
X542264Y939969D01*
X542243Y939926D01*
X542211Y939874D01*
X542169Y939799D01*
X542127Y939704D01*
X542085Y939609D01*
X542042Y939504D01*
X542011Y939388D01*
Y939377D01*
X542000Y939345D01*
X541990Y939292D01*
X541979Y939218D01*
Y939113D01*
X541968Y938986D01*
X541958Y938838D01*
Y937179D01*
X546290D01*
Y935890D01*
X536537D01*
Y940423D01*
X536548Y940539D01*
Y940655D01*
X536558Y940793D01*
X536569Y940951D01*
X536601Y941268D01*
X536653Y941596D01*
X536717Y941913D01*
X536759Y942050D01*
X536801Y942188D01*
Y942198D01*
X536812Y942219D01*
X536833Y942251D01*
X536854Y942304D01*
X536918Y942431D01*
X537013Y942579D01*
X537140Y942758D01*
X537309Y942938D01*
X537499Y943117D01*
X537731Y943276D01*
X537742D01*
X537763Y943297D01*
X537795Y943318D01*
X537847Y943339D01*
X537911Y943371D01*
X537985Y943403D01*
X538069Y943445D01*
X538164Y943487D01*
X538386Y943561D01*
X538629Y943625D01*
X538904Y943667D01*
X539200Y943688D01*
X539211D01*
X539242D01*
X539306D01*
X539369Y943677D01*
X539464Y943667D01*
X539570Y943656D01*
X539686Y943635D01*
X539813Y943603D01*
X540088Y943519D01*
X540235Y943466D01*
X540383Y943403D01*
X540531Y943329D01*
X540679Y943234D01*
X540817Y943128D01*
X540954Y943012D01*
X540965Y943001D01*
X540986Y942980D01*
X541017Y942938D01*
X541070Y942885D01*
X541123Y942811D01*
X541186Y942726D01*
X541260Y942621D01*
X541334Y942494D01*
X541408Y942357D01*
X541482Y942209D01*
X541556Y942040D01*
X541630Y941849D01*
X541694Y941649D01*
X541757Y941427D01*
X541810Y941184D01*
X541852Y940930D01*
Y940941D01*
X541863Y940951D01*
X541894Y941015D01*
X541947Y941110D01*
X542011Y941226D01*
X542085Y941353D01*
X542159Y941480D01*
X542254Y941606D01*
X542338Y941712D01*
X542349Y941723D01*
X542359Y941733D01*
X542391Y941765D01*
X542433Y941807D01*
X542486Y941860D01*
X542550Y941923D01*
X542697Y942061D01*
X542888Y942219D01*
X543110Y942399D01*
X543363Y942589D01*
X543638Y942779D01*
X546290Y944470D01*
Y942853D01*
D02*
G37*
G36*
X653166Y956397D02*
X653324Y956386D01*
X653514Y956376D01*
X653715Y956365D01*
X653937Y956344D01*
X654159Y956323D01*
X654624Y956259D01*
X655078Y956164D01*
X655300Y956111D01*
X655501Y956048D01*
X655511D01*
X655543Y956027D01*
X655606Y956016D01*
X655670Y955984D01*
X655765Y955942D01*
X655860Y955900D01*
X655976Y955847D01*
X656103Y955784D01*
X656367Y955636D01*
X656631Y955456D01*
X656896Y955245D01*
X657012Y955118D01*
X657128Y954991D01*
X657139Y954981D01*
X657149Y954960D01*
X657181Y954917D01*
X657213Y954865D01*
X657255Y954801D01*
X657308Y954717D01*
X657360Y954622D01*
X657413Y954505D01*
X657466Y954389D01*
X657519Y954252D01*
X657561Y954114D01*
X657614Y953956D01*
X657646Y953787D01*
X657677Y953607D01*
X657688Y953428D01*
X657699Y953227D01*
Y953163D01*
X657688Y953089D01*
X657677Y952994D01*
X657667Y952878D01*
X657646Y952741D01*
X657614Y952593D01*
X657572Y952424D01*
X657519Y952255D01*
X657456Y952075D01*
X657371Y951885D01*
X657276Y951705D01*
X657160Y951525D01*
X657022Y951346D01*
X656874Y951177D01*
X656695Y951018D01*
X656684Y951008D01*
X656642Y950976D01*
X656568Y950934D01*
X656462Y950870D01*
X656325Y950796D01*
X656166Y950712D01*
X655966Y950627D01*
X655744Y950543D01*
X655480Y950448D01*
X655194Y950363D01*
X654867Y950279D01*
X654508Y950205D01*
X654117Y950141D01*
X653694Y950099D01*
X653229Y950067D01*
X652732Y950057D01*
X652711D01*
X652658D01*
X652563D01*
X652447Y950067D01*
X652299D01*
X652130Y950078D01*
X651940Y950089D01*
X651739Y950099D01*
X651517Y950120D01*
X651295Y950141D01*
X650830Y950205D01*
X650376Y950289D01*
X650154Y950342D01*
X649953Y950406D01*
X649943D01*
X649911Y950427D01*
X649848Y950448D01*
X649774Y950469D01*
X649689Y950511D01*
X649584Y950553D01*
X649478Y950606D01*
X649351Y950670D01*
X649087Y950818D01*
X648823Y951008D01*
X648559Y951219D01*
X648442Y951335D01*
X648326Y951462D01*
X648316Y951473D01*
X648305Y951494D01*
X648273Y951536D01*
X648242Y951589D01*
X648189Y951652D01*
X648147Y951737D01*
X648094Y951832D01*
X648041Y951948D01*
X647988Y952064D01*
X647935Y952202D01*
X647882Y952350D01*
X647840Y952498D01*
X647808Y952667D01*
X647777Y952846D01*
X647766Y953036D01*
X647756Y953227D01*
Y953354D01*
X647766Y953428D01*
X647777Y953501D01*
X647798Y953692D01*
X647830Y953903D01*
X647893Y954135D01*
X647967Y954368D01*
X648073Y954600D01*
Y954611D01*
X648083Y954632D01*
X648104Y954664D01*
X648136Y954706D01*
X648199Y954812D01*
X648305Y954949D01*
X648432Y955107D01*
X648590Y955266D01*
X648781Y955435D01*
X648992Y955583D01*
X649002D01*
X649024Y955604D01*
X649055Y955615D01*
X649098Y955646D01*
X649150Y955678D01*
X649224Y955720D01*
X649309Y955752D01*
X649393Y955805D01*
X649605Y955900D01*
X649848Y955995D01*
X650133Y956101D01*
X650439Y956185D01*
X650450D01*
X650482Y956196D01*
X650524Y956206D01*
X650598Y956217D01*
X650682Y956238D01*
X650788Y956259D01*
X650904Y956280D01*
X651042Y956301D01*
X651200Y956312D01*
X651369Y956333D01*
X651559Y956354D01*
X651760Y956376D01*
X651982Y956386D01*
X652215Y956397D01*
X652468Y956407D01*
X652732D01*
X652753D01*
X652806D01*
X652901D01*
X653018D01*
X653166Y956397D01*
D02*
G37*
G36*
X657540Y945788D02*
X649922D01*
X649943Y945767D01*
X649996Y945714D01*
X650070Y945619D01*
X650175Y945481D01*
X650302Y945323D01*
X650439Y945122D01*
X650587Y944900D01*
X650746Y944647D01*
Y944636D01*
X650767Y944615D01*
X650788Y944583D01*
X650809Y944531D01*
X650852Y944467D01*
X650883Y944393D01*
X650978Y944224D01*
X651073Y944034D01*
X651179Y943823D01*
X651274Y943601D01*
X651359Y943389D01*
X650207D01*
X650196Y943400D01*
X650186Y943432D01*
X650154Y943484D01*
X650122Y943559D01*
X650080Y943643D01*
X650017Y943749D01*
X649953Y943865D01*
X649890Y943981D01*
X649721Y944256D01*
X649520Y944552D01*
X649309Y944858D01*
X649066Y945143D01*
X649055Y945154D01*
X649034Y945175D01*
X649002Y945217D01*
X648950Y945270D01*
X648886Y945323D01*
X648823Y945397D01*
X648643Y945555D01*
X648453Y945735D01*
X648231Y945915D01*
X647999Y946073D01*
X647756Y946211D01*
Y946982D01*
X657540D01*
Y945788D01*
D02*
G37*
G36*
Y940103D02*
X655511Y938814D01*
X655501Y938804D01*
X655469Y938793D01*
X655427Y938761D01*
X655363Y938719D01*
X655289Y938677D01*
X655205Y938613D01*
X655015Y938487D01*
X654793Y938339D01*
X654571Y938191D01*
X654360Y938032D01*
X654169Y937884D01*
X654159D01*
X654148Y937863D01*
X654095Y937821D01*
X654011Y937757D01*
X653916Y937662D01*
X653810Y937567D01*
X653704Y937451D01*
X653599Y937335D01*
X653525Y937229D01*
X653514Y937219D01*
X653493Y937176D01*
X653461Y937123D01*
X653419Y937050D01*
X653377Y936954D01*
X653335Y936859D01*
X653292Y936754D01*
X653261Y936637D01*
Y936627D01*
X653250Y936595D01*
X653240Y936542D01*
X653229Y936468D01*
Y936363D01*
X653218Y936236D01*
X653208Y936088D01*
Y934429D01*
X657540D01*
Y933140D01*
X647787D01*
Y937673D01*
X647798Y937789D01*
Y937905D01*
X647808Y938043D01*
X647819Y938201D01*
X647851Y938518D01*
X647904Y938846D01*
X647967Y939163D01*
X648009Y939300D01*
X648051Y939438D01*
Y939448D01*
X648062Y939469D01*
X648083Y939501D01*
X648104Y939554D01*
X648168Y939681D01*
X648263Y939828D01*
X648390Y940008D01*
X648559Y940188D01*
X648749Y940367D01*
X648981Y940526D01*
X648992D01*
X649013Y940547D01*
X649045Y940568D01*
X649098Y940589D01*
X649161Y940621D01*
X649235Y940653D01*
X649319Y940695D01*
X649414Y940737D01*
X649636Y940811D01*
X649879Y940875D01*
X650154Y940917D01*
X650450Y940938D01*
X650461D01*
X650492D01*
X650556D01*
X650619Y940927D01*
X650714Y940917D01*
X650820Y940906D01*
X650936Y940885D01*
X651063Y940854D01*
X651338Y940769D01*
X651486Y940716D01*
X651633Y940653D01*
X651781Y940579D01*
X651929Y940484D01*
X652067Y940378D01*
X652204Y940262D01*
X652215Y940251D01*
X652236Y940230D01*
X652267Y940188D01*
X652320Y940135D01*
X652373Y940061D01*
X652436Y939977D01*
X652510Y939871D01*
X652584Y939744D01*
X652658Y939607D01*
X652732Y939459D01*
X652806Y939290D01*
X652880Y939099D01*
X652944Y938899D01*
X653007Y938677D01*
X653060Y938434D01*
X653102Y938180D01*
Y938191D01*
X653113Y938201D01*
X653144Y938265D01*
X653197Y938360D01*
X653261Y938476D01*
X653335Y938603D01*
X653409Y938730D01*
X653504Y938856D01*
X653588Y938962D01*
X653599Y938973D01*
X653609Y938983D01*
X653641Y939015D01*
X653683Y939057D01*
X653736Y939110D01*
X653800Y939173D01*
X653947Y939311D01*
X654138Y939469D01*
X654360Y939649D01*
X654613Y939839D01*
X654888Y940029D01*
X657540Y941720D01*
Y940103D01*
D02*
G37*
G36*
X1164713Y578327D02*
X1164702Y578211D01*
Y578095D01*
X1164692Y577957D01*
X1164681Y577799D01*
X1164649Y577482D01*
X1164597Y577154D01*
X1164533Y576837D01*
X1164491Y576700D01*
X1164449Y576562D01*
Y576552D01*
X1164438Y576531D01*
X1164417Y576499D01*
X1164396Y576446D01*
X1164332Y576319D01*
X1164237Y576171D01*
X1164110Y575992D01*
X1163941Y575812D01*
X1163751Y575633D01*
X1163519Y575474D01*
X1163508D01*
X1163487Y575453D01*
X1163455Y575432D01*
X1163402Y575411D01*
X1163339Y575379D01*
X1163265Y575347D01*
X1163181Y575305D01*
X1163086Y575263D01*
X1162864Y575189D01*
X1162621Y575125D01*
X1162346Y575083D01*
X1162050Y575062D01*
X1162039D01*
X1162008D01*
X1161944D01*
X1161881Y575073D01*
X1161786Y575083D01*
X1161680Y575094D01*
X1161564Y575115D01*
X1161437Y575147D01*
X1161162Y575231D01*
X1161014Y575284D01*
X1160867Y575347D01*
X1160719Y575421D01*
X1160571Y575516D01*
X1160433Y575622D01*
X1160296Y575738D01*
X1160285Y575749D01*
X1160264Y575770D01*
X1160233Y575812D01*
X1160180Y575865D01*
X1160127Y575939D01*
X1160064Y576024D01*
X1159990Y576129D01*
X1159916Y576256D01*
X1159842Y576393D01*
X1159768Y576541D01*
X1159694Y576710D01*
X1159620Y576901D01*
X1159556Y577101D01*
X1159493Y577323D01*
X1159440Y577566D01*
X1159398Y577820D01*
Y577809D01*
X1159387Y577799D01*
X1159356Y577735D01*
X1159303Y577640D01*
X1159239Y577524D01*
X1159165Y577397D01*
X1159091Y577270D01*
X1158996Y577144D01*
X1158912Y577038D01*
X1158901Y577027D01*
X1158891Y577017D01*
X1158859Y576985D01*
X1158817Y576943D01*
X1158764Y576890D01*
X1158700Y576827D01*
X1158553Y576689D01*
X1158362Y576531D01*
X1158140Y576351D01*
X1157887Y576161D01*
X1157612Y575971D01*
X1154960Y574280D01*
Y575897D01*
X1156989Y577186D01*
X1156999Y577196D01*
X1157031Y577207D01*
X1157073Y577239D01*
X1157137Y577281D01*
X1157211Y577323D01*
X1157295Y577387D01*
X1157485Y577513D01*
X1157707Y577661D01*
X1157929Y577809D01*
X1158140Y577968D01*
X1158331Y578116D01*
X1158341D01*
X1158352Y578137D01*
X1158405Y578179D01*
X1158489Y578242D01*
X1158584Y578338D01*
X1158690Y578433D01*
X1158796Y578549D01*
X1158901Y578665D01*
X1158975Y578771D01*
X1158986Y578781D01*
X1159007Y578824D01*
X1159039Y578876D01*
X1159081Y578951D01*
X1159123Y579046D01*
X1159165Y579141D01*
X1159208Y579246D01*
X1159239Y579362D01*
Y579373D01*
X1159250Y579405D01*
X1159260Y579458D01*
X1159271Y579532D01*
Y579637D01*
X1159282Y579764D01*
X1159292Y579912D01*
Y581571D01*
X1154960D01*
Y582860D01*
X1164713D01*
Y578327D01*
D02*
G37*
G36*
X1162304Y572600D02*
X1162314Y572568D01*
X1162346Y572515D01*
X1162378Y572442D01*
X1162420Y572357D01*
X1162483Y572251D01*
X1162547Y572135D01*
X1162610Y572019D01*
X1162779Y571744D01*
X1162980Y571448D01*
X1163191Y571142D01*
X1163434Y570857D01*
X1163445Y570846D01*
X1163466Y570825D01*
X1163498Y570783D01*
X1163550Y570730D01*
X1163614Y570677D01*
X1163677Y570603D01*
X1163857Y570444D01*
X1164047Y570265D01*
X1164269Y570085D01*
X1164501Y569927D01*
X1164744Y569789D01*
Y569018D01*
X1154960D01*
Y570212D01*
X1162578D01*
X1162557Y570233D01*
X1162504Y570286D01*
X1162430Y570381D01*
X1162325Y570518D01*
X1162198Y570677D01*
X1162061Y570878D01*
X1161913Y571100D01*
X1161754Y571353D01*
Y571364D01*
X1161733Y571385D01*
X1161712Y571417D01*
X1161691Y571469D01*
X1161648Y571533D01*
X1161617Y571607D01*
X1161522Y571776D01*
X1161427Y571966D01*
X1161321Y572177D01*
X1161226Y572399D01*
X1161141Y572611D01*
X1162293D01*
X1162304Y572600D01*
D02*
G37*
G36*
X1130713Y577577D02*
X1130702Y577461D01*
Y577345D01*
X1130692Y577207D01*
X1130681Y577049D01*
X1130649Y576732D01*
X1130596Y576404D01*
X1130533Y576087D01*
X1130491Y575950D01*
X1130449Y575812D01*
Y575802D01*
X1130438Y575781D01*
X1130417Y575749D01*
X1130396Y575696D01*
X1130332Y575569D01*
X1130237Y575421D01*
X1130110Y575242D01*
X1129941Y575062D01*
X1129751Y574883D01*
X1129519Y574724D01*
X1129508D01*
X1129487Y574703D01*
X1129455Y574682D01*
X1129402Y574661D01*
X1129339Y574629D01*
X1129265Y574597D01*
X1129181Y574555D01*
X1129085Y574513D01*
X1128864Y574439D01*
X1128621Y574375D01*
X1128346Y574333D01*
X1128050Y574312D01*
X1128039D01*
X1128008D01*
X1127944D01*
X1127881Y574323D01*
X1127786Y574333D01*
X1127680Y574344D01*
X1127564Y574365D01*
X1127437Y574397D01*
X1127162Y574481D01*
X1127014Y574534D01*
X1126867Y574597D01*
X1126719Y574671D01*
X1126571Y574766D01*
X1126433Y574872D01*
X1126296Y574988D01*
X1126285Y574999D01*
X1126264Y575020D01*
X1126233Y575062D01*
X1126180Y575115D01*
X1126127Y575189D01*
X1126064Y575274D01*
X1125990Y575379D01*
X1125916Y575506D01*
X1125842Y575643D01*
X1125768Y575791D01*
X1125694Y575960D01*
X1125620Y576151D01*
X1125556Y576351D01*
X1125493Y576573D01*
X1125440Y576816D01*
X1125398Y577070D01*
Y577059D01*
X1125387Y577049D01*
X1125356Y576985D01*
X1125303Y576890D01*
X1125239Y576774D01*
X1125165Y576647D01*
X1125091Y576520D01*
X1124996Y576394D01*
X1124912Y576288D01*
X1124901Y576277D01*
X1124891Y576267D01*
X1124859Y576235D01*
X1124817Y576193D01*
X1124764Y576140D01*
X1124700Y576077D01*
X1124553Y575939D01*
X1124362Y575781D01*
X1124140Y575601D01*
X1123887Y575411D01*
X1123612Y575221D01*
X1120960Y573530D01*
Y575147D01*
X1122989Y576436D01*
X1122999Y576446D01*
X1123031Y576457D01*
X1123073Y576489D01*
X1123137Y576531D01*
X1123211Y576573D01*
X1123295Y576637D01*
X1123485Y576763D01*
X1123707Y576911D01*
X1123929Y577059D01*
X1124140Y577218D01*
X1124331Y577366D01*
X1124341D01*
X1124352Y577387D01*
X1124405Y577429D01*
X1124489Y577492D01*
X1124584Y577588D01*
X1124690Y577683D01*
X1124796Y577799D01*
X1124901Y577915D01*
X1124975Y578021D01*
X1124986Y578031D01*
X1125007Y578074D01*
X1125039Y578126D01*
X1125081Y578200D01*
X1125123Y578296D01*
X1125165Y578391D01*
X1125208Y578496D01*
X1125239Y578613D01*
Y578623D01*
X1125250Y578655D01*
X1125260Y578708D01*
X1125271Y578782D01*
Y578887D01*
X1125282Y579014D01*
X1125292Y579162D01*
Y580821D01*
X1120960D01*
Y582110D01*
X1130713D01*
Y577577D01*
D02*
G37*
G36*
X1121224Y572928D02*
X1121351Y572917D01*
X1121488Y572886D01*
X1121636Y572854D01*
X1121784Y572801D01*
X1121795D01*
X1121816Y572790D01*
X1121848Y572780D01*
X1121900Y572759D01*
X1121953Y572727D01*
X1122027Y572695D01*
X1122196Y572611D01*
X1122397Y572505D01*
X1122619Y572368D01*
X1122851Y572209D01*
X1123084Y572019D01*
X1123094Y572009D01*
X1123115Y571998D01*
X1123147Y571966D01*
X1123200Y571913D01*
X1123253Y571861D01*
X1123327Y571787D01*
X1123411Y571713D01*
X1123506Y571618D01*
X1123612Y571512D01*
X1123718Y571396D01*
X1123845Y571269D01*
X1123971Y571121D01*
X1124109Y570973D01*
X1124246Y570804D01*
X1124394Y570635D01*
X1124553Y570445D01*
X1124563Y570424D01*
X1124616Y570371D01*
X1124679Y570297D01*
X1124774Y570191D01*
X1124880Y570064D01*
X1125007Y569916D01*
X1125144Y569747D01*
X1125303Y569578D01*
X1125630Y569219D01*
X1125979Y568870D01*
X1126148Y568701D01*
X1126317Y568543D01*
X1126476Y568405D01*
X1126624Y568289D01*
X1126634Y568279D01*
X1126655Y568268D01*
X1126697Y568236D01*
X1126750Y568205D01*
X1126824Y568152D01*
X1126898Y568110D01*
X1127088Y568004D01*
X1127310Y567898D01*
X1127553Y567803D01*
X1127807Y567740D01*
X1127934Y567729D01*
X1128061Y567719D01*
X1128071D01*
X1128092D01*
X1128135D01*
X1128177Y567729D01*
X1128240D01*
X1128314Y567750D01*
X1128473Y567782D01*
X1128663Y567845D01*
X1128864Y567940D01*
X1128969Y567993D01*
X1129064Y568067D01*
X1129159Y568141D01*
X1129255Y568236D01*
X1129265Y568247D01*
X1129276Y568257D01*
X1129297Y568289D01*
X1129329Y568331D01*
X1129371Y568384D01*
X1129413Y568448D01*
X1129508Y568596D01*
X1129593Y568796D01*
X1129677Y569018D01*
X1129730Y569282D01*
X1129751Y569430D01*
Y569663D01*
X1129741Y569726D01*
Y569800D01*
X1129719Y569885D01*
X1129688Y570075D01*
X1129624Y570297D01*
X1129529Y570529D01*
X1129466Y570645D01*
X1129402Y570762D01*
X1129318Y570867D01*
X1129223Y570973D01*
X1129212Y570984D01*
X1129202Y570994D01*
X1129170Y571015D01*
X1129128Y571058D01*
X1129075Y571089D01*
X1129012Y571132D01*
X1128938Y571184D01*
X1128853Y571227D01*
X1128758Y571279D01*
X1128652Y571322D01*
X1128399Y571406D01*
X1128124Y571470D01*
X1127965Y571480D01*
X1127796Y571491D01*
X1127923Y572716D01*
X1127944D01*
X1127987Y572706D01*
X1128050Y572695D01*
X1128145Y572685D01*
X1128261Y572664D01*
X1128399Y572632D01*
X1128547Y572600D01*
X1128705Y572547D01*
X1128864Y572495D01*
X1129043Y572431D01*
X1129212Y572347D01*
X1129381Y572262D01*
X1129561Y572156D01*
X1129719Y572040D01*
X1129878Y571913D01*
X1130015Y571766D01*
X1130026Y571755D01*
X1130047Y571723D01*
X1130079Y571681D01*
X1130132Y571618D01*
X1130184Y571533D01*
X1130248Y571427D01*
X1130311Y571311D01*
X1130385Y571174D01*
X1130449Y571026D01*
X1130512Y570857D01*
X1130575Y570677D01*
X1130628Y570476D01*
X1130681Y570265D01*
X1130713Y570043D01*
X1130734Y569800D01*
X1130744Y569547D01*
Y569409D01*
X1130734Y569314D01*
X1130723Y569198D01*
X1130702Y569061D01*
X1130681Y568902D01*
X1130649Y568744D01*
X1130607Y568564D01*
X1130554Y568384D01*
X1130491Y568194D01*
X1130417Y568014D01*
X1130322Y567824D01*
X1130216Y567645D01*
X1130100Y567476D01*
X1129963Y567317D01*
X1129952Y567307D01*
X1129931Y567285D01*
X1129878Y567243D01*
X1129825Y567190D01*
X1129751Y567127D01*
X1129656Y567053D01*
X1129550Y566979D01*
X1129424Y566905D01*
X1129297Y566831D01*
X1129149Y566757D01*
X1128990Y566683D01*
X1128821Y566620D01*
X1128631Y566567D01*
X1128441Y566525D01*
X1128240Y566503D01*
X1128029Y566493D01*
X1128018D01*
X1128008D01*
X1127976D01*
X1127934D01*
X1127818Y566503D01*
X1127670Y566525D01*
X1127490Y566556D01*
X1127300Y566599D01*
X1127088Y566651D01*
X1126877Y566736D01*
X1126867D01*
X1126856Y566746D01*
X1126824Y566757D01*
X1126782Y566778D01*
X1126666Y566842D01*
X1126518Y566926D01*
X1126338Y567042D01*
X1126137Y567180D01*
X1125926Y567338D01*
X1125694Y567539D01*
X1125683Y567550D01*
X1125662Y567560D01*
X1125630Y567602D01*
X1125577Y567645D01*
X1125514Y567708D01*
X1125440Y567782D01*
X1125345Y567867D01*
X1125250Y567972D01*
X1125134Y568099D01*
X1125007Y568236D01*
X1124859Y568384D01*
X1124711Y568553D01*
X1124542Y568733D01*
X1124373Y568934D01*
X1124183Y569156D01*
X1123982Y569388D01*
X1123971Y569399D01*
X1123940Y569430D01*
X1123897Y569494D01*
X1123834Y569557D01*
X1123760Y569652D01*
X1123676Y569747D01*
X1123485Y569969D01*
X1123285Y570202D01*
X1123073Y570424D01*
X1122978Y570529D01*
X1122894Y570624D01*
X1122809Y570709D01*
X1122746Y570772D01*
X1122735Y570783D01*
X1122693Y570825D01*
X1122629Y570878D01*
X1122545Y570952D01*
X1122450Y571036D01*
X1122344Y571121D01*
X1122112Y571290D01*
Y566482D01*
X1120960D01*
Y572938D01*
X1120981D01*
X1121034D01*
X1121118D01*
X1121224Y572928D01*
D02*
G37*
G36*
X1412500Y567239D02*
X1404882D01*
X1404903Y567218D01*
X1404956Y567165D01*
X1405029Y567070D01*
X1405135Y566932D01*
X1405262Y566774D01*
X1405399Y566573D01*
X1405547Y566351D01*
X1405706Y566098D01*
Y566087D01*
X1405727Y566066D01*
X1405748Y566034D01*
X1405769Y565981D01*
X1405811Y565918D01*
X1405843Y565844D01*
X1405938Y565675D01*
X1406033Y565485D01*
X1406139Y565274D01*
X1406234Y565052D01*
X1406319Y564840D01*
X1405167D01*
X1405156Y564851D01*
X1405146Y564883D01*
X1405114Y564935D01*
X1405082Y565009D01*
X1405040Y565094D01*
X1404977Y565200D01*
X1404913Y565316D01*
X1404850Y565432D01*
X1404681Y565707D01*
X1404480Y566003D01*
X1404269Y566309D01*
X1404026Y566594D01*
X1404015Y566605D01*
X1403994Y566626D01*
X1403962Y566668D01*
X1403909Y566721D01*
X1403846Y566774D01*
X1403783Y566848D01*
X1403603Y567006D01*
X1403413Y567186D01*
X1403191Y567366D01*
X1402959Y567524D01*
X1402715Y567662D01*
Y568433D01*
X1412500D01*
Y567239D01*
D02*
G37*
G36*
X1407861Y562621D02*
X1407978D01*
X1408104Y562611D01*
X1408242Y562600D01*
X1408548Y562569D01*
X1408876Y562516D01*
X1409214Y562452D01*
X1409552Y562368D01*
X1409563D01*
X1409594Y562357D01*
X1409637Y562336D01*
X1409689Y562326D01*
X1409763Y562294D01*
X1409848Y562262D01*
X1410049Y562188D01*
X1410271Y562093D01*
X1410513Y561977D01*
X1410746Y561850D01*
X1410968Y561702D01*
X1410978D01*
X1410989Y561681D01*
X1411021Y561660D01*
X1411063Y561628D01*
X1411158Y561554D01*
X1411285Y561438D01*
X1411433Y561311D01*
X1411581Y561163D01*
X1411718Y560994D01*
X1411855Y560815D01*
Y560804D01*
X1411866Y560793D01*
X1411908Y560730D01*
X1411961Y560624D01*
X1412035Y560487D01*
X1412109Y560318D01*
X1412194Y560117D01*
X1412267Y559885D01*
X1412341Y559642D01*
Y559631D01*
X1412352Y559610D01*
Y559578D01*
X1412363Y559525D01*
X1412373Y559462D01*
X1412394Y559378D01*
X1412405Y559293D01*
X1412415Y559198D01*
X1412447Y558965D01*
X1412479Y558701D01*
X1412489Y558405D01*
X1412500Y558088D01*
Y554570D01*
X1402747D01*
Y558205D01*
X1402758Y558310D01*
Y558437D01*
X1402768Y558564D01*
X1402779Y558849D01*
X1402811Y559134D01*
X1402842Y559420D01*
X1402874Y559547D01*
X1402895Y559663D01*
Y559673D01*
X1402906Y559705D01*
X1402916Y559747D01*
X1402937Y559800D01*
X1402959Y559874D01*
X1402980Y559959D01*
X1403054Y560159D01*
X1403149Y560381D01*
X1403265Y560614D01*
X1403413Y560857D01*
X1403593Y561089D01*
X1403603Y561100D01*
X1403624Y561121D01*
X1403656Y561163D01*
X1403709Y561216D01*
X1403772Y561279D01*
X1403857Y561353D01*
X1403941Y561438D01*
X1404047Y561522D01*
X1404163Y561618D01*
X1404290Y561713D01*
X1404427Y561808D01*
X1404575Y561903D01*
X1404903Y562082D01*
X1405262Y562241D01*
X1405273D01*
X1405304Y562262D01*
X1405368Y562273D01*
X1405442Y562304D01*
X1405537Y562336D01*
X1405653Y562368D01*
X1405780Y562399D01*
X1405928Y562442D01*
X1406097Y562473D01*
X1406276Y562505D01*
X1406467Y562537D01*
X1406667Y562569D01*
X1406879Y562600D01*
X1407101Y562611D01*
X1407576Y562632D01*
X1407587D01*
X1407629D01*
X1407682D01*
X1407766D01*
X1407861Y562621D01*
D02*
G37*
G36*
X1412500Y549604D02*
Y548272D01*
X1402747Y544490D01*
Y545895D01*
X1409837Y548431D01*
X1409848D01*
X1409879Y548441D01*
X1409922Y548462D01*
X1409985Y548484D01*
X1410059Y548505D01*
X1410144Y548536D01*
X1410239Y548568D01*
X1410355Y548610D01*
X1410598Y548684D01*
X1410862Y548769D01*
X1411147Y548853D01*
X1411433Y548938D01*
X1411422D01*
X1411401Y548949D01*
X1411348Y548959D01*
X1411295Y548980D01*
X1411221Y549001D01*
X1411137Y549022D01*
X1411042Y549054D01*
X1410936Y549086D01*
X1410693Y549160D01*
X1410418Y549255D01*
X1410133Y549361D01*
X1409837Y549466D01*
X1402747Y552097D01*
Y553408D01*
X1412500Y549604D01*
D02*
G37*
G36*
X1197713Y576077D02*
X1197702Y575961D01*
Y575845D01*
X1197692Y575707D01*
X1197681Y575549D01*
X1197649Y575232D01*
X1197597Y574904D01*
X1197533Y574587D01*
X1197491Y574450D01*
X1197449Y574312D01*
Y574302D01*
X1197438Y574281D01*
X1197417Y574249D01*
X1197396Y574196D01*
X1197332Y574069D01*
X1197237Y573922D01*
X1197111Y573742D01*
X1196941Y573562D01*
X1196751Y573383D01*
X1196519Y573224D01*
X1196508D01*
X1196487Y573203D01*
X1196455Y573182D01*
X1196403Y573161D01*
X1196339Y573129D01*
X1196265Y573097D01*
X1196181Y573055D01*
X1196086Y573013D01*
X1195864Y572939D01*
X1195621Y572875D01*
X1195346Y572833D01*
X1195050Y572812D01*
X1195040D01*
X1195008D01*
X1194944D01*
X1194881Y572823D01*
X1194786Y572833D01*
X1194680Y572844D01*
X1194564Y572865D01*
X1194437Y572896D01*
X1194163Y572981D01*
X1194015Y573034D01*
X1193867Y573097D01*
X1193719Y573171D01*
X1193571Y573266D01*
X1193433Y573372D01*
X1193296Y573488D01*
X1193286Y573499D01*
X1193264Y573520D01*
X1193233Y573562D01*
X1193180Y573615D01*
X1193127Y573689D01*
X1193064Y573774D01*
X1192990Y573879D01*
X1192916Y574006D01*
X1192842Y574143D01*
X1192768Y574291D01*
X1192694Y574460D01*
X1192620Y574651D01*
X1192556Y574851D01*
X1192493Y575073D01*
X1192440Y575316D01*
X1192398Y575570D01*
Y575559D01*
X1192387Y575549D01*
X1192356Y575485D01*
X1192303Y575390D01*
X1192239Y575274D01*
X1192165Y575147D01*
X1192092Y575020D01*
X1191996Y574894D01*
X1191912Y574788D01*
X1191901Y574777D01*
X1191891Y574767D01*
X1191859Y574735D01*
X1191817Y574693D01*
X1191764Y574640D01*
X1191701Y574577D01*
X1191553Y574439D01*
X1191362Y574281D01*
X1191141Y574101D01*
X1190887Y573911D01*
X1190612Y573721D01*
X1187960Y572030D01*
Y573647D01*
X1189989Y574936D01*
X1189999Y574946D01*
X1190031Y574957D01*
X1190073Y574989D01*
X1190137Y575031D01*
X1190211Y575073D01*
X1190295Y575137D01*
X1190485Y575263D01*
X1190707Y575411D01*
X1190929Y575559D01*
X1191141Y575718D01*
X1191331Y575866D01*
X1191341D01*
X1191352Y575887D01*
X1191405Y575929D01*
X1191489Y575993D01*
X1191584Y576088D01*
X1191690Y576183D01*
X1191796Y576299D01*
X1191901Y576415D01*
X1191975Y576521D01*
X1191986Y576531D01*
X1192007Y576574D01*
X1192039Y576627D01*
X1192081Y576700D01*
X1192123Y576796D01*
X1192165Y576891D01*
X1192208Y576996D01*
X1192239Y577113D01*
Y577123D01*
X1192250Y577155D01*
X1192261Y577208D01*
X1192271Y577282D01*
Y577387D01*
X1192282Y577514D01*
X1192292Y577662D01*
Y579321D01*
X1187960D01*
Y580610D01*
X1197713D01*
Y576077D01*
D02*
G37*
G36*
X1190697Y570075D02*
X1190686D01*
X1190654Y570065D01*
X1190602Y570054D01*
X1190528Y570033D01*
X1190443Y570012D01*
X1190348Y569991D01*
X1190126Y569917D01*
X1189883Y569822D01*
X1189640Y569706D01*
X1189418Y569558D01*
X1189323Y569473D01*
X1189228Y569389D01*
Y569378D01*
X1189207Y569367D01*
X1189186Y569336D01*
X1189154Y569304D01*
X1189091Y569198D01*
X1189006Y569050D01*
X1188922Y568871D01*
X1188858Y568670D01*
X1188805Y568427D01*
X1188784Y568173D01*
Y568089D01*
X1188795Y568025D01*
X1188805Y567962D01*
X1188816Y567867D01*
X1188858Y567677D01*
X1188922Y567444D01*
X1189027Y567201D01*
X1189101Y567085D01*
X1189175Y566969D01*
X1189260Y566853D01*
X1189365Y566736D01*
X1189376Y566726D01*
X1189397Y566715D01*
X1189429Y566684D01*
X1189471Y566641D01*
X1189524Y566599D01*
X1189598Y566557D01*
X1189672Y566504D01*
X1189767Y566441D01*
X1189978Y566335D01*
X1190221Y566250D01*
X1190507Y566176D01*
X1190654Y566166D01*
X1190813Y566155D01*
X1190824D01*
X1190845D01*
X1190898D01*
X1190950Y566166D01*
X1191024Y566176D01*
X1191098Y566187D01*
X1191288Y566219D01*
X1191510Y566292D01*
X1191732Y566388D01*
X1191848Y566451D01*
X1191954Y566525D01*
X1192060Y566609D01*
X1192165Y566705D01*
X1192176Y566715D01*
X1192187Y566726D01*
X1192218Y566758D01*
X1192250Y566800D01*
X1192292Y566853D01*
X1192335Y566916D01*
X1192440Y567075D01*
X1192535Y567275D01*
X1192620Y567508D01*
X1192683Y567772D01*
X1192694Y567920D01*
X1192704Y568068D01*
Y568131D01*
X1192694Y568205D01*
Y568300D01*
X1192673Y568427D01*
X1192652Y568564D01*
X1192620Y568733D01*
X1192578Y568913D01*
X1193624Y568786D01*
Y568765D01*
X1193613Y568712D01*
X1193603Y568649D01*
Y568512D01*
X1193613Y568459D01*
Y568385D01*
X1193624Y568311D01*
X1193655Y568131D01*
X1193698Y567920D01*
X1193772Y567687D01*
X1193867Y567444D01*
X1194004Y567212D01*
Y567201D01*
X1194025Y567180D01*
X1194046Y567159D01*
X1194078Y567117D01*
X1194173Y567011D01*
X1194310Y566895D01*
X1194480Y566789D01*
X1194691Y566684D01*
X1194807Y566641D01*
X1194944Y566620D01*
X1195082Y566599D01*
X1195230Y566588D01*
X1195240D01*
X1195261D01*
X1195293D01*
X1195346Y566599D01*
X1195462Y566609D01*
X1195621Y566641D01*
X1195790Y566694D01*
X1195969Y566779D01*
X1196160Y566895D01*
X1196244Y566958D01*
X1196329Y567043D01*
X1196350Y567064D01*
X1196392Y567127D01*
X1196466Y567222D01*
X1196551Y567349D01*
X1196625Y567518D01*
X1196698Y567719D01*
X1196741Y567941D01*
X1196762Y568195D01*
Y568258D01*
X1196751Y568311D01*
Y568374D01*
X1196741Y568438D01*
X1196709Y568607D01*
X1196656Y568786D01*
X1196572Y568987D01*
X1196466Y569177D01*
X1196318Y569367D01*
X1196297Y569389D01*
X1196234Y569441D01*
X1196138Y569526D01*
X1195991Y569610D01*
X1195811Y569716D01*
X1195578Y569811D01*
X1195314Y569896D01*
X1195008Y569959D01*
X1195219Y571153D01*
X1195230D01*
X1195272Y571143D01*
X1195335Y571132D01*
X1195420Y571111D01*
X1195515Y571079D01*
X1195631Y571047D01*
X1195758Y571005D01*
X1195895Y570952D01*
X1196202Y570815D01*
X1196350Y570741D01*
X1196508Y570646D01*
X1196656Y570540D01*
X1196804Y570424D01*
X1196952Y570297D01*
X1197079Y570160D01*
X1197089Y570149D01*
X1197111Y570128D01*
X1197142Y570075D01*
X1197185Y570023D01*
X1197237Y569938D01*
X1197290Y569853D01*
X1197354Y569748D01*
X1197417Y569621D01*
X1197470Y569494D01*
X1197533Y569346D01*
X1197586Y569188D01*
X1197639Y569019D01*
X1197681Y568829D01*
X1197713Y568638D01*
X1197734Y568438D01*
X1197745Y568226D01*
Y568089D01*
X1197734Y568015D01*
X1197723Y567941D01*
X1197702Y567740D01*
X1197660Y567518D01*
X1197597Y567265D01*
X1197512Y567011D01*
X1197396Y566758D01*
Y566747D01*
X1197385Y566726D01*
X1197364Y566694D01*
X1197332Y566641D01*
X1197258Y566525D01*
X1197153Y566377D01*
X1197015Y566208D01*
X1196857Y566039D01*
X1196677Y565870D01*
X1196466Y565722D01*
X1196455D01*
X1196445Y565711D01*
X1196403Y565690D01*
X1196360Y565669D01*
X1196308Y565637D01*
X1196244Y565606D01*
X1196086Y565542D01*
X1195895Y565479D01*
X1195684Y565415D01*
X1195452Y565373D01*
X1195209Y565363D01*
X1195198D01*
X1195177D01*
X1195145D01*
X1195103D01*
X1194976Y565384D01*
X1194828Y565405D01*
X1194649Y565447D01*
X1194458Y565511D01*
X1194258Y565595D01*
X1194057Y565711D01*
X1194046D01*
X1194036Y565722D01*
X1193972Y565775D01*
X1193877Y565849D01*
X1193761Y565965D01*
X1193624Y566102D01*
X1193486Y566282D01*
X1193359Y566483D01*
X1193233Y566715D01*
Y566705D01*
X1193222Y566673D01*
X1193212Y566631D01*
X1193190Y566567D01*
X1193169Y566504D01*
X1193138Y566419D01*
X1193053Y566219D01*
X1192937Y566007D01*
X1192799Y565785D01*
X1192620Y565564D01*
X1192398Y565373D01*
X1192387Y565363D01*
X1192366Y565352D01*
X1192335Y565331D01*
X1192282Y565299D01*
X1192229Y565257D01*
X1192155Y565215D01*
X1192070Y565173D01*
X1191965Y565130D01*
X1191859Y565088D01*
X1191743Y565046D01*
X1191479Y564961D01*
X1191172Y564908D01*
X1191003Y564887D01*
X1190834D01*
X1190824D01*
X1190781D01*
X1190707Y564898D01*
X1190623D01*
X1190507Y564919D01*
X1190380Y564940D01*
X1190242Y564961D01*
X1190084Y565003D01*
X1189915Y565056D01*
X1189746Y565120D01*
X1189566Y565194D01*
X1189387Y565289D01*
X1189196Y565394D01*
X1189017Y565521D01*
X1188837Y565659D01*
X1188668Y565828D01*
X1188657Y565838D01*
X1188626Y565870D01*
X1188583Y565923D01*
X1188531Y565997D01*
X1188467Y566081D01*
X1188393Y566197D01*
X1188309Y566324D01*
X1188235Y566472D01*
X1188150Y566631D01*
X1188066Y566810D01*
X1187992Y567001D01*
X1187928Y567212D01*
X1187876Y567434D01*
X1187833Y567666D01*
X1187802Y567909D01*
X1187791Y568173D01*
Y568226D01*
X1187802Y568300D01*
Y568385D01*
X1187812Y568501D01*
X1187833Y568628D01*
X1187854Y568765D01*
X1187886Y568924D01*
X1187928Y569093D01*
X1187981Y569262D01*
X1188034Y569441D01*
X1188108Y569621D01*
X1188203Y569801D01*
X1188298Y569970D01*
X1188414Y570149D01*
X1188552Y570308D01*
X1188562Y570318D01*
X1188583Y570340D01*
X1188626Y570382D01*
X1188689Y570445D01*
X1188763Y570508D01*
X1188858Y570583D01*
X1188964Y570657D01*
X1189091Y570741D01*
X1189217Y570826D01*
X1189376Y570910D01*
X1189534Y570995D01*
X1189714Y571069D01*
X1189904Y571132D01*
X1190105Y571195D01*
X1190316Y571238D01*
X1190538Y571269D01*
X1190697Y570075D01*
D02*
G37*
G36*
X1300713Y576077D02*
X1300702Y575961D01*
Y575845D01*
X1300692Y575707D01*
X1300681Y575549D01*
X1300649Y575232D01*
X1300597Y574904D01*
X1300533Y574587D01*
X1300491Y574450D01*
X1300449Y574312D01*
Y574302D01*
X1300438Y574281D01*
X1300417Y574249D01*
X1300396Y574196D01*
X1300332Y574069D01*
X1300237Y573922D01*
X1300110Y573742D01*
X1299941Y573562D01*
X1299751Y573383D01*
X1299519Y573224D01*
X1299508D01*
X1299487Y573203D01*
X1299455Y573182D01*
X1299403Y573161D01*
X1299339Y573129D01*
X1299265Y573097D01*
X1299181Y573055D01*
X1299086Y573013D01*
X1298864Y572939D01*
X1298621Y572875D01*
X1298346Y572833D01*
X1298050Y572812D01*
X1298040D01*
X1298008D01*
X1297944D01*
X1297881Y572823D01*
X1297786Y572833D01*
X1297680Y572844D01*
X1297564Y572865D01*
X1297437Y572896D01*
X1297162Y572981D01*
X1297015Y573034D01*
X1296867Y573097D01*
X1296719Y573171D01*
X1296571Y573266D01*
X1296433Y573372D01*
X1296296Y573488D01*
X1296286Y573499D01*
X1296264Y573520D01*
X1296233Y573562D01*
X1296180Y573615D01*
X1296127Y573689D01*
X1296064Y573774D01*
X1295990Y573879D01*
X1295916Y574006D01*
X1295842Y574143D01*
X1295768Y574291D01*
X1295694Y574460D01*
X1295620Y574651D01*
X1295556Y574851D01*
X1295493Y575073D01*
X1295440Y575316D01*
X1295398Y575570D01*
Y575559D01*
X1295387Y575549D01*
X1295356Y575485D01*
X1295303Y575390D01*
X1295239Y575274D01*
X1295165Y575147D01*
X1295092Y575020D01*
X1294996Y574894D01*
X1294912Y574788D01*
X1294901Y574777D01*
X1294891Y574767D01*
X1294859Y574735D01*
X1294817Y574693D01*
X1294764Y574640D01*
X1294700Y574577D01*
X1294553Y574439D01*
X1294362Y574281D01*
X1294140Y574101D01*
X1293887Y573911D01*
X1293612Y573721D01*
X1290960Y572030D01*
Y573647D01*
X1292989Y574936D01*
X1292999Y574946D01*
X1293031Y574957D01*
X1293073Y574989D01*
X1293137Y575031D01*
X1293211Y575073D01*
X1293295Y575137D01*
X1293485Y575263D01*
X1293707Y575411D01*
X1293929Y575559D01*
X1294140Y575718D01*
X1294331Y575866D01*
X1294341D01*
X1294352Y575887D01*
X1294405Y575929D01*
X1294489Y575993D01*
X1294584Y576088D01*
X1294690Y576183D01*
X1294796Y576299D01*
X1294901Y576415D01*
X1294975Y576521D01*
X1294986Y576531D01*
X1295007Y576574D01*
X1295039Y576627D01*
X1295081Y576700D01*
X1295123Y576796D01*
X1295165Y576891D01*
X1295208Y576996D01*
X1295239Y577113D01*
Y577123D01*
X1295250Y577155D01*
X1295260Y577208D01*
X1295271Y577282D01*
Y577387D01*
X1295282Y577514D01*
X1295292Y577662D01*
Y579321D01*
X1290960D01*
Y580610D01*
X1300713D01*
Y576077D01*
D02*
G37*
G36*
Y567222D02*
Y566240D01*
X1294394D01*
Y564919D01*
X1293295D01*
Y566240D01*
X1290960D01*
Y567434D01*
X1293295D01*
Y571681D01*
X1294394D01*
X1300713Y567222D01*
D02*
G37*
G36*
X1305963Y657577D02*
X1305952Y657461D01*
Y657345D01*
X1305942Y657207D01*
X1305931Y657049D01*
X1305899Y656732D01*
X1305847Y656404D01*
X1305783Y656087D01*
X1305741Y655950D01*
X1305699Y655812D01*
Y655802D01*
X1305688Y655781D01*
X1305667Y655749D01*
X1305646Y655696D01*
X1305582Y655569D01*
X1305487Y655422D01*
X1305361Y655242D01*
X1305191Y655062D01*
X1305001Y654883D01*
X1304769Y654724D01*
X1304758D01*
X1304737Y654703D01*
X1304705Y654682D01*
X1304653Y654661D01*
X1304589Y654629D01*
X1304515Y654597D01*
X1304431Y654555D01*
X1304335Y654513D01*
X1304114Y654439D01*
X1303871Y654375D01*
X1303596Y654333D01*
X1303300Y654312D01*
X1303289D01*
X1303258D01*
X1303194D01*
X1303131Y654323D01*
X1303036Y654333D01*
X1302930Y654344D01*
X1302814Y654365D01*
X1302687Y654397D01*
X1302413Y654481D01*
X1302265Y654534D01*
X1302117Y654597D01*
X1301969Y654671D01*
X1301821Y654766D01*
X1301683Y654872D01*
X1301546Y654988D01*
X1301535Y654999D01*
X1301514Y655020D01*
X1301483Y655062D01*
X1301430Y655115D01*
X1301377Y655189D01*
X1301314Y655274D01*
X1301240Y655379D01*
X1301166Y655506D01*
X1301092Y655643D01*
X1301018Y655791D01*
X1300944Y655960D01*
X1300870Y656151D01*
X1300806Y656351D01*
X1300743Y656573D01*
X1300690Y656816D01*
X1300648Y657070D01*
Y657059D01*
X1300637Y657049D01*
X1300606Y656985D01*
X1300553Y656890D01*
X1300489Y656774D01*
X1300415Y656647D01*
X1300341Y656520D01*
X1300246Y656394D01*
X1300162Y656288D01*
X1300151Y656277D01*
X1300141Y656267D01*
X1300109Y656235D01*
X1300067Y656193D01*
X1300014Y656140D01*
X1299951Y656077D01*
X1299803Y655939D01*
X1299612Y655781D01*
X1299391Y655601D01*
X1299137Y655411D01*
X1298862Y655221D01*
X1296210Y653530D01*
Y655147D01*
X1298239Y656436D01*
X1298249Y656446D01*
X1298281Y656457D01*
X1298323Y656489D01*
X1298387Y656531D01*
X1298461Y656573D01*
X1298545Y656637D01*
X1298735Y656763D01*
X1298957Y656911D01*
X1299179Y657059D01*
X1299391Y657218D01*
X1299581Y657366D01*
X1299591D01*
X1299602Y657387D01*
X1299655Y657429D01*
X1299739Y657493D01*
X1299834Y657588D01*
X1299940Y657683D01*
X1300046Y657799D01*
X1300151Y657915D01*
X1300225Y658021D01*
X1300236Y658031D01*
X1300257Y658074D01*
X1300289Y658127D01*
X1300331Y658200D01*
X1300373Y658296D01*
X1300415Y658391D01*
X1300458Y658496D01*
X1300489Y658613D01*
Y658623D01*
X1300500Y658655D01*
X1300511Y658708D01*
X1300521Y658782D01*
Y658887D01*
X1300532Y659014D01*
X1300542Y659162D01*
Y660821D01*
X1296210D01*
Y662110D01*
X1305963D01*
Y657577D01*
D02*
G37*
G36*
X1298862Y651512D02*
X1298852D01*
X1298820Y651501D01*
X1298778Y651491D01*
X1298714Y651480D01*
X1298640Y651470D01*
X1298545Y651438D01*
X1298344Y651385D01*
X1298123Y651301D01*
X1297890Y651184D01*
X1297679Y651047D01*
X1297584Y650963D01*
X1297489Y650878D01*
Y650867D01*
X1297467Y650857D01*
X1297446Y650825D01*
X1297415Y650783D01*
X1297341Y650677D01*
X1297267Y650529D01*
X1297182Y650350D01*
X1297108Y650138D01*
X1297055Y649906D01*
X1297045Y649779D01*
X1297034Y649642D01*
Y649557D01*
X1297045Y649494D01*
X1297055Y649420D01*
X1297066Y649335D01*
X1297119Y649135D01*
X1297193Y648902D01*
X1297245Y648786D01*
X1297309Y648659D01*
X1297383Y648532D01*
X1297467Y648416D01*
X1297563Y648300D01*
X1297679Y648184D01*
X1297689Y648173D01*
X1297710Y648162D01*
X1297742Y648131D01*
X1297795Y648088D01*
X1297869Y648046D01*
X1297943Y647993D01*
X1298038Y647941D01*
X1298144Y647877D01*
X1298260Y647824D01*
X1298387Y647771D01*
X1298535Y647719D01*
X1298683Y647676D01*
X1298852Y647634D01*
X1299031Y647602D01*
X1299211Y647592D01*
X1299412Y647581D01*
X1299422D01*
X1299454D01*
X1299507D01*
X1299581Y647592D01*
X1299665Y647602D01*
X1299771Y647613D01*
X1299877Y647634D01*
X1300003Y647655D01*
X1300257Y647719D01*
X1300532Y647824D01*
X1300658Y647888D01*
X1300785Y647972D01*
X1300912Y648057D01*
X1301028Y648162D01*
X1301039Y648173D01*
X1301049Y648184D01*
X1301081Y648226D01*
X1301123Y648268D01*
X1301166Y648321D01*
X1301219Y648395D01*
X1301271Y648469D01*
X1301335Y648564D01*
X1301387Y648670D01*
X1301440Y648775D01*
X1301535Y649039D01*
X1301578Y649177D01*
X1301609Y649335D01*
X1301620Y649494D01*
X1301631Y649663D01*
Y649758D01*
X1301620Y649874D01*
X1301599Y650012D01*
X1301567Y650181D01*
X1301514Y650360D01*
X1301451Y650540D01*
X1301356Y650719D01*
X1301345Y650741D01*
X1301314Y650793D01*
X1301250Y650878D01*
X1301176Y650984D01*
X1301071Y651089D01*
X1300954Y651216D01*
X1300817Y651332D01*
X1300669Y651438D01*
X1300827Y652558D01*
X1305836Y651618D01*
Y646768D01*
X1304695D01*
Y650667D01*
X1302074Y651184D01*
X1302085Y651174D01*
X1302106Y651142D01*
X1302127Y651100D01*
X1302169Y651036D01*
X1302212Y650952D01*
X1302265Y650857D01*
X1302328Y650751D01*
X1302381Y650624D01*
X1302434Y650498D01*
X1302497Y650350D01*
X1302592Y650043D01*
X1302634Y649874D01*
X1302666Y649705D01*
X1302677Y649525D01*
X1302687Y649346D01*
Y649293D01*
X1302677Y649219D01*
Y649135D01*
X1302655Y649029D01*
X1302645Y648902D01*
X1302613Y648754D01*
X1302581Y648606D01*
X1302529Y648437D01*
X1302476Y648268D01*
X1302402Y648088D01*
X1302317Y647909D01*
X1302212Y647729D01*
X1302095Y647550D01*
X1301958Y647370D01*
X1301800Y647201D01*
X1301789Y647190D01*
X1301757Y647159D01*
X1301705Y647116D01*
X1301641Y647064D01*
X1301557Y646990D01*
X1301440Y646916D01*
X1301324Y646842D01*
X1301187Y646757D01*
X1301028Y646673D01*
X1300849Y646599D01*
X1300669Y646514D01*
X1300458Y646451D01*
X1300246Y646398D01*
X1300014Y646356D01*
X1299771Y646324D01*
X1299517Y646313D01*
X1299507D01*
X1299454D01*
X1299391D01*
X1299295Y646324D01*
X1299179Y646334D01*
X1299052Y646356D01*
X1298904Y646377D01*
X1298735Y646408D01*
X1298566Y646451D01*
X1298376Y646503D01*
X1298186Y646567D01*
X1297996Y646641D01*
X1297805Y646725D01*
X1297605Y646831D01*
X1297415Y646947D01*
X1297235Y647085D01*
X1297224Y647095D01*
X1297182Y647127D01*
X1297129Y647180D01*
X1297055Y647254D01*
X1296960Y647349D01*
X1296865Y647465D01*
X1296749Y647602D01*
X1296643Y647761D01*
X1296537Y647930D01*
X1296421Y648120D01*
X1296326Y648331D01*
X1296242Y648564D01*
X1296157Y648807D01*
X1296104Y649071D01*
X1296062Y649346D01*
X1296051Y649642D01*
Y649768D01*
X1296062Y649864D01*
X1296073Y649980D01*
X1296094Y650107D01*
X1296115Y650255D01*
X1296147Y650413D01*
X1296178Y650582D01*
X1296231Y650762D01*
X1296295Y650941D01*
X1296369Y651121D01*
X1296453Y651301D01*
X1296548Y651480D01*
X1296664Y651649D01*
X1296791Y651818D01*
X1296802Y651829D01*
X1296823Y651850D01*
X1296865Y651892D01*
X1296929Y651945D01*
X1297003Y652019D01*
X1297087Y652093D01*
X1297193Y652167D01*
X1297319Y652252D01*
X1297446Y652336D01*
X1297594Y652421D01*
X1297763Y652495D01*
X1297932Y652569D01*
X1298123Y652643D01*
X1298323Y652695D01*
X1298545Y652738D01*
X1298767Y652769D01*
X1298862Y651512D01*
D02*
G37*
G36*
X1095713Y579827D02*
X1095702Y579711D01*
Y579595D01*
X1095692Y579457D01*
X1095681Y579299D01*
X1095649Y578982D01*
X1095597Y578654D01*
X1095533Y578337D01*
X1095491Y578200D01*
X1095449Y578062D01*
Y578052D01*
X1095438Y578031D01*
X1095417Y577999D01*
X1095396Y577946D01*
X1095332Y577819D01*
X1095237Y577672D01*
X1095110Y577492D01*
X1094941Y577312D01*
X1094751Y577133D01*
X1094519Y576974D01*
X1094508D01*
X1094487Y576953D01*
X1094455Y576932D01*
X1094403Y576911D01*
X1094339Y576879D01*
X1094265Y576847D01*
X1094181Y576805D01*
X1094086Y576763D01*
X1093864Y576689D01*
X1093621Y576625D01*
X1093346Y576583D01*
X1093050Y576562D01*
X1093039D01*
X1093008D01*
X1092944D01*
X1092881Y576573D01*
X1092786Y576583D01*
X1092680Y576594D01*
X1092564Y576615D01*
X1092437Y576646D01*
X1092162Y576731D01*
X1092015Y576784D01*
X1091867Y576847D01*
X1091719Y576921D01*
X1091571Y577016D01*
X1091433Y577122D01*
X1091296Y577238D01*
X1091285Y577249D01*
X1091264Y577270D01*
X1091233Y577312D01*
X1091180Y577365D01*
X1091127Y577439D01*
X1091064Y577524D01*
X1090990Y577629D01*
X1090916Y577756D01*
X1090842Y577893D01*
X1090768Y578041D01*
X1090694Y578210D01*
X1090620Y578401D01*
X1090556Y578601D01*
X1090493Y578823D01*
X1090440Y579066D01*
X1090398Y579320D01*
Y579309D01*
X1090387Y579299D01*
X1090356Y579235D01*
X1090303Y579140D01*
X1090239Y579024D01*
X1090165Y578897D01*
X1090091Y578770D01*
X1089996Y578644D01*
X1089912Y578538D01*
X1089901Y578527D01*
X1089891Y578517D01*
X1089859Y578485D01*
X1089817Y578443D01*
X1089764Y578390D01*
X1089700Y578327D01*
X1089553Y578189D01*
X1089362Y578031D01*
X1089140Y577851D01*
X1088887Y577661D01*
X1088612Y577471D01*
X1085960Y575780D01*
Y577397D01*
X1087989Y578686D01*
X1087999Y578696D01*
X1088031Y578707D01*
X1088073Y578739D01*
X1088137Y578781D01*
X1088211Y578823D01*
X1088295Y578887D01*
X1088485Y579013D01*
X1088707Y579161D01*
X1088929Y579309D01*
X1089140Y579468D01*
X1089331Y579616D01*
X1089341D01*
X1089352Y579637D01*
X1089405Y579679D01*
X1089489Y579743D01*
X1089584Y579838D01*
X1089690Y579933D01*
X1089796Y580049D01*
X1089901Y580165D01*
X1089975Y580271D01*
X1089986Y580281D01*
X1090007Y580324D01*
X1090039Y580377D01*
X1090081Y580451D01*
X1090123Y580546D01*
X1090165Y580641D01*
X1090208Y580746D01*
X1090239Y580863D01*
Y580873D01*
X1090250Y580905D01*
X1090260Y580958D01*
X1090271Y581032D01*
Y581137D01*
X1090282Y581264D01*
X1090292Y581412D01*
Y583071D01*
X1085960D01*
Y584360D01*
X1095713D01*
Y579827D01*
D02*
G37*
G36*
X1090789Y575072D02*
X1090873D01*
X1090979Y575062D01*
X1091211Y575051D01*
X1091476Y575030D01*
X1091771Y574998D01*
X1092088Y574956D01*
X1092427Y574893D01*
X1092765Y574829D01*
X1093103Y574745D01*
X1093441Y574639D01*
X1093769Y574523D01*
X1094086Y574385D01*
X1094371Y574216D01*
X1094624Y574037D01*
X1094635Y574026D01*
X1094677Y573994D01*
X1094730Y573941D01*
X1094804Y573868D01*
X1094889Y573783D01*
X1094984Y573667D01*
X1095079Y573540D01*
X1095184Y573392D01*
X1095290Y573223D01*
X1095385Y573033D01*
X1095480Y572832D01*
X1095565Y572610D01*
X1095639Y572378D01*
X1095692Y572124D01*
X1095734Y571860D01*
X1095744Y571575D01*
Y571458D01*
X1095734Y571385D01*
X1095723Y571289D01*
X1095713Y571173D01*
X1095692Y571046D01*
X1095660Y570909D01*
X1095586Y570603D01*
X1095533Y570455D01*
X1095470Y570286D01*
X1095396Y570127D01*
X1095301Y569979D01*
X1095206Y569831D01*
X1095089Y569683D01*
X1095079Y569673D01*
X1095058Y569652D01*
X1095026Y569609D01*
X1094973Y569567D01*
X1094910Y569504D01*
X1094825Y569440D01*
X1094730Y569366D01*
X1094624Y569292D01*
X1094508Y569218D01*
X1094371Y569144D01*
X1094223Y569070D01*
X1094064Y568997D01*
X1093895Y568933D01*
X1093716Y568880D01*
X1093525Y568827D01*
X1093314Y568796D01*
X1093219Y569990D01*
X1093230D01*
X1093251Y570000D01*
X1093282Y570011D01*
X1093335Y570021D01*
X1093462Y570053D01*
X1093610Y570106D01*
X1093779Y570169D01*
X1093948Y570254D01*
X1094107Y570338D01*
X1094244Y570444D01*
X1094255Y570455D01*
X1094265Y570465D01*
X1094297Y570497D01*
X1094329Y570529D01*
X1094413Y570634D01*
X1094508Y570782D01*
X1094603Y570951D01*
X1094677Y571163D01*
X1094741Y571395D01*
X1094751Y571522D01*
X1094762Y571649D01*
Y571744D01*
X1094741Y571860D01*
X1094720Y571997D01*
X1094677Y572156D01*
X1094624Y572325D01*
X1094540Y572494D01*
X1094434Y572663D01*
Y572674D01*
X1094413Y572684D01*
X1094392Y572716D01*
X1094360Y572758D01*
X1094265Y572853D01*
X1094128Y572980D01*
X1093959Y573128D01*
X1093747Y573276D01*
X1093504Y573413D01*
X1093230Y573551D01*
X1093219D01*
X1093198Y573561D01*
X1093145Y573582D01*
X1093082Y573603D01*
X1093008Y573625D01*
X1092902Y573656D01*
X1092786Y573688D01*
X1092659Y573720D01*
X1092511Y573751D01*
X1092342Y573773D01*
X1092152Y573804D01*
X1091951Y573836D01*
X1091740Y573857D01*
X1091507Y573868D01*
X1091254Y573878D01*
X1091001Y573888D01*
X1091021Y573868D01*
X1091053Y573847D01*
X1091095Y573815D01*
X1091211Y573720D01*
X1091359Y573603D01*
X1091518Y573445D01*
X1091676Y573265D01*
X1091824Y573064D01*
X1091962Y572843D01*
Y572832D01*
X1091972Y572811D01*
X1091993Y572779D01*
X1092015Y572737D01*
X1092036Y572674D01*
X1092067Y572610D01*
X1092131Y572441D01*
X1092184Y572240D01*
X1092236Y572019D01*
X1092279Y571775D01*
X1092289Y571522D01*
Y571469D01*
X1092279Y571406D01*
Y571321D01*
X1092258Y571215D01*
X1092247Y571099D01*
X1092215Y570962D01*
X1092184Y570814D01*
X1092131Y570666D01*
X1092078Y570497D01*
X1092004Y570328D01*
X1091919Y570159D01*
X1091814Y569979D01*
X1091698Y569810D01*
X1091560Y569641D01*
X1091402Y569482D01*
X1091391Y569472D01*
X1091359Y569451D01*
X1091317Y569409D01*
X1091243Y569345D01*
X1091159Y569282D01*
X1091053Y569218D01*
X1090926Y569134D01*
X1090789Y569060D01*
X1090630Y568986D01*
X1090461Y568901D01*
X1090271Y568838D01*
X1090070Y568764D01*
X1089859Y568711D01*
X1089626Y568669D01*
X1089383Y568648D01*
X1089130Y568637D01*
X1089119D01*
X1089088D01*
X1089045D01*
X1088971Y568648D01*
X1088897D01*
X1088802Y568658D01*
X1088686Y568669D01*
X1088570Y568690D01*
X1088306Y568732D01*
X1088020Y568806D01*
X1087725Y568901D01*
X1087418Y569039D01*
X1087408D01*
X1087386Y569060D01*
X1087344Y569081D01*
X1087291Y569113D01*
X1087228Y569155D01*
X1087154Y569197D01*
X1086974Y569324D01*
X1086784Y569472D01*
X1086583Y569662D01*
X1086383Y569884D01*
X1086214Y570127D01*
Y570138D01*
X1086192Y570159D01*
X1086171Y570201D01*
X1086150Y570254D01*
X1086118Y570317D01*
X1086087Y570391D01*
X1086044Y570486D01*
X1086013Y570581D01*
X1085928Y570814D01*
X1085865Y571089D01*
X1085823Y571385D01*
X1085801Y571702D01*
Y571765D01*
X1085812Y571849D01*
X1085823Y571955D01*
X1085833Y572082D01*
X1085865Y572230D01*
X1085897Y572388D01*
X1085939Y572568D01*
X1086002Y572758D01*
X1086066Y572959D01*
X1086161Y573160D01*
X1086266Y573360D01*
X1086393Y573572D01*
X1086541Y573762D01*
X1086710Y573963D01*
X1086900Y574142D01*
X1086911Y574153D01*
X1086953Y574185D01*
X1087017Y574227D01*
X1087112Y574290D01*
X1087228Y574364D01*
X1087376Y574438D01*
X1087555Y574523D01*
X1087767Y574607D01*
X1087999Y574702D01*
X1088263Y574787D01*
X1088559Y574861D01*
X1088887Y574935D01*
X1089246Y574998D01*
X1089637Y575041D01*
X1090060Y575072D01*
X1090514Y575083D01*
X1090525D01*
X1090546D01*
X1090588D01*
X1090641D01*
X1090704D01*
X1090789Y575072D01*
D02*
G37*
G36*
X1231713Y576077D02*
X1231702Y575961D01*
Y575845D01*
X1231692Y575707D01*
X1231681Y575549D01*
X1231649Y575232D01*
X1231597Y574904D01*
X1231533Y574587D01*
X1231491Y574450D01*
X1231449Y574312D01*
Y574302D01*
X1231438Y574281D01*
X1231417Y574249D01*
X1231396Y574196D01*
X1231332Y574069D01*
X1231237Y573922D01*
X1231111Y573742D01*
X1230941Y573562D01*
X1230751Y573383D01*
X1230519Y573224D01*
X1230508D01*
X1230487Y573203D01*
X1230455Y573182D01*
X1230403Y573161D01*
X1230339Y573129D01*
X1230265Y573097D01*
X1230181Y573055D01*
X1230086Y573013D01*
X1229864Y572939D01*
X1229621Y572875D01*
X1229346Y572833D01*
X1229050Y572812D01*
X1229040D01*
X1229008D01*
X1228944D01*
X1228881Y572823D01*
X1228786Y572833D01*
X1228680Y572844D01*
X1228564Y572865D01*
X1228437Y572896D01*
X1228163Y572981D01*
X1228015Y573034D01*
X1227867Y573097D01*
X1227719Y573171D01*
X1227571Y573266D01*
X1227433Y573372D01*
X1227296Y573488D01*
X1227286Y573499D01*
X1227264Y573520D01*
X1227233Y573562D01*
X1227180Y573615D01*
X1227127Y573689D01*
X1227064Y573774D01*
X1226990Y573879D01*
X1226916Y574006D01*
X1226842Y574143D01*
X1226768Y574291D01*
X1226694Y574460D01*
X1226620Y574651D01*
X1226556Y574851D01*
X1226493Y575073D01*
X1226440Y575316D01*
X1226398Y575570D01*
Y575559D01*
X1226387Y575549D01*
X1226356Y575485D01*
X1226303Y575390D01*
X1226239Y575274D01*
X1226165Y575147D01*
X1226092Y575020D01*
X1225996Y574894D01*
X1225912Y574788D01*
X1225901Y574777D01*
X1225891Y574767D01*
X1225859Y574735D01*
X1225817Y574693D01*
X1225764Y574640D01*
X1225701Y574577D01*
X1225553Y574439D01*
X1225362Y574281D01*
X1225141Y574101D01*
X1224887Y573911D01*
X1224612Y573721D01*
X1221960Y572030D01*
Y573647D01*
X1223989Y574936D01*
X1223999Y574946D01*
X1224031Y574957D01*
X1224073Y574989D01*
X1224137Y575031D01*
X1224211Y575073D01*
X1224295Y575137D01*
X1224485Y575263D01*
X1224707Y575411D01*
X1224929Y575559D01*
X1225141Y575718D01*
X1225331Y575866D01*
X1225341D01*
X1225352Y575887D01*
X1225405Y575929D01*
X1225489Y575993D01*
X1225584Y576088D01*
X1225690Y576183D01*
X1225796Y576299D01*
X1225901Y576415D01*
X1225975Y576521D01*
X1225986Y576531D01*
X1226007Y576574D01*
X1226039Y576627D01*
X1226081Y576700D01*
X1226123Y576796D01*
X1226165Y576891D01*
X1226208Y576996D01*
X1226239Y577113D01*
Y577123D01*
X1226250Y577155D01*
X1226261Y577208D01*
X1226271Y577282D01*
Y577387D01*
X1226282Y577514D01*
X1226292Y577662D01*
Y579321D01*
X1221960D01*
Y580610D01*
X1231713D01*
Y576077D01*
D02*
G37*
G36*
X1231586Y564887D02*
X1230646D01*
X1230635Y564898D01*
X1230603Y564930D01*
X1230540Y564982D01*
X1230466Y565046D01*
X1230360Y565130D01*
X1230244Y565236D01*
X1230107Y565342D01*
X1229948Y565468D01*
X1229769Y565606D01*
X1229568Y565754D01*
X1229346Y565912D01*
X1229113Y566071D01*
X1228870Y566229D01*
X1228596Y566398D01*
X1228310Y566578D01*
X1228015Y566747D01*
X1227993Y566758D01*
X1227941Y566789D01*
X1227856Y566831D01*
X1227729Y566895D01*
X1227581Y566969D01*
X1227402Y567064D01*
X1227201Y567159D01*
X1226979Y567265D01*
X1226736Y567370D01*
X1226472Y567486D01*
X1226187Y567603D01*
X1225901Y567719D01*
X1225595Y567835D01*
X1225278Y567952D01*
X1224633Y568152D01*
X1224623D01*
X1224581Y568163D01*
X1224507Y568184D01*
X1224422Y568205D01*
X1224306Y568237D01*
X1224168Y568269D01*
X1224010Y568311D01*
X1223841Y568342D01*
X1223651Y568385D01*
X1223439Y568416D01*
X1223217Y568459D01*
X1222985Y568490D01*
X1222742Y568533D01*
X1222488Y568564D01*
X1221960Y568607D01*
Y569832D01*
X1221971D01*
X1222013D01*
X1222076D01*
X1222161Y569822D01*
X1222277Y569811D01*
X1222404Y569801D01*
X1222562Y569790D01*
X1222731Y569769D01*
X1222932Y569748D01*
X1223133Y569716D01*
X1223365Y569684D01*
X1223608Y569642D01*
X1223873Y569589D01*
X1224147Y569536D01*
X1224433Y569463D01*
X1224728Y569389D01*
X1224750Y569378D01*
X1224802Y569367D01*
X1224887Y569346D01*
X1225003Y569304D01*
X1225151Y569262D01*
X1225331Y569209D01*
X1225521Y569146D01*
X1225732Y569072D01*
X1225965Y568987D01*
X1226218Y568892D01*
X1226482Y568797D01*
X1226747Y568680D01*
X1227307Y568438D01*
X1227877Y568152D01*
X1227898Y568142D01*
X1227941Y568110D01*
X1228025Y568068D01*
X1228131Y568015D01*
X1228258Y567930D01*
X1228406Y567846D01*
X1228575Y567740D01*
X1228765Y567635D01*
X1228955Y567508D01*
X1229166Y567370D01*
X1229589Y567075D01*
X1230022Y566758D01*
X1230234Y566588D01*
X1230434Y566419D01*
Y571195D01*
X1231586D01*
Y564887D01*
D02*
G37*
G36*
X1266463Y575327D02*
X1266452Y575211D01*
Y575095D01*
X1266442Y574957D01*
X1266431Y574799D01*
X1266399Y574482D01*
X1266347Y574154D01*
X1266283Y573837D01*
X1266241Y573700D01*
X1266199Y573563D01*
Y573552D01*
X1266188Y573531D01*
X1266167Y573499D01*
X1266146Y573446D01*
X1266082Y573319D01*
X1265987Y573172D01*
X1265861Y572992D01*
X1265691Y572812D01*
X1265501Y572633D01*
X1265269Y572474D01*
X1265258D01*
X1265237Y572453D01*
X1265205Y572432D01*
X1265153Y572411D01*
X1265089Y572379D01*
X1265015Y572347D01*
X1264931Y572305D01*
X1264836Y572263D01*
X1264614Y572189D01*
X1264371Y572125D01*
X1264096Y572083D01*
X1263800Y572062D01*
X1263790D01*
X1263758D01*
X1263694D01*
X1263631Y572073D01*
X1263536Y572083D01*
X1263430Y572094D01*
X1263314Y572115D01*
X1263187Y572147D01*
X1262913Y572231D01*
X1262765Y572284D01*
X1262617Y572347D01*
X1262469Y572421D01*
X1262321Y572516D01*
X1262183Y572622D01*
X1262046Y572738D01*
X1262036Y572749D01*
X1262014Y572770D01*
X1261983Y572812D01*
X1261930Y572865D01*
X1261877Y572939D01*
X1261814Y573024D01*
X1261740Y573129D01*
X1261666Y573256D01*
X1261592Y573393D01*
X1261518Y573541D01*
X1261444Y573710D01*
X1261370Y573901D01*
X1261306Y574101D01*
X1261243Y574323D01*
X1261190Y574566D01*
X1261148Y574820D01*
Y574809D01*
X1261137Y574799D01*
X1261106Y574735D01*
X1261053Y574640D01*
X1260989Y574524D01*
X1260915Y574397D01*
X1260842Y574270D01*
X1260746Y574144D01*
X1260662Y574038D01*
X1260651Y574027D01*
X1260641Y574017D01*
X1260609Y573985D01*
X1260567Y573943D01*
X1260514Y573890D01*
X1260451Y573827D01*
X1260303Y573689D01*
X1260112Y573531D01*
X1259891Y573351D01*
X1259637Y573161D01*
X1259362Y572971D01*
X1256710Y571280D01*
Y572897D01*
X1258739Y574186D01*
X1258749Y574196D01*
X1258781Y574207D01*
X1258823Y574239D01*
X1258887Y574281D01*
X1258961Y574323D01*
X1259045Y574387D01*
X1259235Y574513D01*
X1259457Y574661D01*
X1259679Y574809D01*
X1259891Y574968D01*
X1260081Y575116D01*
X1260091D01*
X1260102Y575137D01*
X1260155Y575179D01*
X1260239Y575243D01*
X1260334Y575338D01*
X1260440Y575433D01*
X1260546Y575549D01*
X1260651Y575665D01*
X1260725Y575771D01*
X1260736Y575781D01*
X1260757Y575824D01*
X1260789Y575877D01*
X1260831Y575951D01*
X1260873Y576046D01*
X1260915Y576141D01*
X1260958Y576246D01*
X1260989Y576363D01*
Y576373D01*
X1261000Y576405D01*
X1261011Y576458D01*
X1261021Y576532D01*
Y576637D01*
X1261032Y576764D01*
X1261042Y576912D01*
Y578571D01*
X1256710D01*
Y579860D01*
X1266463D01*
Y575327D01*
D02*
G37*
G36*
X1259690Y570530D02*
X1259774D01*
X1259869Y570519D01*
X1259975Y570498D01*
X1260091Y570477D01*
X1260334Y570424D01*
X1260598Y570340D01*
X1260863Y570224D01*
X1260989Y570149D01*
X1261116Y570065D01*
X1261127Y570054D01*
X1261148Y570044D01*
X1261180Y570012D01*
X1261222Y569970D01*
X1261275Y569928D01*
X1261328Y569864D01*
X1261402Y569790D01*
X1261465Y569706D01*
X1261613Y569515D01*
X1261761Y569283D01*
X1261888Y569008D01*
X1261993Y568691D01*
Y568702D01*
X1262004Y568723D01*
X1262025Y568765D01*
X1262046Y568808D01*
X1262067Y568871D01*
X1262109Y568945D01*
X1262194Y569103D01*
X1262300Y569283D01*
X1262437Y569463D01*
X1262585Y569642D01*
X1262765Y569790D01*
X1262775D01*
X1262786Y569801D01*
X1262817Y569822D01*
X1262860Y569843D01*
X1262965Y569907D01*
X1263103Y569970D01*
X1263282Y570033D01*
X1263494Y570097D01*
X1263726Y570139D01*
X1263980Y570149D01*
X1263990D01*
X1264022D01*
X1264085Y570139D01*
X1264159D01*
X1264244Y570128D01*
X1264350Y570107D01*
X1264466Y570086D01*
X1264603Y570054D01*
X1264741Y570012D01*
X1264878Y569959D01*
X1265026Y569907D01*
X1265184Y569832D01*
X1265332Y569737D01*
X1265480Y569642D01*
X1265628Y569526D01*
X1265765Y569389D01*
X1265776Y569378D01*
X1265797Y569357D01*
X1265829Y569315D01*
X1265882Y569251D01*
X1265935Y569177D01*
X1265998Y569082D01*
X1266061Y568977D01*
X1266135Y568850D01*
X1266199Y568713D01*
X1266262Y568554D01*
X1266325Y568396D01*
X1266378Y568216D01*
X1266431Y568015D01*
X1266463Y567814D01*
X1266484Y567592D01*
X1266495Y567360D01*
Y567233D01*
X1266484Y567149D01*
X1266473Y567043D01*
X1266452Y566916D01*
X1266431Y566779D01*
X1266399Y566620D01*
X1266357Y566462D01*
X1266315Y566293D01*
X1266252Y566124D01*
X1266178Y565955D01*
X1266093Y565775D01*
X1265987Y565616D01*
X1265882Y565448D01*
X1265744Y565299D01*
X1265734Y565289D01*
X1265713Y565268D01*
X1265670Y565226D01*
X1265618Y565173D01*
X1265544Y565120D01*
X1265459Y565056D01*
X1265353Y564982D01*
X1265248Y564909D01*
X1265121Y564835D01*
X1264984Y564761D01*
X1264836Y564697D01*
X1264677Y564644D01*
X1264508Y564592D01*
X1264328Y564549D01*
X1264138Y564528D01*
X1263948Y564518D01*
X1263937D01*
X1263916D01*
X1263885D01*
X1263832D01*
X1263779Y564528D01*
X1263705Y564539D01*
X1263547Y564560D01*
X1263367Y564602D01*
X1263166Y564665D01*
X1262965Y564761D01*
X1262765Y564877D01*
X1262754D01*
X1262743Y564898D01*
X1262680Y564940D01*
X1262596Y565025D01*
X1262479Y565141D01*
X1262363Y565299D01*
X1262226Y565479D01*
X1262109Y565701D01*
X1261993Y565955D01*
Y565944D01*
X1261983Y565912D01*
X1261962Y565870D01*
X1261940Y565807D01*
X1261909Y565733D01*
X1261866Y565648D01*
X1261761Y565448D01*
X1261634Y565226D01*
X1261465Y565004D01*
X1261275Y564782D01*
X1261042Y564592D01*
X1261032Y564581D01*
X1261011Y564570D01*
X1260979Y564549D01*
X1260926Y564518D01*
X1260863Y564486D01*
X1260789Y564444D01*
X1260704Y564401D01*
X1260609Y564349D01*
X1260387Y564264D01*
X1260123Y564190D01*
X1259827Y564137D01*
X1259669Y564116D01*
X1259500D01*
X1259489D01*
X1259447D01*
X1259383Y564127D01*
X1259288D01*
X1259183Y564148D01*
X1259056Y564158D01*
X1258918Y564190D01*
X1258771Y564222D01*
X1258601Y564275D01*
X1258432Y564327D01*
X1258263Y564401D01*
X1258084Y564486D01*
X1257904Y564592D01*
X1257735Y564708D01*
X1257555Y564845D01*
X1257397Y565004D01*
X1257386Y565014D01*
X1257365Y565046D01*
X1257323Y565099D01*
X1257270Y565162D01*
X1257196Y565257D01*
X1257133Y565363D01*
X1257048Y565490D01*
X1256974Y565627D01*
X1256900Y565786D01*
X1256816Y565965D01*
X1256752Y566155D01*
X1256689Y566356D01*
X1256626Y566578D01*
X1256583Y566810D01*
X1256562Y567064D01*
X1256552Y567328D01*
Y567392D01*
X1256562Y567466D01*
Y567571D01*
X1256573Y567687D01*
X1256594Y567836D01*
X1256626Y567994D01*
X1256657Y568163D01*
X1256699Y568343D01*
X1256763Y568533D01*
X1256826Y568723D01*
X1256911Y568924D01*
X1257006Y569114D01*
X1257122Y569304D01*
X1257249Y569494D01*
X1257397Y569664D01*
X1257407Y569674D01*
X1257439Y569706D01*
X1257481Y569748D01*
X1257555Y569801D01*
X1257640Y569864D01*
X1257735Y569938D01*
X1257851Y570023D01*
X1257989Y570097D01*
X1258137Y570181D01*
X1258295Y570266D01*
X1258475Y570340D01*
X1258654Y570403D01*
X1258855Y570456D01*
X1259077Y570498D01*
X1259299Y570530D01*
X1259531Y570541D01*
X1259542D01*
X1259574D01*
X1259626D01*
X1259690Y570530D01*
D02*
G37*
G36*
X1542750Y946263D02*
X1542729D01*
X1542676D01*
X1542592D01*
X1542486Y946273D01*
X1542359Y946284D01*
X1542222Y946315D01*
X1542074Y946347D01*
X1541926Y946400D01*
X1541915D01*
X1541894Y946411D01*
X1541862Y946421D01*
X1541810Y946442D01*
X1541757Y946474D01*
X1541683Y946506D01*
X1541514Y946590D01*
X1541313Y946696D01*
X1541091Y946833D01*
X1540859Y946992D01*
X1540626Y947182D01*
X1540616Y947192D01*
X1540594Y947203D01*
X1540563Y947235D01*
X1540510Y947288D01*
X1540457Y947340D01*
X1540383Y947414D01*
X1540299Y947488D01*
X1540204Y947583D01*
X1540098Y947689D01*
X1539992Y947805D01*
X1539865Y947932D01*
X1539739Y948080D01*
X1539601Y948228D01*
X1539464Y948397D01*
X1539316Y948566D01*
X1539157Y948756D01*
X1539147Y948777D01*
X1539094Y948830D01*
X1539031Y948904D01*
X1538936Y949010D01*
X1538830Y949137D01*
X1538703Y949285D01*
X1538566Y949454D01*
X1538407Y949623D01*
X1538080Y949982D01*
X1537731Y950331D01*
X1537562Y950500D01*
X1537393Y950658D01*
X1537234Y950796D01*
X1537086Y950912D01*
X1537076Y950922D01*
X1537055Y950933D01*
X1537012Y950965D01*
X1536960Y950996D01*
X1536886Y951049D01*
X1536812Y951091D01*
X1536622Y951197D01*
X1536400Y951303D01*
X1536157Y951398D01*
X1535903Y951461D01*
X1535776Y951472D01*
X1535649Y951482D01*
X1535639D01*
X1535618D01*
X1535575D01*
X1535533Y951472D01*
X1535470D01*
X1535396Y951451D01*
X1535237Y951419D01*
X1535047Y951356D01*
X1534846Y951261D01*
X1534741Y951208D01*
X1534646Y951134D01*
X1534550Y951060D01*
X1534455Y950965D01*
X1534445Y950954D01*
X1534434Y950944D01*
X1534413Y950912D01*
X1534381Y950870D01*
X1534339Y950817D01*
X1534297Y950753D01*
X1534202Y950605D01*
X1534117Y950405D01*
X1534033Y950183D01*
X1533980Y949919D01*
X1533959Y949771D01*
Y949538D01*
X1533969Y949475D01*
Y949401D01*
X1533990Y949316D01*
X1534022Y949126D01*
X1534086Y948904D01*
X1534181Y948672D01*
X1534244Y948556D01*
X1534307Y948439D01*
X1534392Y948334D01*
X1534487Y948228D01*
X1534498Y948217D01*
X1534508Y948207D01*
X1534540Y948186D01*
X1534582Y948143D01*
X1534635Y948112D01*
X1534698Y948070D01*
X1534772Y948017D01*
X1534857Y947974D01*
X1534952Y947922D01*
X1535058Y947879D01*
X1535311Y947795D01*
X1535586Y947731D01*
X1535744Y947721D01*
X1535914Y947710D01*
X1535787Y946485D01*
X1535766D01*
X1535723Y946495D01*
X1535660Y946506D01*
X1535565Y946516D01*
X1535449Y946537D01*
X1535311Y946569D01*
X1535163Y946601D01*
X1535005Y946654D01*
X1534846Y946706D01*
X1534667Y946770D01*
X1534498Y946854D01*
X1534329Y946939D01*
X1534149Y947045D01*
X1533990Y947161D01*
X1533832Y947288D01*
X1533695Y947436D01*
X1533684Y947446D01*
X1533663Y947478D01*
X1533631Y947520D01*
X1533578Y947583D01*
X1533526Y947668D01*
X1533462Y947774D01*
X1533399Y947890D01*
X1533325Y948027D01*
X1533261Y948175D01*
X1533198Y948344D01*
X1533135Y948524D01*
X1533082Y948725D01*
X1533029Y948936D01*
X1532997Y949158D01*
X1532976Y949401D01*
X1532966Y949654D01*
Y949792D01*
X1532976Y949887D01*
X1532987Y950003D01*
X1533008Y950141D01*
X1533029Y950299D01*
X1533061Y950458D01*
X1533103Y950637D01*
X1533156Y950817D01*
X1533219Y951007D01*
X1533293Y951187D01*
X1533388Y951377D01*
X1533494Y951556D01*
X1533610Y951725D01*
X1533747Y951884D01*
X1533758Y951895D01*
X1533779Y951916D01*
X1533832Y951958D01*
X1533885Y952011D01*
X1533959Y952074D01*
X1534054Y952148D01*
X1534160Y952222D01*
X1534286Y952296D01*
X1534413Y952370D01*
X1534561Y952444D01*
X1534720Y952518D01*
X1534889Y952581D01*
X1535079Y952634D01*
X1535269Y952676D01*
X1535470Y952698D01*
X1535681Y952708D01*
X1535692D01*
X1535702D01*
X1535734D01*
X1535776D01*
X1535892Y952698D01*
X1536040Y952676D01*
X1536220Y952645D01*
X1536410Y952602D01*
X1536622Y952550D01*
X1536833Y952465D01*
X1536843D01*
X1536854Y952455D01*
X1536886Y952444D01*
X1536928Y952423D01*
X1537044Y952359D01*
X1537192Y952275D01*
X1537372Y952159D01*
X1537572Y952021D01*
X1537784Y951863D01*
X1538016Y951662D01*
X1538027Y951652D01*
X1538048Y951641D01*
X1538080Y951599D01*
X1538132Y951556D01*
X1538196Y951493D01*
X1538270Y951419D01*
X1538365Y951335D01*
X1538460Y951229D01*
X1538576Y951102D01*
X1538703Y950965D01*
X1538851Y950817D01*
X1538999Y950648D01*
X1539168Y950468D01*
X1539337Y950267D01*
X1539527Y950045D01*
X1539728Y949813D01*
X1539739Y949802D01*
X1539770Y949771D01*
X1539812Y949707D01*
X1539876Y949644D01*
X1539950Y949549D01*
X1540034Y949454D01*
X1540225Y949232D01*
X1540425Y948999D01*
X1540637Y948777D01*
X1540732Y948672D01*
X1540816Y948577D01*
X1540901Y948492D01*
X1540964Y948429D01*
X1540975Y948418D01*
X1541017Y948376D01*
X1541080Y948323D01*
X1541165Y948249D01*
X1541260Y948165D01*
X1541366Y948080D01*
X1541598Y947911D01*
Y952719D01*
X1542750D01*
Y946263D01*
D02*
G37*
G36*
X1538111Y945121D02*
X1538228D01*
X1538354Y945111D01*
X1538492Y945100D01*
X1538798Y945069D01*
X1539126Y945016D01*
X1539464Y944952D01*
X1539802Y944868D01*
X1539812D01*
X1539844Y944857D01*
X1539886Y944836D01*
X1539939Y944826D01*
X1540013Y944794D01*
X1540098Y944762D01*
X1540299Y944688D01*
X1540520Y944593D01*
X1540764Y944477D01*
X1540996Y944350D01*
X1541218Y944202D01*
X1541228D01*
X1541239Y944181D01*
X1541271Y944160D01*
X1541313Y944128D01*
X1541408Y944054D01*
X1541535Y943938D01*
X1541683Y943811D01*
X1541831Y943663D01*
X1541968Y943494D01*
X1542106Y943315D01*
Y943304D01*
X1542116Y943293D01*
X1542158Y943230D01*
X1542211Y943124D01*
X1542285Y942987D01*
X1542359Y942818D01*
X1542444Y942617D01*
X1542518Y942385D01*
X1542592Y942142D01*
Y942131D01*
X1542602Y942110D01*
Y942078D01*
X1542613Y942026D01*
X1542623Y941962D01*
X1542644Y941878D01*
X1542655Y941793D01*
X1542666Y941698D01*
X1542697Y941466D01*
X1542729Y941201D01*
X1542739Y940905D01*
X1542750Y940588D01*
Y937070D01*
X1532997D01*
Y940705D01*
X1533008Y940810D01*
Y940937D01*
X1533018Y941064D01*
X1533029Y941349D01*
X1533061Y941635D01*
X1533092Y941920D01*
X1533124Y942047D01*
X1533145Y942163D01*
Y942173D01*
X1533156Y942205D01*
X1533166Y942247D01*
X1533187Y942300D01*
X1533208Y942374D01*
X1533230Y942459D01*
X1533304Y942660D01*
X1533399Y942881D01*
X1533515Y943114D01*
X1533663Y943357D01*
X1533842Y943589D01*
X1533853Y943600D01*
X1533874Y943621D01*
X1533906Y943663D01*
X1533959Y943716D01*
X1534022Y943780D01*
X1534107Y943854D01*
X1534191Y943938D01*
X1534297Y944023D01*
X1534413Y944118D01*
X1534540Y944213D01*
X1534677Y944308D01*
X1534825Y944403D01*
X1535153Y944583D01*
X1535512Y944741D01*
X1535523D01*
X1535554Y944762D01*
X1535618Y944773D01*
X1535692Y944804D01*
X1535787Y944836D01*
X1535903Y944868D01*
X1536030Y944900D01*
X1536178Y944942D01*
X1536347Y944974D01*
X1536526Y945005D01*
X1536717Y945037D01*
X1536917Y945069D01*
X1537129Y945100D01*
X1537351Y945111D01*
X1537826Y945132D01*
X1537837D01*
X1537879D01*
X1537932D01*
X1538016D01*
X1538111Y945121D01*
D02*
G37*
G36*
X1542750Y932104D02*
Y930772D01*
X1532997Y926990D01*
Y928395D01*
X1540087Y930931D01*
X1540098D01*
X1540130Y930941D01*
X1540172Y930963D01*
X1540235Y930984D01*
X1540309Y931005D01*
X1540394Y931036D01*
X1540489Y931068D01*
X1540605Y931110D01*
X1540848Y931184D01*
X1541112Y931269D01*
X1541398Y931353D01*
X1541683Y931438D01*
X1541672D01*
X1541651Y931449D01*
X1541598Y931459D01*
X1541545Y931480D01*
X1541472Y931501D01*
X1541387Y931523D01*
X1541292Y931554D01*
X1541186Y931586D01*
X1540943Y931660D01*
X1540668Y931755D01*
X1540383Y931861D01*
X1540087Y931966D01*
X1532997Y934597D01*
Y935908D01*
X1542750Y932104D01*
D02*
G37*
G36*
X1615179Y822663D02*
X1621351Y827031D01*
Y825021D01*
X1618064Y822677D01*
X1618050Y822663D01*
X1618022Y822649D01*
X1617967Y822607D01*
X1617897Y822552D01*
X1617814Y822496D01*
X1617717Y822427D01*
X1617495Y822275D01*
X1617232Y822108D01*
X1616982Y821942D01*
X1616718Y821775D01*
X1616497Y821650D01*
X1616510D01*
X1616524Y821637D01*
X1616566Y821609D01*
X1616621Y821567D01*
X1616746Y821484D01*
X1616927Y821359D01*
X1617148Y821207D01*
X1617398Y821040D01*
X1617661Y820832D01*
X1617939Y820624D01*
X1621351Y818072D01*
Y816228D01*
X1615262Y820680D01*
X1608550Y815881D01*
Y817948D01*
X1613113Y821193D01*
X1613127Y821207D01*
X1613182Y821234D01*
X1613251Y821290D01*
X1613362Y821359D01*
X1613473Y821442D01*
X1613598Y821526D01*
X1613889Y821720D01*
X1613875D01*
X1613862Y821734D01*
X1613778Y821789D01*
X1613667Y821859D01*
X1613529Y821956D01*
X1613237Y822164D01*
X1613099Y822247D01*
X1612988Y822330D01*
X1608550Y825575D01*
Y827614D01*
X1615179Y822663D01*
D02*
G37*
G36*
X1621351Y809113D02*
X1621337Y808836D01*
X1621323Y808517D01*
X1621295Y808198D01*
X1621267Y807893D01*
X1621254Y807740D01*
X1621226Y807616D01*
Y807602D01*
X1621212Y807574D01*
Y807519D01*
X1621198Y807463D01*
X1621170Y807380D01*
X1621156Y807283D01*
X1621087Y807061D01*
X1621004Y806811D01*
X1620893Y806548D01*
X1620768Y806284D01*
X1620616Y806035D01*
Y806021D01*
X1620602Y806007D01*
X1620532Y805924D01*
X1620435Y805813D01*
X1620296Y805660D01*
X1620130Y805508D01*
X1619908Y805327D01*
X1619673Y805161D01*
X1619381Y805008D01*
X1619367D01*
X1619340Y804995D01*
X1619298Y804967D01*
X1619243Y804939D01*
X1619173Y804911D01*
X1619076Y804884D01*
X1618868Y804800D01*
X1618605Y804731D01*
X1618313Y804662D01*
X1617980Y804620D01*
X1617634Y804606D01*
X1617620D01*
X1617565D01*
X1617481D01*
X1617356Y804620D01*
X1617218Y804634D01*
X1617065Y804662D01*
X1616885Y804689D01*
X1616677Y804731D01*
X1616469Y804787D01*
X1616247Y804856D01*
X1616025Y804939D01*
X1615789Y805050D01*
X1615553Y805161D01*
X1615318Y805300D01*
X1615096Y805466D01*
X1614874Y805646D01*
X1614860Y805660D01*
X1614832Y805702D01*
X1614777Y805757D01*
X1614694Y805854D01*
X1614610Y805965D01*
X1614513Y806118D01*
X1614416Y806298D01*
X1614319Y806506D01*
X1614208Y806756D01*
X1614111Y807019D01*
X1614014Y807338D01*
X1613931Y807671D01*
X1613862Y808059D01*
X1613806Y808475D01*
X1613764Y808919D01*
X1613751Y809418D01*
Y812691D01*
X1608550D01*
Y814383D01*
X1621351D01*
Y809113D01*
D02*
G37*
G36*
X1618188Y801874D02*
X1618202Y801833D01*
X1618244Y801763D01*
X1618286Y801666D01*
X1618341Y801555D01*
X1618424Y801416D01*
X1618508Y801264D01*
X1618591Y801111D01*
X1618813Y800751D01*
X1619076Y800362D01*
X1619353Y799960D01*
X1619673Y799586D01*
X1619686Y799572D01*
X1619714Y799544D01*
X1619756Y799489D01*
X1619825Y799419D01*
X1619908Y799350D01*
X1619991Y799253D01*
X1620227Y799045D01*
X1620477Y798809D01*
X1620768Y798574D01*
X1621073Y798365D01*
X1621392Y798185D01*
Y797173D01*
X1608550D01*
Y798740D01*
X1618549D01*
X1618521Y798768D01*
X1618452Y798837D01*
X1618355Y798962D01*
X1618216Y799142D01*
X1618050Y799350D01*
X1617870Y799614D01*
X1617675Y799905D01*
X1617467Y800238D01*
Y800251D01*
X1617440Y800279D01*
X1617412Y800321D01*
X1617384Y800390D01*
X1617329Y800473D01*
X1617287Y800571D01*
X1617162Y800792D01*
X1617038Y801042D01*
X1616899Y801319D01*
X1616774Y801611D01*
X1616663Y801888D01*
X1618175D01*
X1618188Y801874D01*
D02*
G37*
G36*
X1482849Y539908D02*
X1482934D01*
X1483050Y539898D01*
X1483177Y539877D01*
X1483314Y539856D01*
X1483473Y539824D01*
X1483642Y539782D01*
X1483811Y539729D01*
X1483990Y539676D01*
X1484170Y539602D01*
X1484350Y539507D01*
X1484519Y539412D01*
X1484698Y539296D01*
X1484857Y539158D01*
X1484867Y539148D01*
X1484888Y539127D01*
X1484931Y539084D01*
X1484994Y539021D01*
X1485058Y538947D01*
X1485132Y538852D01*
X1485206Y538746D01*
X1485290Y538619D01*
X1485375Y538493D01*
X1485459Y538334D01*
X1485544Y538176D01*
X1485618Y537996D01*
X1485681Y537806D01*
X1485744Y537605D01*
X1485787Y537394D01*
X1485818Y537172D01*
X1484624Y537013D01*
Y537024D01*
X1484614Y537056D01*
X1484603Y537108D01*
X1484582Y537182D01*
X1484561Y537267D01*
X1484540Y537362D01*
X1484466Y537584D01*
X1484371Y537827D01*
X1484254Y538070D01*
X1484107Y538292D01*
X1484022Y538387D01*
X1483938Y538482D01*
X1483927D01*
X1483916Y538503D01*
X1483885Y538524D01*
X1483853Y538556D01*
X1483747Y538619D01*
X1483599Y538704D01*
X1483420Y538788D01*
X1483219Y538852D01*
X1482976Y538905D01*
X1482722Y538926D01*
X1482638D01*
X1482574Y538915D01*
X1482511Y538905D01*
X1482416Y538894D01*
X1482226Y538852D01*
X1481993Y538788D01*
X1481750Y538683D01*
X1481634Y538609D01*
X1481518Y538535D01*
X1481402Y538450D01*
X1481285Y538345D01*
X1481275Y538334D01*
X1481264Y538313D01*
X1481232Y538281D01*
X1481190Y538239D01*
X1481148Y538186D01*
X1481106Y538112D01*
X1481053Y538038D01*
X1480990Y537943D01*
X1480884Y537732D01*
X1480799Y537489D01*
X1480725Y537203D01*
X1480715Y537056D01*
X1480704Y536897D01*
Y536886D01*
Y536865D01*
Y536813D01*
X1480715Y536760D01*
X1480725Y536686D01*
X1480736Y536612D01*
X1480768Y536422D01*
X1480842Y536200D01*
X1480937Y535978D01*
X1481000Y535862D01*
X1481074Y535756D01*
X1481159Y535650D01*
X1481254Y535545D01*
X1481264Y535534D01*
X1481275Y535523D01*
X1481306Y535492D01*
X1481349Y535460D01*
X1481402Y535418D01*
X1481465Y535376D01*
X1481624Y535270D01*
X1481824Y535175D01*
X1482057Y535090D01*
X1482321Y535027D01*
X1482469Y535016D01*
X1482617Y535006D01*
X1482680D01*
X1482754Y535016D01*
X1482849D01*
X1482976Y535037D01*
X1483113Y535059D01*
X1483282Y535090D01*
X1483462Y535132D01*
X1483335Y534086D01*
X1483314D01*
X1483261Y534097D01*
X1483198Y534108D01*
X1483060D01*
X1483008Y534097D01*
X1482934D01*
X1482860Y534086D01*
X1482680Y534055D01*
X1482469Y534012D01*
X1482236Y533938D01*
X1481993Y533843D01*
X1481761Y533706D01*
X1481750D01*
X1481729Y533685D01*
X1481708Y533664D01*
X1481666Y533632D01*
X1481560Y533537D01*
X1481444Y533400D01*
X1481338Y533231D01*
X1481232Y533019D01*
X1481190Y532903D01*
X1481169Y532766D01*
X1481148Y532628D01*
X1481137Y532480D01*
Y532470D01*
Y532449D01*
Y532417D01*
X1481148Y532364D01*
X1481159Y532248D01*
X1481190Y532089D01*
X1481243Y531920D01*
X1481328Y531741D01*
X1481444Y531550D01*
X1481507Y531466D01*
X1481592Y531381D01*
X1481613Y531360D01*
X1481676Y531318D01*
X1481771Y531244D01*
X1481898Y531160D01*
X1482067Y531086D01*
X1482268Y531012D01*
X1482490Y530969D01*
X1482744Y530948D01*
X1482807D01*
X1482860Y530959D01*
X1482923D01*
X1482987Y530969D01*
X1483156Y531001D01*
X1483335Y531054D01*
X1483536Y531138D01*
X1483726Y531244D01*
X1483916Y531392D01*
X1483938Y531413D01*
X1483990Y531477D01*
X1484075Y531572D01*
X1484159Y531720D01*
X1484265Y531899D01*
X1484360Y532132D01*
X1484445Y532396D01*
X1484508Y532702D01*
X1485702Y532491D01*
Y532480D01*
X1485692Y532438D01*
X1485681Y532375D01*
X1485660Y532290D01*
X1485628Y532195D01*
X1485596Y532079D01*
X1485554Y531952D01*
X1485501Y531815D01*
X1485364Y531508D01*
X1485290Y531360D01*
X1485195Y531202D01*
X1485089Y531054D01*
X1484973Y530906D01*
X1484846Y530758D01*
X1484709Y530631D01*
X1484698Y530621D01*
X1484677Y530600D01*
X1484624Y530568D01*
X1484572Y530526D01*
X1484487Y530473D01*
X1484402Y530420D01*
X1484297Y530356D01*
X1484170Y530293D01*
X1484043Y530240D01*
X1483895Y530177D01*
X1483737Y530124D01*
X1483568Y530071D01*
X1483378Y530029D01*
X1483187Y529997D01*
X1482987Y529976D01*
X1482775Y529966D01*
X1482638D01*
X1482564Y529976D01*
X1482490Y529987D01*
X1482289Y530008D01*
X1482067Y530050D01*
X1481814Y530113D01*
X1481560Y530198D01*
X1481306Y530314D01*
X1481296D01*
X1481275Y530325D01*
X1481243Y530346D01*
X1481190Y530378D01*
X1481074Y530452D01*
X1480926Y530557D01*
X1480757Y530695D01*
X1480588Y530853D01*
X1480419Y531033D01*
X1480271Y531244D01*
Y531255D01*
X1480260Y531265D01*
X1480239Y531307D01*
X1480218Y531350D01*
X1480186Y531403D01*
X1480155Y531466D01*
X1480091Y531624D01*
X1480028Y531815D01*
X1479965Y532026D01*
X1479922Y532258D01*
X1479912Y532501D01*
Y532512D01*
Y532533D01*
Y532565D01*
Y532607D01*
X1479933Y532734D01*
X1479954Y532882D01*
X1479996Y533061D01*
X1480060Y533252D01*
X1480144Y533452D01*
X1480260Y533653D01*
Y533664D01*
X1480271Y533674D01*
X1480324Y533738D01*
X1480398Y533833D01*
X1480514Y533949D01*
X1480651Y534086D01*
X1480831Y534224D01*
X1481032Y534351D01*
X1481264Y534477D01*
X1481254D01*
X1481222Y534488D01*
X1481180Y534498D01*
X1481116Y534520D01*
X1481053Y534541D01*
X1480968Y534572D01*
X1480768Y534657D01*
X1480556Y534773D01*
X1480334Y534911D01*
X1480112Y535090D01*
X1479922Y535312D01*
X1479912Y535323D01*
X1479901Y535344D01*
X1479880Y535376D01*
X1479848Y535428D01*
X1479806Y535481D01*
X1479764Y535555D01*
X1479722Y535640D01*
X1479679Y535745D01*
X1479637Y535851D01*
X1479595Y535967D01*
X1479510Y536231D01*
X1479457Y536538D01*
X1479436Y536707D01*
Y536876D01*
Y536886D01*
Y536929D01*
X1479447Y537003D01*
Y537087D01*
X1479468Y537203D01*
X1479489Y537330D01*
X1479510Y537468D01*
X1479552Y537626D01*
X1479605Y537795D01*
X1479669Y537964D01*
X1479743Y538144D01*
X1479838Y538324D01*
X1479943Y538514D01*
X1480070Y538693D01*
X1480208Y538873D01*
X1480377Y539042D01*
X1480387Y539053D01*
X1480419Y539084D01*
X1480472Y539127D01*
X1480546Y539179D01*
X1480630Y539243D01*
X1480746Y539317D01*
X1480873Y539401D01*
X1481021Y539475D01*
X1481180Y539560D01*
X1481359Y539644D01*
X1481550Y539718D01*
X1481761Y539782D01*
X1481983Y539835D01*
X1482215Y539877D01*
X1482458Y539908D01*
X1482722Y539919D01*
X1482775D01*
X1482849Y539908D01*
D02*
G37*
G36*
X1505260Y529997D02*
X1503855D01*
X1501319Y537087D01*
Y537098D01*
X1501309Y537130D01*
X1501288Y537172D01*
X1501266Y537235D01*
X1501245Y537309D01*
X1501214Y537394D01*
X1501182Y537489D01*
X1501140Y537605D01*
X1501066Y537848D01*
X1500981Y538112D01*
X1500897Y538397D01*
X1500812Y538683D01*
Y538672D01*
X1500802Y538651D01*
X1500791Y538598D01*
X1500770Y538545D01*
X1500749Y538471D01*
X1500728Y538387D01*
X1500696Y538292D01*
X1500664Y538186D01*
X1500590Y537943D01*
X1500495Y537668D01*
X1500389Y537383D01*
X1500284Y537087D01*
X1497653Y529997D01*
X1496342D01*
X1500146Y539750D01*
X1501478D01*
X1505260Y529997D01*
D02*
G37*
G36*
X1495180D02*
X1491545D01*
X1491440Y530008D01*
X1491313D01*
X1491186Y530018D01*
X1490901Y530029D01*
X1490616Y530061D01*
X1490330Y530092D01*
X1490203Y530124D01*
X1490087Y530145D01*
X1490077D01*
X1490045Y530156D01*
X1490003Y530166D01*
X1489950Y530187D01*
X1489876Y530209D01*
X1489791Y530230D01*
X1489591Y530304D01*
X1489369Y530399D01*
X1489136Y530515D01*
X1488893Y530663D01*
X1488661Y530843D01*
X1488650Y530853D01*
X1488629Y530874D01*
X1488587Y530906D01*
X1488534Y530959D01*
X1488470Y531022D01*
X1488397Y531107D01*
X1488312Y531191D01*
X1488228Y531297D01*
X1488132Y531413D01*
X1488037Y531540D01*
X1487942Y531677D01*
X1487847Y531825D01*
X1487668Y532153D01*
X1487509Y532512D01*
Y532523D01*
X1487488Y532554D01*
X1487477Y532618D01*
X1487446Y532692D01*
X1487414Y532787D01*
X1487382Y532903D01*
X1487350Y533030D01*
X1487308Y533178D01*
X1487276Y533347D01*
X1487245Y533526D01*
X1487213Y533717D01*
X1487181Y533917D01*
X1487150Y534129D01*
X1487139Y534351D01*
X1487118Y534826D01*
Y534837D01*
Y534879D01*
Y534932D01*
Y535016D01*
X1487129Y535111D01*
Y535228D01*
X1487139Y535354D01*
X1487150Y535492D01*
X1487181Y535798D01*
X1487234Y536126D01*
X1487298Y536464D01*
X1487382Y536802D01*
Y536813D01*
X1487393Y536844D01*
X1487414Y536886D01*
X1487424Y536939D01*
X1487456Y537013D01*
X1487488Y537098D01*
X1487562Y537299D01*
X1487657Y537520D01*
X1487773Y537763D01*
X1487900Y537996D01*
X1488048Y538218D01*
Y538228D01*
X1488069Y538239D01*
X1488090Y538271D01*
X1488122Y538313D01*
X1488196Y538408D01*
X1488312Y538535D01*
X1488439Y538683D01*
X1488587Y538831D01*
X1488756Y538968D01*
X1488936Y539105D01*
X1488946D01*
X1488957Y539116D01*
X1489020Y539158D01*
X1489126Y539211D01*
X1489263Y539285D01*
X1489432Y539359D01*
X1489633Y539444D01*
X1489865Y539518D01*
X1490108Y539591D01*
X1490119D01*
X1490140Y539602D01*
X1490172D01*
X1490225Y539613D01*
X1490288Y539623D01*
X1490372Y539644D01*
X1490457Y539655D01*
X1490552Y539665D01*
X1490785Y539697D01*
X1491049Y539729D01*
X1491345Y539739D01*
X1491662Y539750D01*
X1495180D01*
Y529997D01*
D02*
G37*
%LPC*%
G36*
X424658Y754546D02*
X424644D01*
X424616D01*
X424575D01*
X424519D01*
X424367Y754519D01*
X424186Y754491D01*
X423964Y754449D01*
X423742Y754366D01*
X423507Y754269D01*
X423285Y754130D01*
X423257Y754116D01*
X423188Y754061D01*
X423091Y753964D01*
X422980Y753853D01*
X422855Y753687D01*
X422730Y753506D01*
X422619Y753298D01*
X422536Y753063D01*
Y753049D01*
X422522Y752979D01*
X422494Y752868D01*
X422467Y752702D01*
Y752605D01*
X422453Y752494D01*
X422439Y752355D01*
X422425Y752216D01*
Y752050D01*
X422411Y751884D01*
Y748208D01*
X426988D01*
Y751662D01*
X426974Y751773D01*
Y751911D01*
X426960Y752064D01*
X426932Y752244D01*
X426904Y752424D01*
X426835Y752813D01*
X426724Y753201D01*
X426655Y753381D01*
X426572Y753548D01*
X426488Y753714D01*
X426377Y753853D01*
X426364Y753867D01*
X426350Y753881D01*
X426308Y753922D01*
X426267Y753964D01*
X426128Y754075D01*
X425934Y754200D01*
X425684Y754324D01*
X425393Y754435D01*
X425046Y754519D01*
X424866Y754532D01*
X424658Y754546D01*
D02*
G37*
G36*
X758356Y957892D02*
X753960D01*
X758356Y954818D01*
Y957892D01*
D02*
G37*
G36*
X754700Y943607D02*
X754689D01*
X754668D01*
X754637D01*
X754584Y943596D01*
X754531D01*
X754457Y943586D01*
X754298Y943543D01*
X754119Y943480D01*
X753929Y943395D01*
X753749Y943269D01*
X753654Y943184D01*
X753569Y943099D01*
X753559Y943089D01*
X753548Y943078D01*
X753527Y943047D01*
X753495Y943004D01*
X753464Y942952D01*
X753421Y942878D01*
X753379Y942804D01*
X753337Y942709D01*
X753295Y942603D01*
X753263Y942487D01*
X753221Y942360D01*
X753189Y942222D01*
X753157Y942064D01*
X753136Y941895D01*
X753115Y941715D01*
Y938429D01*
X756338D01*
Y941345D01*
X756327Y941419D01*
Y941504D01*
X756317Y941705D01*
X756295Y941927D01*
X756264Y942159D01*
X756221Y942381D01*
X756158Y942582D01*
Y942592D01*
X756148Y942603D01*
X756126Y942666D01*
X756084Y942751D01*
X756021Y942867D01*
X755936Y942983D01*
X755841Y943110D01*
X755714Y943237D01*
X755577Y943343D01*
X755556Y943353D01*
X755503Y943385D01*
X755429Y943427D01*
X755313Y943480D01*
X755186Y943522D01*
X755038Y943564D01*
X754869Y943596D01*
X754700Y943607D01*
D02*
G37*
G36*
X539200Y942357D02*
X539189D01*
X539168D01*
X539137D01*
X539084Y942346D01*
X539031D01*
X538957Y942336D01*
X538798Y942293D01*
X538619Y942230D01*
X538429Y942145D01*
X538249Y942019D01*
X538154Y941934D01*
X538069Y941849D01*
X538059Y941839D01*
X538048Y941828D01*
X538027Y941797D01*
X537995Y941754D01*
X537964Y941702D01*
X537921Y941628D01*
X537879Y941554D01*
X537837Y941459D01*
X537795Y941353D01*
X537763Y941237D01*
X537721Y941110D01*
X537689Y940972D01*
X537657Y940814D01*
X537636Y940645D01*
X537615Y940465D01*
Y937179D01*
X540838D01*
Y940095D01*
X540827Y940169D01*
Y940254D01*
X540817Y940455D01*
X540796Y940677D01*
X540764Y940909D01*
X540722Y941131D01*
X540658Y941332D01*
Y941342D01*
X540648Y941353D01*
X540626Y941416D01*
X540584Y941501D01*
X540521Y941617D01*
X540436Y941733D01*
X540341Y941860D01*
X540214Y941987D01*
X540077Y942093D01*
X540056Y942103D01*
X540003Y942135D01*
X539929Y942177D01*
X539813Y942230D01*
X539686Y942272D01*
X539538Y942314D01*
X539369Y942346D01*
X539200Y942357D01*
D02*
G37*
G36*
X652732Y955182D02*
X652722D01*
X652701D01*
X652669D01*
X652627D01*
X652574D01*
X652510D01*
X652341Y955171D01*
X652151Y955160D01*
X651929Y955150D01*
X651686Y955139D01*
X651433Y955107D01*
X650894Y955044D01*
X650630Y954991D01*
X650376Y954939D01*
X650133Y954875D01*
X649901Y954801D01*
X649710Y954717D01*
X649541Y954611D01*
X649531Y954600D01*
X649510Y954590D01*
X649467Y954558D01*
X649414Y954516D01*
X649362Y954452D01*
X649288Y954389D01*
X649214Y954315D01*
X649140Y954230D01*
X649002Y954030D01*
X648876Y953787D01*
X648823Y953660D01*
X648781Y953512D01*
X648759Y953375D01*
X648749Y953216D01*
Y953142D01*
X648759Y953079D01*
X648770Y953015D01*
X648781Y952931D01*
X648833Y952741D01*
X648918Y952529D01*
X648971Y952424D01*
X649045Y952307D01*
X649119Y952202D01*
X649214Y952096D01*
X649319Y951991D01*
X649446Y951895D01*
X649457Y951885D01*
X649488Y951874D01*
X649541Y951842D01*
X649626Y951800D01*
X649731Y951758D01*
X649858Y951705D01*
X650006Y951642D01*
X650196Y951589D01*
X650408Y951536D01*
X650640Y951473D01*
X650915Y951420D01*
X651211Y951378D01*
X651538Y951335D01*
X651908Y951314D01*
X652299Y951293D01*
X652732Y951283D01*
X652743D01*
X652764D01*
X652796D01*
X652838D01*
X652891D01*
X652965D01*
X653123Y951293D01*
X653314Y951304D01*
X653535Y951314D01*
X653778Y951325D01*
X654032Y951357D01*
X654571Y951420D01*
X654835Y951462D01*
X655099Y951515D01*
X655342Y951578D01*
X655564Y951663D01*
X655765Y951747D01*
X655934Y951842D01*
X655945Y951853D01*
X655966Y951864D01*
X656008Y951895D01*
X656061Y951948D01*
X656114Y952001D01*
X656177Y952064D01*
X656325Y952223D01*
X656473Y952424D01*
X656589Y952667D01*
X656642Y952794D01*
X656684Y952931D01*
X656705Y953079D01*
X656716Y953227D01*
Y953258D01*
X656705Y953311D01*
Y953364D01*
X656695Y953438D01*
X656674Y953523D01*
X656621Y953713D01*
X656579Y953818D01*
X656526Y953924D01*
X656462Y954040D01*
X656378Y954157D01*
X656293Y954273D01*
X656188Y954389D01*
X656061Y954505D01*
X655923Y954611D01*
X655913Y954622D01*
X655881Y954632D01*
X655839Y954664D01*
X655765Y954695D01*
X655670Y954748D01*
X655543Y954790D01*
X655395Y954843D01*
X655226Y954896D01*
X655025Y954949D01*
X654793Y955002D01*
X654539Y955055D01*
X654243Y955097D01*
X653916Y955129D01*
X653557Y955160D01*
X653166Y955171D01*
X652732Y955182D01*
D02*
G37*
G36*
X650450Y939607D02*
X650439D01*
X650418D01*
X650387D01*
X650334Y939596D01*
X650281D01*
X650207Y939585D01*
X650048Y939543D01*
X649869Y939480D01*
X649679Y939395D01*
X649499Y939268D01*
X649404Y939184D01*
X649319Y939099D01*
X649309Y939089D01*
X649298Y939078D01*
X649277Y939047D01*
X649245Y939004D01*
X649214Y938951D01*
X649171Y938877D01*
X649129Y938804D01*
X649087Y938708D01*
X649045Y938603D01*
X649013Y938487D01*
X648971Y938360D01*
X648939Y938222D01*
X648907Y938064D01*
X648886Y937895D01*
X648865Y937715D01*
Y934429D01*
X652088D01*
Y937345D01*
X652077Y937419D01*
Y937504D01*
X652067Y937705D01*
X652046Y937927D01*
X652014Y938159D01*
X651972Y938381D01*
X651908Y938582D01*
Y938592D01*
X651898Y938603D01*
X651876Y938666D01*
X651834Y938751D01*
X651771Y938867D01*
X651686Y938983D01*
X651591Y939110D01*
X651464Y939237D01*
X651327Y939342D01*
X651306Y939353D01*
X651253Y939385D01*
X651179Y939427D01*
X651063Y939480D01*
X650936Y939522D01*
X650788Y939564D01*
X650619Y939596D01*
X650450Y939607D01*
D02*
G37*
G36*
X1163635Y581571D02*
X1160412D01*
Y578655D01*
X1160423Y578581D01*
Y578496D01*
X1160433Y578295D01*
X1160454Y578073D01*
X1160486Y577841D01*
X1160528Y577619D01*
X1160592Y577418D01*
Y577408D01*
X1160602Y577397D01*
X1160624Y577334D01*
X1160666Y577249D01*
X1160729Y577133D01*
X1160814Y577017D01*
X1160909Y576890D01*
X1161036Y576763D01*
X1161173Y576657D01*
X1161194Y576647D01*
X1161247Y576615D01*
X1161321Y576573D01*
X1161437Y576520D01*
X1161564Y576478D01*
X1161712Y576436D01*
X1161881Y576404D01*
X1162050Y576393D01*
X1162061D01*
X1162082D01*
X1162113D01*
X1162166Y576404D01*
X1162219D01*
X1162293Y576414D01*
X1162452Y576457D01*
X1162631Y576520D01*
X1162821Y576605D01*
X1163001Y576731D01*
X1163096Y576816D01*
X1163181Y576901D01*
X1163191Y576911D01*
X1163202Y576922D01*
X1163223Y576953D01*
X1163255Y576996D01*
X1163286Y577048D01*
X1163329Y577122D01*
X1163371Y577196D01*
X1163413Y577291D01*
X1163455Y577397D01*
X1163487Y577513D01*
X1163529Y577640D01*
X1163561Y577778D01*
X1163593Y577936D01*
X1163614Y578105D01*
X1163635Y578285D01*
Y581571D01*
D02*
G37*
G36*
X1129635Y580821D02*
X1126412D01*
Y577905D01*
X1126423Y577831D01*
Y577746D01*
X1126433Y577545D01*
X1126454Y577323D01*
X1126486Y577091D01*
X1126528Y576869D01*
X1126592Y576668D01*
Y576658D01*
X1126602Y576647D01*
X1126624Y576584D01*
X1126666Y576499D01*
X1126729Y576383D01*
X1126814Y576267D01*
X1126909Y576140D01*
X1127036Y576013D01*
X1127173Y575908D01*
X1127194Y575897D01*
X1127247Y575865D01*
X1127321Y575823D01*
X1127437Y575770D01*
X1127564Y575728D01*
X1127712Y575686D01*
X1127881Y575654D01*
X1128050Y575643D01*
X1128061D01*
X1128082D01*
X1128113D01*
X1128166Y575654D01*
X1128219D01*
X1128293Y575664D01*
X1128452Y575707D01*
X1128631Y575770D01*
X1128821Y575855D01*
X1129001Y575981D01*
X1129096Y576066D01*
X1129181Y576151D01*
X1129191Y576161D01*
X1129202Y576172D01*
X1129223Y576203D01*
X1129255Y576246D01*
X1129286Y576298D01*
X1129329Y576372D01*
X1129371Y576446D01*
X1129413Y576541D01*
X1129455Y576647D01*
X1129487Y576763D01*
X1129529Y576890D01*
X1129561Y577028D01*
X1129593Y577186D01*
X1129614Y577355D01*
X1129635Y577535D01*
Y580821D01*
D02*
G37*
G36*
X1407555Y561301D02*
X1407534D01*
X1407491D01*
X1407407D01*
X1407301Y561290D01*
X1407175D01*
X1407027Y561279D01*
X1406868Y561258D01*
X1406689Y561237D01*
X1406308Y561174D01*
X1405917Y561089D01*
X1405547Y560962D01*
X1405368Y560878D01*
X1405209Y560793D01*
X1405199Y560783D01*
X1405177Y560772D01*
X1405135Y560741D01*
X1405072Y560698D01*
X1405008Y560656D01*
X1404935Y560593D01*
X1404765Y560455D01*
X1404575Y560276D01*
X1404396Y560064D01*
X1404227Y559832D01*
X1404163Y559705D01*
X1404100Y559568D01*
Y559557D01*
X1404089Y559547D01*
X1404079Y559515D01*
X1404068Y559473D01*
X1404057Y559409D01*
X1404036Y559346D01*
X1404015Y559261D01*
X1403994Y559166D01*
X1403983Y559061D01*
X1403962Y558934D01*
X1403941Y558796D01*
X1403931Y558648D01*
X1403920Y558479D01*
X1403909Y558300D01*
X1403899Y558110D01*
Y555859D01*
X1411348D01*
Y558099D01*
X1411338Y558184D01*
Y558279D01*
X1411327Y558490D01*
X1411306Y558733D01*
X1411274Y558987D01*
X1411232Y559230D01*
X1411179Y559451D01*
Y559462D01*
X1411169Y559473D01*
X1411158Y559504D01*
X1411147Y559547D01*
X1411105Y559642D01*
X1411052Y559768D01*
X1410978Y559906D01*
X1410894Y560054D01*
X1410788Y560202D01*
X1410672Y560328D01*
X1410661Y560339D01*
X1410651Y560350D01*
X1410587Y560402D01*
X1410482Y560487D01*
X1410344Y560593D01*
X1410165Y560698D01*
X1409953Y560815D01*
X1409711Y560931D01*
X1409436Y561036D01*
X1409425D01*
X1409404Y561047D01*
X1409362Y561058D01*
X1409298Y561079D01*
X1409224Y561100D01*
X1409129Y561121D01*
X1409024Y561142D01*
X1408907Y561174D01*
X1408781Y561195D01*
X1408633Y561216D01*
X1408485Y561237D01*
X1408316Y561258D01*
X1407956Y561290D01*
X1407555Y561301D01*
D02*
G37*
G36*
X1196635Y579321D02*
X1193412D01*
Y576405D01*
X1193423Y576331D01*
Y576246D01*
X1193433Y576045D01*
X1193455Y575823D01*
X1193486Y575591D01*
X1193529Y575369D01*
X1193592Y575168D01*
Y575158D01*
X1193603Y575147D01*
X1193624Y575084D01*
X1193666Y574999D01*
X1193729Y574883D01*
X1193814Y574767D01*
X1193909Y574640D01*
X1194036Y574513D01*
X1194173Y574408D01*
X1194194Y574397D01*
X1194247Y574365D01*
X1194321Y574323D01*
X1194437Y574270D01*
X1194564Y574228D01*
X1194712Y574186D01*
X1194881Y574154D01*
X1195050Y574143D01*
X1195061D01*
X1195082D01*
X1195114D01*
X1195166Y574154D01*
X1195219D01*
X1195293Y574165D01*
X1195452Y574207D01*
X1195631Y574270D01*
X1195821Y574355D01*
X1196001Y574482D01*
X1196096Y574566D01*
X1196181Y574651D01*
X1196191Y574661D01*
X1196202Y574672D01*
X1196223Y574703D01*
X1196255Y574746D01*
X1196286Y574799D01*
X1196329Y574873D01*
X1196371Y574946D01*
X1196413Y575042D01*
X1196455Y575147D01*
X1196487Y575263D01*
X1196529Y575390D01*
X1196561Y575528D01*
X1196593Y575686D01*
X1196614Y575855D01*
X1196635Y576035D01*
Y579321D01*
D02*
G37*
G36*
X1299635D02*
X1296412D01*
Y576405D01*
X1296423Y576331D01*
Y576246D01*
X1296433Y576045D01*
X1296454Y575823D01*
X1296486Y575591D01*
X1296528Y575369D01*
X1296592Y575168D01*
Y575158D01*
X1296602Y575147D01*
X1296624Y575084D01*
X1296666Y574999D01*
X1296729Y574883D01*
X1296814Y574767D01*
X1296909Y574640D01*
X1297036Y574513D01*
X1297173Y574408D01*
X1297194Y574397D01*
X1297247Y574365D01*
X1297321Y574323D01*
X1297437Y574270D01*
X1297564Y574228D01*
X1297712Y574186D01*
X1297881Y574154D01*
X1298050Y574143D01*
X1298061D01*
X1298082D01*
X1298114D01*
X1298166Y574154D01*
X1298219D01*
X1298293Y574165D01*
X1298452Y574207D01*
X1298631Y574270D01*
X1298821Y574355D01*
X1299001Y574482D01*
X1299096Y574566D01*
X1299181Y574651D01*
X1299191Y574661D01*
X1299202Y574672D01*
X1299223Y574703D01*
X1299255Y574746D01*
X1299286Y574799D01*
X1299329Y574873D01*
X1299371Y574946D01*
X1299413Y575042D01*
X1299455Y575147D01*
X1299487Y575263D01*
X1299529Y575390D01*
X1299561Y575528D01*
X1299593Y575686D01*
X1299614Y575855D01*
X1299635Y576035D01*
Y579321D01*
D02*
G37*
G36*
X1294394Y570508D02*
Y567434D01*
X1298790D01*
X1294394Y570508D01*
D02*
G37*
G36*
X1304885Y660821D02*
X1301662D01*
Y657905D01*
X1301673Y657831D01*
Y657746D01*
X1301683Y657545D01*
X1301705Y657323D01*
X1301736Y657091D01*
X1301779Y656869D01*
X1301842Y656668D01*
Y656658D01*
X1301852Y656647D01*
X1301874Y656584D01*
X1301916Y656499D01*
X1301979Y656383D01*
X1302064Y656267D01*
X1302159Y656140D01*
X1302286Y656013D01*
X1302423Y655908D01*
X1302444Y655897D01*
X1302497Y655865D01*
X1302571Y655823D01*
X1302687Y655770D01*
X1302814Y655728D01*
X1302962Y655686D01*
X1303131Y655654D01*
X1303300Y655643D01*
X1303311D01*
X1303332D01*
X1303363D01*
X1303416Y655654D01*
X1303469D01*
X1303543Y655665D01*
X1303702Y655707D01*
X1303881Y655770D01*
X1304071Y655855D01*
X1304251Y655982D01*
X1304346Y656066D01*
X1304431Y656151D01*
X1304441Y656161D01*
X1304452Y656172D01*
X1304473Y656203D01*
X1304505Y656246D01*
X1304536Y656299D01*
X1304579Y656372D01*
X1304621Y656446D01*
X1304663Y656542D01*
X1304705Y656647D01*
X1304737Y656763D01*
X1304779Y656890D01*
X1304811Y657028D01*
X1304843Y657186D01*
X1304864Y657355D01*
X1304885Y657535D01*
Y660821D01*
D02*
G37*
G36*
X1094635Y583071D02*
X1091412D01*
Y580155D01*
X1091423Y580081D01*
Y579996D01*
X1091433Y579795D01*
X1091454Y579573D01*
X1091486Y579341D01*
X1091528Y579119D01*
X1091592Y578918D01*
Y578908D01*
X1091602Y578897D01*
X1091624Y578834D01*
X1091666Y578749D01*
X1091729Y578633D01*
X1091814Y578517D01*
X1091909Y578390D01*
X1092036Y578263D01*
X1092173Y578158D01*
X1092194Y578147D01*
X1092247Y578115D01*
X1092321Y578073D01*
X1092437Y578020D01*
X1092564Y577978D01*
X1092712Y577936D01*
X1092881Y577904D01*
X1093050Y577893D01*
X1093061D01*
X1093082D01*
X1093113D01*
X1093166Y577904D01*
X1093219D01*
X1093293Y577915D01*
X1093452Y577957D01*
X1093631Y578020D01*
X1093821Y578105D01*
X1094001Y578232D01*
X1094096Y578316D01*
X1094181Y578401D01*
X1094191Y578411D01*
X1094202Y578422D01*
X1094223Y578453D01*
X1094255Y578496D01*
X1094286Y578549D01*
X1094329Y578623D01*
X1094371Y578696D01*
X1094413Y578792D01*
X1094455Y578897D01*
X1094487Y579013D01*
X1094529Y579140D01*
X1094561Y579278D01*
X1094593Y579436D01*
X1094614Y579605D01*
X1094635Y579785D01*
Y583071D01*
D02*
G37*
G36*
X1091000Y573889D02*
X1090990D01*
X1091001Y573888D01*
X1091000Y573889D01*
D02*
G37*
G36*
X1089119Y573709D02*
X1089109D01*
X1089088D01*
X1089056D01*
X1089014D01*
X1088961Y573699D01*
X1088897D01*
X1088739Y573677D01*
X1088559Y573646D01*
X1088359Y573603D01*
X1088147Y573540D01*
X1087936Y573456D01*
X1087925D01*
X1087915Y573445D01*
X1087883Y573424D01*
X1087841Y573403D01*
X1087746Y573350D01*
X1087619Y573265D01*
X1087482Y573160D01*
X1087344Y573033D01*
X1087207Y572896D01*
X1087080Y572726D01*
Y572716D01*
X1087069Y572705D01*
X1087038Y572642D01*
X1086985Y572547D01*
X1086932Y572420D01*
X1086879Y572272D01*
X1086826Y572103D01*
X1086795Y571913D01*
X1086784Y571723D01*
Y571649D01*
X1086795Y571596D01*
X1086805Y571522D01*
X1086816Y571448D01*
X1086858Y571268D01*
X1086932Y571068D01*
X1086985Y570951D01*
X1087038Y570846D01*
X1087112Y570729D01*
X1087186Y570624D01*
X1087281Y570518D01*
X1087386Y570412D01*
X1087397Y570402D01*
X1087418Y570391D01*
X1087450Y570359D01*
X1087503Y570328D01*
X1087566Y570286D01*
X1087640Y570243D01*
X1087725Y570191D01*
X1087830Y570138D01*
X1087936Y570085D01*
X1088063Y570032D01*
X1088200Y569990D01*
X1088348Y569948D01*
X1088506Y569916D01*
X1088686Y569884D01*
X1088866Y569874D01*
X1089056Y569863D01*
X1089066D01*
X1089098D01*
X1089151D01*
X1089225Y569874D01*
X1089310Y569884D01*
X1089405Y569895D01*
X1089510Y569905D01*
X1089626Y569926D01*
X1089880Y569990D01*
X1090144Y570085D01*
X1090282Y570148D01*
X1090408Y570222D01*
X1090525Y570307D01*
X1090641Y570402D01*
X1090651Y570412D01*
X1090662Y570423D01*
X1090694Y570455D01*
X1090736Y570497D01*
X1090778Y570550D01*
X1090831Y570613D01*
X1090937Y570772D01*
X1091042Y570972D01*
X1091137Y571205D01*
X1091211Y571469D01*
X1091222Y571617D01*
X1091233Y571765D01*
Y571839D01*
X1091222Y571902D01*
X1091211Y571966D01*
X1091201Y572050D01*
X1091159Y572240D01*
X1091085Y572462D01*
X1090979Y572695D01*
X1090916Y572811D01*
X1090842Y572927D01*
X1090747Y573043D01*
X1090641Y573149D01*
X1090630Y573160D01*
X1090609Y573170D01*
X1090577Y573202D01*
X1090535Y573234D01*
X1090482Y573276D01*
X1090408Y573329D01*
X1090324Y573382D01*
X1090229Y573424D01*
X1090134Y573477D01*
X1090017Y573530D01*
X1089753Y573625D01*
X1089457Y573688D01*
X1089288Y573699D01*
X1089119Y573709D01*
D02*
G37*
G36*
X1230635Y579321D02*
X1227412D01*
Y576405D01*
X1227423Y576331D01*
Y576246D01*
X1227433Y576045D01*
X1227455Y575823D01*
X1227486Y575591D01*
X1227529Y575369D01*
X1227592Y575168D01*
Y575158D01*
X1227602Y575147D01*
X1227624Y575084D01*
X1227666Y574999D01*
X1227729Y574883D01*
X1227814Y574767D01*
X1227909Y574640D01*
X1228036Y574513D01*
X1228173Y574408D01*
X1228194Y574397D01*
X1228247Y574365D01*
X1228321Y574323D01*
X1228437Y574270D01*
X1228564Y574228D01*
X1228712Y574186D01*
X1228881Y574154D01*
X1229050Y574143D01*
X1229061D01*
X1229082D01*
X1229113D01*
X1229166Y574154D01*
X1229219D01*
X1229293Y574165D01*
X1229452Y574207D01*
X1229631Y574270D01*
X1229821Y574355D01*
X1230001Y574482D01*
X1230096Y574566D01*
X1230181Y574651D01*
X1230191Y574661D01*
X1230202Y574672D01*
X1230223Y574703D01*
X1230255Y574746D01*
X1230286Y574799D01*
X1230329Y574873D01*
X1230371Y574946D01*
X1230413Y575042D01*
X1230455Y575147D01*
X1230487Y575263D01*
X1230529Y575390D01*
X1230561Y575528D01*
X1230593Y575686D01*
X1230614Y575855D01*
X1230635Y576035D01*
Y579321D01*
D02*
G37*
G36*
X1265385Y578571D02*
X1262162D01*
Y575655D01*
X1262173Y575581D01*
Y575496D01*
X1262183Y575295D01*
X1262205Y575073D01*
X1262236Y574841D01*
X1262279Y574619D01*
X1262342Y574418D01*
Y574408D01*
X1262353Y574397D01*
X1262374Y574334D01*
X1262416Y574249D01*
X1262479Y574133D01*
X1262564Y574017D01*
X1262659Y573890D01*
X1262786Y573763D01*
X1262923Y573658D01*
X1262944Y573647D01*
X1262997Y573615D01*
X1263071Y573573D01*
X1263187Y573520D01*
X1263314Y573478D01*
X1263462Y573436D01*
X1263631Y573404D01*
X1263800Y573393D01*
X1263811D01*
X1263832D01*
X1263864D01*
X1263916Y573404D01*
X1263969D01*
X1264043Y573414D01*
X1264202Y573457D01*
X1264381Y573520D01*
X1264571Y573605D01*
X1264751Y573731D01*
X1264846Y573816D01*
X1264931Y573901D01*
X1264941Y573911D01*
X1264952Y573922D01*
X1264973Y573953D01*
X1265005Y573996D01*
X1265036Y574049D01*
X1265079Y574123D01*
X1265121Y574196D01*
X1265163Y574291D01*
X1265205Y574397D01*
X1265237Y574513D01*
X1265279Y574640D01*
X1265311Y574778D01*
X1265343Y574936D01*
X1265364Y575105D01*
X1265385Y575285D01*
Y578571D01*
D02*
G37*
G36*
X1264022Y568924D02*
X1264011D01*
X1263990D01*
X1263959D01*
X1263906Y568913D01*
X1263842D01*
X1263779Y568903D01*
X1263620Y568871D01*
X1263441Y568818D01*
X1263251Y568744D01*
X1263060Y568638D01*
X1262891Y568491D01*
X1262870Y568469D01*
X1262828Y568406D01*
X1262754Y568311D01*
X1262680Y568174D01*
X1262596Y568015D01*
X1262522Y567814D01*
X1262479Y567582D01*
X1262458Y567328D01*
Y567265D01*
X1262469Y567212D01*
Y567149D01*
X1262479Y567085D01*
X1262511Y566927D01*
X1262564Y566747D01*
X1262638Y566557D01*
X1262743Y566367D01*
X1262891Y566187D01*
X1262913Y566166D01*
X1262965Y566113D01*
X1263060Y566050D01*
X1263187Y565965D01*
X1263335Y565881D01*
X1263525Y565817D01*
X1263726Y565765D01*
X1263948Y565743D01*
X1263959D01*
X1263980D01*
X1264011D01*
X1264064Y565754D01*
X1264181Y565765D01*
X1264339Y565796D01*
X1264508Y565849D01*
X1264698Y565933D01*
X1264878Y566050D01*
X1264973Y566113D01*
X1265058Y566198D01*
X1265068D01*
X1265079Y566219D01*
X1265131Y566282D01*
X1265205Y566377D01*
X1265290Y566515D01*
X1265364Y566673D01*
X1265438Y566874D01*
X1265491Y567096D01*
X1265512Y567212D01*
Y567402D01*
X1265501Y567455D01*
Y567508D01*
X1265491Y567582D01*
X1265459Y567740D01*
X1265406Y567920D01*
X1265322Y568110D01*
X1265216Y568300D01*
X1265068Y568480D01*
X1265047Y568501D01*
X1264994Y568554D01*
X1264899Y568617D01*
X1264772Y568702D01*
X1264624Y568786D01*
X1264445Y568850D01*
X1264244Y568903D01*
X1264022Y568924D01*
D02*
G37*
G36*
X1259521Y569315D02*
X1259510D01*
X1259500D01*
X1259436D01*
X1259331Y569304D01*
X1259204Y569283D01*
X1259056Y569262D01*
X1258887Y569220D01*
X1258707Y569156D01*
X1258527Y569082D01*
X1258506Y569072D01*
X1258454Y569040D01*
X1258358Y568977D01*
X1258253Y568903D01*
X1258137Y568797D01*
X1258020Y568681D01*
X1257893Y568533D01*
X1257788Y568364D01*
Y568353D01*
X1257777Y568343D01*
X1257746Y568279D01*
X1257703Y568184D01*
X1257661Y568047D01*
X1257619Y567899D01*
X1257577Y567719D01*
X1257545Y567529D01*
X1257534Y567328D01*
Y567244D01*
X1257545Y567180D01*
X1257555Y567106D01*
X1257566Y567022D01*
X1257608Y566821D01*
X1257672Y566599D01*
X1257767Y566356D01*
X1257830Y566240D01*
X1257904Y566124D01*
X1257989Y566007D01*
X1258084Y565902D01*
X1258094Y565891D01*
X1258105Y565881D01*
X1258137Y565849D01*
X1258179Y565817D01*
X1258242Y565775D01*
X1258306Y565722D01*
X1258380Y565669D01*
X1258464Y565616D01*
X1258665Y565521D01*
X1258908Y565426D01*
X1259172Y565363D01*
X1259320Y565352D01*
X1259478Y565342D01*
X1259489D01*
X1259521D01*
X1259563D01*
X1259626Y565352D01*
X1259700Y565363D01*
X1259785Y565373D01*
X1259986Y565416D01*
X1260208Y565479D01*
X1260451Y565585D01*
X1260567Y565648D01*
X1260683Y565733D01*
X1260799Y565817D01*
X1260905Y565923D01*
X1260915Y565933D01*
X1260926Y565944D01*
X1260958Y565976D01*
X1260989Y566029D01*
X1261042Y566081D01*
X1261085Y566145D01*
X1261137Y566229D01*
X1261190Y566314D01*
X1261296Y566525D01*
X1261391Y566768D01*
X1261454Y567054D01*
X1261465Y567201D01*
X1261476Y567360D01*
Y567444D01*
X1261465Y567497D01*
X1261454Y567571D01*
X1261444Y567656D01*
X1261402Y567857D01*
X1261338Y568078D01*
X1261243Y568311D01*
X1261180Y568427D01*
X1261106Y568543D01*
X1261011Y568660D01*
X1260915Y568765D01*
X1260905Y568776D01*
X1260894Y568786D01*
X1260863Y568818D01*
X1260820Y568850D01*
X1260757Y568892D01*
X1260694Y568934D01*
X1260620Y568987D01*
X1260535Y569040D01*
X1260334Y569146D01*
X1260091Y569230D01*
X1259817Y569294D01*
X1259679Y569304D01*
X1259521Y569315D01*
D02*
G37*
G36*
X1537805Y943801D02*
X1537784D01*
X1537742D01*
X1537657D01*
X1537551Y943790D01*
X1537424D01*
X1537277Y943780D01*
X1537118Y943758D01*
X1536938Y943737D01*
X1536558Y943674D01*
X1536167Y943589D01*
X1535797Y943463D01*
X1535618Y943378D01*
X1535459Y943293D01*
X1535449Y943283D01*
X1535428Y943272D01*
X1535385Y943241D01*
X1535322Y943198D01*
X1535258Y943156D01*
X1535184Y943093D01*
X1535015Y942955D01*
X1534825Y942776D01*
X1534646Y942564D01*
X1534476Y942332D01*
X1534413Y942205D01*
X1534350Y942068D01*
Y942057D01*
X1534339Y942047D01*
X1534329Y942015D01*
X1534318Y941973D01*
X1534307Y941909D01*
X1534286Y941846D01*
X1534265Y941761D01*
X1534244Y941666D01*
X1534234Y941561D01*
X1534212Y941434D01*
X1534191Y941296D01*
X1534181Y941149D01*
X1534170Y940979D01*
X1534160Y940800D01*
X1534149Y940610D01*
Y938359D01*
X1541598D01*
Y940599D01*
X1541588Y940684D01*
Y940779D01*
X1541577Y940990D01*
X1541556Y941233D01*
X1541524Y941487D01*
X1541482Y941730D01*
X1541429Y941952D01*
Y941962D01*
X1541419Y941973D01*
X1541408Y942004D01*
X1541398Y942047D01*
X1541355Y942142D01*
X1541302Y942269D01*
X1541228Y942406D01*
X1541144Y942554D01*
X1541038Y942702D01*
X1540922Y942829D01*
X1540911Y942839D01*
X1540901Y942850D01*
X1540838Y942903D01*
X1540732Y942987D01*
X1540594Y943093D01*
X1540415Y943198D01*
X1540204Y943315D01*
X1539960Y943431D01*
X1539686Y943537D01*
X1539675D01*
X1539654Y943547D01*
X1539612Y943558D01*
X1539548Y943579D01*
X1539474Y943600D01*
X1539379Y943621D01*
X1539274Y943642D01*
X1539157Y943674D01*
X1539031Y943695D01*
X1538883Y943716D01*
X1538735Y943737D01*
X1538566Y943758D01*
X1538206Y943790D01*
X1537805Y943801D01*
D02*
G37*
G36*
X1619839Y812691D02*
X1615262D01*
Y809238D01*
X1615276Y809127D01*
Y808989D01*
X1615290Y808836D01*
X1615318Y808656D01*
X1615345Y808475D01*
X1615415Y808087D01*
X1615526Y807699D01*
X1615595Y807519D01*
X1615678Y807352D01*
X1615762Y807186D01*
X1615872Y807047D01*
X1615886Y807033D01*
X1615900Y807019D01*
X1615942Y806978D01*
X1615983Y806936D01*
X1616122Y806825D01*
X1616316Y806700D01*
X1616566Y806575D01*
X1616857Y806465D01*
X1617204Y806381D01*
X1617384Y806367D01*
X1617592Y806354D01*
X1617606D01*
X1617634D01*
X1617675D01*
X1617731D01*
X1617883Y806381D01*
X1618064Y806409D01*
X1618286Y806451D01*
X1618508Y806534D01*
X1618743Y806631D01*
X1618965Y806770D01*
X1618993Y806784D01*
X1619062Y806839D01*
X1619159Y806936D01*
X1619270Y807047D01*
X1619395Y807214D01*
X1619520Y807394D01*
X1619631Y807602D01*
X1619714Y807838D01*
Y807851D01*
X1619728Y807921D01*
X1619756Y808032D01*
X1619783Y808198D01*
Y808295D01*
X1619797Y808406D01*
X1619811Y808545D01*
X1619825Y808683D01*
Y808850D01*
X1619839Y809016D01*
Y812691D01*
D02*
G37*
G36*
X1493891Y538598D02*
X1491651D01*
X1491566Y538588D01*
X1491471D01*
X1491260Y538577D01*
X1491017Y538556D01*
X1490763Y538524D01*
X1490520Y538482D01*
X1490298Y538429D01*
X1490288D01*
X1490277Y538419D01*
X1490246Y538408D01*
X1490203Y538397D01*
X1490108Y538355D01*
X1489982Y538302D01*
X1489844Y538228D01*
X1489696Y538144D01*
X1489548Y538038D01*
X1489422Y537922D01*
X1489411Y537911D01*
X1489400Y537901D01*
X1489348Y537837D01*
X1489263Y537732D01*
X1489157Y537594D01*
X1489052Y537415D01*
X1488936Y537203D01*
X1488819Y536960D01*
X1488714Y536686D01*
Y536675D01*
X1488703Y536654D01*
X1488692Y536612D01*
X1488671Y536548D01*
X1488650Y536474D01*
X1488629Y536379D01*
X1488608Y536274D01*
X1488576Y536157D01*
X1488555Y536031D01*
X1488534Y535883D01*
X1488513Y535735D01*
X1488492Y535566D01*
X1488460Y535206D01*
X1488449Y534805D01*
Y534784D01*
Y534742D01*
Y534657D01*
X1488460Y534551D01*
Y534425D01*
X1488470Y534277D01*
X1488492Y534118D01*
X1488513Y533938D01*
X1488576Y533558D01*
X1488661Y533167D01*
X1488788Y532797D01*
X1488872Y532618D01*
X1488957Y532459D01*
X1488967Y532449D01*
X1488978Y532427D01*
X1489009Y532385D01*
X1489052Y532322D01*
X1489094Y532258D01*
X1489157Y532184D01*
X1489295Y532015D01*
X1489474Y531825D01*
X1489686Y531646D01*
X1489918Y531477D01*
X1490045Y531413D01*
X1490182Y531350D01*
X1490193D01*
X1490203Y531339D01*
X1490235Y531329D01*
X1490277Y531318D01*
X1490341Y531307D01*
X1490404Y531286D01*
X1490489Y531265D01*
X1490584Y531244D01*
X1490690Y531233D01*
X1490816Y531212D01*
X1490954Y531191D01*
X1491102Y531181D01*
X1491271Y531170D01*
X1491450Y531160D01*
X1491640Y531149D01*
X1493891D01*
Y538598D01*
D02*
G37*
%LPD*%
D38*
X1418500Y549250D02*
X1440500D01*
X1418500Y562750D02*
X1440500D01*
X1418500Y549250D02*
Y562750D01*
X1440500Y549250D02*
Y562750D01*
X1548750Y931750D02*
X1570750D01*
X1548750Y945250D02*
X1570750D01*
X1548750Y931750D02*
Y945250D01*
X1570750Y931750D02*
Y945250D01*
X1500500Y545750D02*
Y567750D01*
X1487000Y545750D02*
Y567750D01*
Y545750D02*
X1500500D01*
X1487000Y567750D02*
X1500500D01*
D40*
X869250Y579000D02*
Y590500D01*
X848250Y579000D02*
Y590500D01*
Y579000D02*
X869250D01*
X848250Y590500D02*
X869250D01*
X995250Y984000D02*
Y1005000D01*
X1006750Y984000D02*
Y1005000D01*
X995250Y984000D02*
X1006750D01*
X995250Y1005000D02*
X1006750D01*
X780750Y939500D02*
Y961500D01*
X766750Y939500D02*
Y961500D01*
X780750D01*
X766750Y939500D02*
X780750D01*
X565250Y938250D02*
Y960250D01*
X551250Y938250D02*
Y960250D01*
X565250D01*
X551250Y938250D02*
X565250D01*
X676500Y935500D02*
Y957500D01*
X662500Y935500D02*
Y957500D01*
X676500D01*
X662500Y935500D02*
X676500D01*
X542000Y569250D02*
Y590250D01*
X530500Y569250D02*
Y590250D01*
X542000D01*
X530500Y569250D02*
X542000D01*
X1136000Y558500D02*
Y580500D01*
X1150000Y558500D02*
Y580500D01*
X1136000Y558500D02*
X1150000D01*
X1136000Y580500D02*
X1150000D01*
X1102000Y557750D02*
Y579750D01*
X1116000Y557750D02*
Y579750D01*
X1102000Y557750D02*
X1116000D01*
X1102000Y579750D02*
X1116000D01*
X1169000Y556250D02*
Y578250D01*
X1183000Y556250D02*
Y578250D01*
X1169000Y556250D02*
X1183000D01*
X1169000Y578250D02*
X1183000D01*
X1272000Y556250D02*
Y578250D01*
X1286000Y556250D02*
Y578250D01*
X1272000Y556250D02*
X1286000D01*
X1272000Y578250D02*
X1286000D01*
X1277250Y637750D02*
Y659750D01*
X1291250Y637750D02*
Y659750D01*
X1277250Y637750D02*
X1291250D01*
X1277250Y659750D02*
X1291250D01*
X1067000Y560000D02*
Y582000D01*
X1081000Y560000D02*
Y582000D01*
X1067000Y560000D02*
X1081000D01*
X1067000Y582000D02*
X1081000D01*
X1203000Y556250D02*
Y578250D01*
X1217000Y556250D02*
Y578250D01*
X1203000Y556250D02*
X1217000D01*
X1203000Y578250D02*
X1217000D01*
X1237750Y555500D02*
Y577500D01*
X1251750Y555500D02*
Y577500D01*
X1237750Y555500D02*
X1251750D01*
X1237750Y577500D02*
X1251750D01*
X1322750Y753750D02*
Y774750D01*
X1311250Y753750D02*
Y774750D01*
X1322750D01*
X1311250Y753750D02*
X1322750D01*
X864500Y667000D02*
Y688000D01*
X853000Y667000D02*
Y688000D01*
X864500D01*
X853000Y667000D02*
X864500D01*
X1325500Y637000D02*
Y658000D01*
X1314000Y637000D02*
Y658000D01*
X1325500D01*
X1314000Y637000D02*
X1325500D01*
X863000Y769500D02*
Y790500D01*
X851500Y769500D02*
Y790500D01*
X863000D01*
X851500Y769500D02*
X863000D01*
X1006750Y680000D02*
Y701000D01*
X995250Y680000D02*
Y701000D01*
X1006750D01*
X995250Y680000D02*
X1006750D01*
X1309750Y1001500D02*
Y1022500D01*
X1321250Y1001500D02*
Y1022500D01*
X1309750Y1001500D02*
X1321250D01*
X1309750Y1022500D02*
X1321250D01*
X1006750Y828250D02*
Y849250D01*
X995250Y828250D02*
Y849250D01*
X1006750D01*
X995250Y828250D02*
X1006750D01*
X547500Y775000D02*
Y796000D01*
X536000Y775000D02*
Y796000D01*
X547500D01*
X536000Y775000D02*
X547500D01*
X1325500Y866250D02*
Y887250D01*
X1314000Y866250D02*
Y887250D01*
X1325500D01*
X1314000Y866250D02*
X1325500D01*
X542000Y659750D02*
Y680750D01*
X530500Y659750D02*
Y680750D01*
X542000D01*
X530500Y659750D02*
X542000D01*
D41*
X421000Y462000D02*
X466020D01*
X421000D02*
Y496250D01*
X432500D01*
Y1110000D01*
X1609750Y1077000D02*
X1617250D01*
Y1110000D01*
X432500Y1110000D02*
X1617250Y1110000D01*
X1609750Y1077000D02*
X1609750Y481750D01*
X466020Y462000D02*
X1609750D01*
Y481750D01*
X1029660Y851050D02*
Y868550D01*
X1222700Y821050D02*
Y868550D01*
X1029660Y851050D02*
X1037160D01*
X1029660Y821050D02*
Y838550D01*
X1037160D02*
Y851050D01*
X1029660Y868550D02*
X1222700D01*
X1029660Y821050D02*
X1222700D01*
X1029660Y838550D02*
X1037160D01*
X1029010Y685600D02*
X1036510D01*
X1029010Y668100D02*
X1222050D01*
X1029010Y715600D02*
X1222050D01*
X1036510Y685600D02*
Y698100D01*
X1029010Y668100D02*
Y685600D01*
Y698100D02*
X1036510D01*
X1222050Y668100D02*
Y715600D01*
X1029010Y698100D02*
Y715600D01*
X1026310Y987350D02*
X1033810D01*
X1026310Y969850D02*
X1219350D01*
X1026310Y1017350D02*
X1219350D01*
X1033810Y987350D02*
Y999850D01*
X1026310Y969850D02*
Y987350D01*
Y999850D02*
X1033810D01*
X1219350Y969850D02*
Y1017350D01*
X1026310Y999850D02*
Y1017350D01*
X1433520Y860885D02*
Y876120D01*
X1425902D01*
X1423363Y873581D01*
Y863424D01*
X1425902Y860885D01*
X1433520D01*
X1418285Y863424D02*
X1415746Y860885D01*
X1410667D01*
X1408128Y863424D01*
Y865963D01*
X1410667Y868503D01*
X1408128Y871042D01*
Y873581D01*
X1410667Y876120D01*
X1415746D01*
X1418285Y873581D01*
Y871042D01*
X1415746Y868503D01*
X1418285Y865963D01*
Y863424D01*
X1415746Y868503D02*
X1410667D01*
X1203650Y834465D02*
Y849700D01*
X1196032D01*
X1193493Y847161D01*
Y837004D01*
X1196032Y834465D01*
X1203650D01*
X1180797Y849700D02*
Y834465D01*
X1188415Y842083D01*
X1178258D01*
X1433520Y753885D02*
Y769120D01*
X1425902D01*
X1423363Y766581D01*
Y756424D01*
X1425902Y753885D01*
X1433520D01*
X1408128D02*
X1413206Y756424D01*
X1418285Y761503D01*
Y766581D01*
X1415746Y769120D01*
X1410667D01*
X1408128Y766581D01*
Y764042D01*
X1410667Y761503D01*
X1418285D01*
X1433520Y983385D02*
Y998620D01*
X1425903D01*
X1423363Y996081D01*
Y985924D01*
X1425903Y983385D01*
X1433520D01*
X1418285Y998620D02*
X1413207D01*
X1415746D01*
Y983385D01*
X1418285Y985924D01*
X1405589D02*
X1403050Y983385D01*
X1397971D01*
X1395432Y985924D01*
Y996081D01*
X1397971Y998620D01*
X1403050D01*
X1405589Y996081D01*
Y985924D01*
X1203000Y681515D02*
Y696750D01*
X1195383D01*
X1192843Y694211D01*
Y684054D01*
X1195383Y681515D01*
X1203000D01*
X1187765Y696750D02*
X1182687D01*
X1185226D01*
Y681515D01*
X1187765Y684054D01*
X989770Y577885D02*
Y593120D01*
X982152D01*
X979613Y590581D01*
Y580424D01*
X982152Y577885D01*
X989770D01*
X964378D02*
X974535D01*
Y585503D01*
X969457Y582963D01*
X966917D01*
X964378Y585503D01*
Y590581D01*
X966917Y593120D01*
X971996D01*
X974535Y590581D01*
X1200300Y983265D02*
Y998500D01*
X1192682D01*
X1190143Y995961D01*
Y985804D01*
X1192682Y983265D01*
X1200300D01*
X1185065D02*
X1174908D01*
Y985804D01*
X1185065Y995961D01*
Y998500D01*
%TF.MD5,add5a6fa9bea5a28b82f9436468ab656*%
M02*
